<svg width="156" height="242" viewBox="0 0 156 242" fill="none" xmlns="http://www.w3.org/2000/svg">
<path d="M25.0209 241.707C24.956 241.707 24.8931 241.684 24.8428 241.643C24.7925 241.602 24.7579 241.545 24.7449 241.481C20.8418 222.94 2.25558 214.785 2.06409 214.7C1.99821 214.669 1.9469 214.614 1.9209 214.546C1.89491 214.478 1.89626 214.403 1.92468 214.336C1.95309 214.269 2.00636 214.215 2.0733 214.186C2.14025 214.158 2.21566 214.156 2.28374 214.182C2.47524 214.261 21.3262 222.529 25.2913 241.363C25.2987 241.399 25.2988 241.437 25.2918 241.473C25.2848 241.509 25.2707 241.544 25.2503 241.575C25.2299 241.606 25.2036 241.632 25.1729 241.653C25.1423 241.674 25.1078 241.688 25.0716 241.695H25.0153L25.0209 241.707Z" fill="#7126B5" fill-opacity="0.5"/>
<path d="M6.722 216.925C6.722 216.925 5.07177 214.368 5.52798 212.211C5.98419 210.054 9.83097 212.425 6.722 216.925Z" fill="#7126B5"/>
<path d="M10.5408 219.583C10.5408 219.583 8.6315 215.303 10.507 212.887C12.3825 210.47 13.9089 216.587 10.5408 219.583Z" fill="#7126B5"/>
<path d="M15.3899 223.892C15.3899 223.892 13.6157 220.169 14.6239 216.677C15.6321 213.185 19.9745 216.97 15.3899 223.892Z" fill="#7126B5"/>
<path d="M4.00172 215.348C4.00172 215.348 2.76827 213.242 0.82516 213.259C-1.11795 213.276 0.54355 216.159 4.00172 215.348Z" fill="#7126B5"/>
<path d="M8.13017 217.849C8.13017 217.849 4.75086 216.722 3.21327 217.455C1.67568 218.187 4.75086 220.49 8.13017 217.849Z" fill="#7126B5"/>
<path d="M11.7515 220.547C11.7515 220.547 7.61182 219.539 6.41779 221.555C5.22376 223.571 9.707 224.202 11.7515 220.547Z" fill="#7126B5"/>
<path d="M16.3418 224.9C16.3418 224.9 11.7234 223.808 10.4731 226.201C9.2227 228.595 14.455 229.265 16.3418 224.9Z" fill="#7126B5"/>
<path d="M18.2567 227.164C18.2567 227.164 18.1779 222.422 20.228 220.349C22.2781 218.277 24.4409 224.32 18.2567 227.164Z" fill="#7126B5"/>
<path d="M19.2594 228.494C19.2594 228.494 14.9508 228.803 14.9846 231.282C15.0184 233.76 18.1217 233.084 19.2594 228.494Z" fill="#7126B5"/>
<path d="M21.1294 231.366C21.3339 229.757 21.8362 228.201 22.6107 226.776C23.8103 224.529 27.6627 228.313 21.1294 231.366Z" fill="#7126B5"/>
<path d="M21.7376 232.492C21.7376 232.492 18.668 233.084 18.4934 234.954C18.3188 236.824 21.4165 235.872 21.7376 232.492Z" fill="#7126B5"/>
<path d="M22.2559 233.416C22.2559 233.416 24.2778 230.876 25.4493 231.659C26.6208 232.442 24.5087 234.605 22.2559 233.416Z" fill="#7126B5"/>
<path d="M124.458 239.91C124.458 239.91 106.057 222.687 114.826 200.89C116.957 205.034 119.334 209.046 121.946 212.904C126.525 219.764 128.777 228.302 124.458 239.91Z" fill="#7126B5" fill-opacity="0.5"/>
<path d="M123.951 237.826C123.9 237.826 123.85 237.813 123.807 237.787C123.763 237.761 123.727 237.724 123.703 237.68C116.381 224.337 114.601 204.422 114.584 204.219C114.581 204.182 114.586 204.145 114.597 204.109C114.608 204.074 114.627 204.041 114.651 204.013C114.675 203.985 114.704 203.961 114.737 203.944C114.77 203.928 114.807 203.917 114.844 203.915C114.918 203.91 114.991 203.934 115.048 203.983C115.105 204.031 115.141 204.1 115.148 204.174C115.148 204.371 116.911 224.174 124.199 237.404C124.224 237.447 124.237 237.496 124.236 237.545C124.236 237.595 124.223 237.644 124.198 237.687C124.172 237.73 124.136 237.765 124.093 237.79C124.05 237.814 124.001 237.827 123.951 237.826Z" fill="#7126B5"/>
<path d="M124.458 239.91C124.458 239.91 126.311 216.694 146.93 213.856C144.722 217.624 142.98 221.647 141.743 225.835C139.771 232.622 134.708 239.91 124.458 239.91Z" fill="#7126B5" fill-opacity="0.5"/>
<path d="M125.854 238.688H125.77C125.699 238.665 125.64 238.614 125.606 238.548C125.572 238.481 125.566 238.404 125.59 238.333C130.016 224.647 144.35 215.41 144.497 215.314C144.559 215.279 144.633 215.268 144.703 215.285C144.773 215.303 144.834 215.346 144.873 215.407C144.912 215.467 144.926 215.541 144.913 215.611C144.9 215.682 144.859 215.745 144.801 215.787C144.66 215.878 130.49 225.013 126.125 238.502C126.105 238.557 126.068 238.605 126.019 238.638C125.971 238.672 125.913 238.689 125.854 238.688Z" fill="#7126B5"/>
<path d="M124.458 239.91C124.458 239.91 119.642 229.772 122.233 216.075C124.824 202.377 140.256 193.726 140.256 193.726C140.256 193.726 139.27 198.046 139.512 205.83C139.755 213.613 138.409 230.031 124.458 239.91Z" fill="#7126B5"/>
<path d="M124.582 238.091C124.509 238.091 124.439 238.063 124.386 238.012C124.334 237.962 124.303 237.893 124.3 237.821C123.32 214.396 136.944 197.663 137.085 197.494C137.133 197.437 137.202 197.4 137.276 197.394C137.35 197.387 137.425 197.41 137.482 197.457C137.54 197.505 137.576 197.574 137.583 197.648C137.59 197.723 137.567 197.797 137.519 197.855C137.384 198.018 123.894 214.593 124.863 237.798C124.865 237.835 124.859 237.872 124.846 237.907C124.833 237.941 124.814 237.973 124.789 238.001C124.764 238.028 124.733 238.05 124.7 238.065C124.666 238.081 124.63 238.089 124.593 238.091H124.582Z" fill="#7126B5" fill-opacity="0.5"/>
<path d="M144.891 240.192H115.694C115.619 240.192 115.547 240.162 115.495 240.109C115.442 240.057 115.412 239.985 115.412 239.91C115.412 239.836 115.442 239.764 115.495 239.711C115.547 239.658 115.619 239.629 115.694 239.629H144.891C144.966 239.629 145.037 239.658 145.09 239.711C145.143 239.764 145.173 239.836 145.173 239.91C145.173 239.985 145.143 240.057 145.09 240.109C145.037 240.162 144.966 240.192 144.891 240.192Z" fill="#7126B5"/>
<path d="M64.2099 240.192H35.0126C34.9379 240.192 34.8663 240.162 34.8134 240.109C34.7606 240.057 34.731 239.985 34.731 239.91C34.731 239.836 34.7606 239.764 34.8134 239.711C34.8663 239.658 34.9379 239.629 35.0126 239.629H64.2099C64.2846 239.629 64.3562 239.658 64.409 239.711C64.4618 239.764 64.4915 239.836 64.4915 239.91C64.4915 239.985 64.4618 240.057 64.409 240.109C64.3562 240.162 64.2846 240.192 64.2099 240.192Z" fill="#7126B5"/>
<path d="M126.536 241.741H80.9828C80.9081 241.741 80.8365 241.711 80.7837 241.658C80.7308 241.605 80.7012 241.534 80.7012 241.459C80.7012 241.384 80.7308 241.313 80.7837 241.26C80.8365 241.207 80.9081 241.177 80.9828 241.177H126.536C126.611 241.177 126.682 241.207 126.735 241.26C126.788 241.313 126.818 241.384 126.818 241.459C126.818 241.534 126.788 241.605 126.735 241.658C126.682 241.711 126.611 241.741 126.536 241.741Z" fill="#7126B5"/>
<path d="M32.7371 241.741H20.9095C20.8349 241.741 20.7632 241.711 20.7104 241.658C20.6576 241.605 20.6279 241.534 20.6279 241.459C20.6279 241.384 20.6576 241.313 20.7104 241.26C20.7632 241.207 20.8349 241.177 20.9095 241.177H32.7371C32.8118 241.177 32.8835 241.207 32.9363 241.26C32.9891 241.313 33.0188 241.384 33.0188 241.459C33.0188 241.534 32.9891 241.605 32.9363 241.658C32.8835 241.711 32.8118 241.741 32.7371 241.741Z" fill="#7126B5"/>
<path d="M88.7158 216.373L89.5606 223.34H94.2804L94.348 216.159L88.7158 216.373Z" fill="#FFD200"/>
<path d="M114.837 237.629H86.0401C86.0401 237.629 85.9837 236.041 86.164 233.619C86.4157 229.562 87.2269 225.559 88.5746 221.724H94.9108C97.3755 224.791 100.795 226.946 104.626 227.846C109.752 229.113 113.108 229.778 114.325 233.619C114.699 234.922 114.872 236.274 114.837 237.629Z" fill="#7126B5"/>
<path d="M114.837 237.629H86.0401C86.0401 237.629 85.9837 236.041 86.164 233.619H114.325C114.699 234.922 114.872 236.274 114.837 237.629Z" fill="#7126B5" fill-opacity="0.5"/>
<path d="M98.4762 217.663C94.5122 218.381 90.4635 218.506 86.4627 218.035C86.4627 218.035 81.3599 175.044 76.4261 146.596C75.9587 143.909 75.4968 141.352 75.035 138.97C74.8435 137.945 74.6558 136.954 74.4718 135.996V114.526C74.452 111.887 74.9356 109.268 75.8967 106.81C77.4005 103.054 80.4363 98.8237 86.4852 98.8237C94.1112 98.8237 96.9442 105.999 97.9637 110.302C98.3254 111.838 98.5143 113.41 98.5269 114.988C98.5663 125.684 98.9943 189.998 98.4762 217.663Z" fill="#D0D0D0"/>
<path d="M78.5102 135.782L76.4263 146.596C75.9588 143.909 75.497 141.352 75.0352 138.97C76.3249 138.029 78.0146 137.258 78.5102 135.782Z" fill="#7126B5"/>
<path d="M96.8147 128.117C96.7849 128.122 96.7543 128.122 96.7245 128.117C92.1737 126.309 92.8101 118.891 92.8439 118.576C92.8511 118.512 92.8826 118.454 92.932 118.413C92.9814 118.372 93.0447 118.351 93.1087 118.356C93.1405 118.359 93.1715 118.368 93.1998 118.383C93.2281 118.398 93.2532 118.418 93.2736 118.443C93.2941 118.467 93.3094 118.496 93.3188 118.526C93.3282 118.557 93.3314 118.589 93.3283 118.621C93.3283 118.694 92.6919 125.993 96.9104 127.666C96.9547 127.692 96.9897 127.731 97.0105 127.777C97.0313 127.824 97.0368 127.876 97.0262 127.926C97.0155 127.976 96.9894 128.022 96.9514 128.056C96.9134 128.09 96.8655 128.111 96.8147 128.117Z" fill="#FFD200"/>
<path d="M89.4648 216.024C89.4034 216.024 89.3442 216.001 89.2993 215.959C89.2543 215.917 89.2269 215.86 89.2226 215.799C87.533 193.912 78.161 136.903 78.0652 136.334C78.0548 136.271 78.07 136.206 78.1075 136.153C78.145 136.101 78.2017 136.066 78.2652 136.055C78.3287 136.045 78.3937 136.06 78.446 136.097C78.4983 136.135 78.5335 136.192 78.544 136.255C78.6397 136.818 88.0342 193.856 89.707 215.765C89.7093 215.797 89.7053 215.829 89.6952 215.859C89.6851 215.889 89.6691 215.917 89.6482 215.941C89.6273 215.965 89.6018 215.985 89.5732 215.999C89.5446 216.013 89.5135 216.022 89.4817 216.024H89.4648Z" fill="#FFD200"/>
<path d="M75.5754 138.863C75.526 138.862 75.4779 138.846 75.4376 138.818C75.3974 138.789 75.367 138.748 75.3504 138.702C75.3338 138.655 75.3319 138.605 75.345 138.557C75.358 138.509 75.3854 138.467 75.4234 138.435L77.5692 136.706C77.9437 136.405 78.2501 136.028 78.4686 135.599C78.687 135.171 78.8123 134.702 78.8365 134.222C79.1294 128.41 79.2758 111.75 79.2814 111.586C79.2814 111.522 79.3069 111.46 79.3524 111.415C79.3978 111.37 79.4594 111.344 79.5236 111.344C79.5869 111.345 79.647 111.372 79.6912 111.417C79.7354 111.462 79.7602 111.523 79.7602 111.586C79.7602 111.755 79.6081 128.421 79.3152 134.244C79.2844 134.789 79.1397 135.321 78.8903 135.806C78.641 136.291 78.2926 136.719 77.8677 137.061L75.7219 138.79C75.6833 138.831 75.6314 138.857 75.5754 138.863Z" fill="#FFD200"/>
<path d="M48.9692 216.373L48.834 223.34H53.5538L54.6295 216.159L48.9692 216.373Z" fill="#FFD200"/>
<path d="M58.7131 229.677C55.407 226.652 54.5397 221.724 54.5397 221.724H48.2035C46.6152 226.004 45.0438 230.504 44.8241 233.619C44.6439 236.041 44.7002 237.629 44.7002 237.629H62.0812C62.0418 233.749 61.6813 232.386 58.7131 229.677Z" fill="#7126B5"/>
<path d="M44.8241 233.619C44.6439 236.041 44.7002 237.629 44.7002 237.629H62.0812C62.1313 236.278 61.9814 234.926 61.6362 233.619H44.8241Z" fill="#7126B5" fill-opacity="0.5"/>
<path d="M75.5754 112.949V138.621L56.6118 218.294C56.6118 218.294 50.9796 219.747 47.0371 216.863C47.0371 216.863 51.4471 127.903 51.8245 114.216C52.2469 98.8236 73.6943 89.9979 75.5754 112.949Z" fill="#D0D0D0"/>
<path d="M75.5757 138.863C75.5114 138.863 75.4498 138.837 75.4044 138.792C75.359 138.747 75.3335 138.685 75.3335 138.621V116.013C75.3335 115.949 75.359 115.887 75.4044 115.842C75.4498 115.797 75.5114 115.771 75.5757 115.771C75.6399 115.771 75.7015 115.797 75.7469 115.842C75.7923 115.887 75.8179 115.949 75.8179 116.013V138.626C75.8164 138.69 75.7902 138.75 75.745 138.794C75.6997 138.838 75.6389 138.863 75.5757 138.863Z" fill="#FFD200"/>
<path d="M55.7954 128.117C55.7312 128.117 55.6696 128.091 55.6242 128.046C55.5787 128.001 55.5532 127.939 55.5532 127.875C55.5532 127.81 55.5787 127.749 55.6242 127.703C55.6696 127.658 55.7312 127.632 55.7954 127.632C58.6115 127.632 60.2054 124.507 60.5039 118.334C60.5054 118.302 60.5131 118.271 60.5266 118.242C60.5401 118.213 60.5592 118.187 60.5828 118.166C60.6063 118.144 60.6338 118.128 60.6638 118.117C60.6938 118.106 60.7256 118.101 60.7574 118.103C60.7892 118.104 60.8204 118.112 60.8492 118.126C60.8781 118.139 60.904 118.158 60.9254 118.182C60.9469 118.205 60.9635 118.233 60.9742 118.263C60.985 118.293 60.9898 118.324 60.9883 118.356C60.6673 124.833 58.9213 128.117 55.7954 128.117Z" fill="#FFD200"/>
<path d="M49.4759 216.024C49.4441 216.022 49.413 216.013 49.3844 215.999C49.3558 215.985 49.3304 215.965 49.3094 215.941C49.2885 215.917 49.2725 215.889 49.2624 215.859C49.2523 215.829 49.2483 215.797 49.2506 215.765L56.2909 117.765C56.2923 117.733 56.3002 117.701 56.3141 117.672C56.3281 117.643 56.3477 117.617 56.372 117.596C56.3962 117.575 56.4245 117.559 56.4551 117.55C56.4857 117.54 56.518 117.536 56.55 117.539C56.5818 117.542 56.6129 117.55 56.6415 117.564C56.67 117.578 56.6955 117.598 56.7164 117.622C56.7374 117.646 56.7534 117.674 56.7634 117.704C56.7735 117.735 56.7775 117.767 56.7752 117.799L49.735 215.799C49.7329 215.831 49.7245 215.862 49.7103 215.89C49.6961 215.919 49.6764 215.944 49.6523 215.965C49.6282 215.986 49.6002 216.002 49.57 216.012C49.5397 216.022 49.5077 216.026 49.4759 216.024Z" fill="#FFD200"/>
<path d="M96.8149 41.1387C96.8149 41.1387 113.148 63.5266 116.691 75.9175C120.234 88.3083 107.02 90.5612 97.7273 74.9318C88.4342 59.3025 84.9141 50.995 84.9141 50.995L96.8149 41.1387Z" fill="#7126B5" fill-opacity="0.5"/>
<path d="M102.047 115.72C71.3515 121.257 48.4453 115.72 48.4453 115.72C49.5718 103.51 50.5518 89.446 51.2614 76.9256C52.0555 63.3633 52.585 51.6145 52.8272 45.9485C52.9229 43.6957 52.9736 42.3834 52.9736 42.3834C52.9736 42.3834 60.6728 33.9351 74.4266 33.3719C82.593 33.0311 90.585 35.7984 96.7921 41.1161C102.374 73.6646 102.047 115.72 102.047 115.72Z" fill="#7126B5" fill-opacity="0.5"/>
<path d="M100.853 78.362C100.781 78.3622 100.712 78.3348 100.659 78.2856C100.607 78.2364 100.575 78.169 100.571 78.0973C99.7094 64.6589 98.4365 52.7524 96.7863 42.6764C96.7743 42.6018 96.7926 42.5254 96.8369 42.4641C96.8813 42.4029 96.9482 42.3617 97.0229 42.3498C97.0975 42.3378 97.1739 42.356 97.2352 42.4004C97.2964 42.4448 97.3376 42.5116 97.3495 42.5863C99.0054 52.668 100.278 64.6026 101.14 78.0692C101.142 78.1062 101.137 78.1432 101.125 78.1783C101.113 78.2133 101.094 78.2456 101.07 78.2734C101.045 78.3011 101.015 78.3237 100.982 78.3399C100.948 78.3561 100.912 78.3655 100.875 78.3677L100.853 78.362Z" fill="#7126B5"/>
<path d="M78.3074 116.937C78.2704 116.934 78.2343 116.924 78.2012 116.907C78.1681 116.89 78.1387 116.867 78.1146 116.839C78.0905 116.81 78.0723 116.778 78.0609 116.742C78.0495 116.707 78.0453 116.67 78.0484 116.633C79.41 99.9591 79.1554 83.1928 77.288 66.5681C77.2832 66.5312 77.2857 66.4936 77.2954 66.4576C77.3052 66.4216 77.3219 66.3878 77.3446 66.3583C77.3674 66.3287 77.3957 66.304 77.428 66.2854C77.4604 66.2668 77.496 66.2547 77.533 66.2499C77.57 66.2451 77.6076 66.2476 77.6436 66.2574C77.6796 66.2671 77.7133 66.2838 77.7429 66.3065C77.7724 66.3293 77.7972 66.3576 77.8158 66.3899C77.8344 66.4223 77.8464 66.4579 77.8512 66.4949C79.7117 83.1599 79.9551 99.9659 78.5778 116.678C78.5723 116.747 78.5418 116.811 78.4919 116.859C78.4421 116.907 78.3764 116.934 78.3074 116.937Z" fill="#7126B5"/>
<path d="M54.359 113.186C54.2852 113.179 54.2172 113.143 54.1698 113.086C54.1223 113.029 54.0992 112.956 54.1055 112.882C55.9585 92.1101 55.3333 66.6076 55.3221 66.3541C55.3221 66.2794 55.3517 66.2078 55.4045 66.155C55.4573 66.1022 55.529 66.0725 55.6037 66.0725C55.6784 66.0725 55.75 66.1022 55.8028 66.155C55.8556 66.2078 55.8853 66.2794 55.8853 66.3541C55.8853 66.6076 56.5217 92.1439 54.6631 112.944C54.6532 113.015 54.6162 113.081 54.5595 113.126C54.5029 113.171 54.4311 113.192 54.359 113.186Z" fill="#7126B5"/>
<path d="M58.4878 63.7857C58.4878 63.7857 58.775 72.4536 51.2842 76.9256C52.0783 63.3632 52.6078 51.6145 52.8499 45.9485C55.7505 47.1932 59.5522 51.1357 58.4878 63.7857Z" fill="#7126B5"/>
<path d="M72.6639 28.9843C61.4445 30.2065 57.0796 43.1606 57.0796 43.1606C57.0796 43.1606 69.0649 49.6432 77.716 67.9422C77.716 67.9422 84.2099 45.8809 90.4053 34.7123C87.9119 33.981 85.4666 33.0951 83.0834 32.0595C79.4225 30.4374 76.3248 28.607 72.6639 28.9843Z" fill="#7126B5" fill-opacity="0.5"/>
<path d="M77.7159 68.2239C77.6625 68.2235 77.6103 68.208 77.5654 68.1791C77.5205 68.1501 77.4848 68.1091 77.4624 68.0606C68.9522 50.0376 57.0682 43.4705 56.95 43.4029C56.8911 43.3716 56.8452 43.3205 56.8204 43.2587C56.7957 43.1968 56.7937 43.1281 56.8148 43.0649C57.4086 41.4411 58.1634 39.8808 59.0677 38.4071C59.0869 38.3753 59.1122 38.3476 59.1421 38.3256C59.1721 38.3036 59.206 38.2876 59.2421 38.2787C59.2782 38.2699 59.3157 38.2682 59.3525 38.2738C59.3892 38.2794 59.4245 38.2921 59.4563 38.3114C59.4881 38.3306 59.5158 38.3559 59.5378 38.3858C59.5598 38.4158 59.5757 38.4498 59.5846 38.4858C59.5935 38.5219 59.5952 38.5594 59.5896 38.5962C59.584 38.6329 59.5713 38.6682 59.552 38.7C58.7147 40.0773 58.0022 41.5268 57.4231 43.0311C59.0508 43.9942 69.7181 50.7867 77.6539 67.1595C78.7353 63.5887 83.8155 47.1652 88.9183 36.8864C88.9549 36.8255 89.0133 36.7807 89.0816 36.761C89.1499 36.7413 89.2232 36.7482 89.2867 36.7803C89.3501 36.8124 89.3991 36.8673 89.4237 36.934C89.4484 37.0007 89.4469 37.0742 89.4196 37.1399C83.7254 48.6239 78.0425 67.8297 78.0144 68.0325C77.9985 68.0874 77.9663 68.1363 77.9221 68.1725C77.8778 68.2087 77.8236 68.2306 77.7665 68.2352L77.7159 68.2239Z" fill="#7126B5"/>
<path d="M77.5469 63.904C77.5469 63.904 68.5354 49.784 67.026 44.1913C66.9866 44.0392 66.9471 43.8984 66.919 43.7632C65.7925 38.5028 66.581 31.9356 72.6187 31.4625C75.4799 31.2316 80.6897 33.3887 81.4895 40.474C81.5372 40.8854 81.5635 41.299 81.5683 41.7131C81.7823 49.2997 77.5469 63.904 77.5469 63.904Z" fill="#D0D0D0"/>
<path d="M81.5683 41.7187C79.2312 40.5332 76.6474 39.9157 74.0268 39.9164C70.0843 41.1104 67.9497 43.1211 67.026 44.1969C66.9866 44.0448 66.9471 43.904 66.919 43.7688C65.7925 38.5084 66.581 31.9412 72.6187 31.4681C75.4799 31.2372 80.6897 33.3943 81.4895 40.4796C81.5372 40.891 81.5635 41.3046 81.5683 41.7187Z" fill="white"/>
<path d="M77.3105 61.2345C77.2527 61.2337 77.1971 61.2123 77.1537 61.174C77.1103 61.1358 77.082 61.0833 77.0739 61.0261L74.4888 41.6401C74.4818 41.6073 74.4816 41.5735 74.4883 41.5407C74.4951 41.5079 74.5085 41.4769 74.5278 41.4495C74.5472 41.4222 74.572 41.3991 74.6007 41.3819C74.6293 41.3646 74.6613 41.3535 74.6945 41.3492C74.7277 41.3449 74.7614 41.3475 74.7936 41.3569C74.8257 41.3663 74.8555 41.3823 74.8812 41.4038C74.9069 41.4253 74.9278 41.4519 74.9426 41.4819C74.9575 41.5119 74.966 41.5447 74.9675 41.5781L77.5527 60.9641C77.5607 61.0276 77.5432 61.0916 77.5042 61.1423C77.4652 61.1929 77.4077 61.2261 77.3443 61.2345H77.3105Z" fill="#FFD200"/>
<path d="M81.5935 49L75 51.423C75 51.423 80.7282 87.1253 84 95C88.5 101.5 96 101 96 101H111.5L124.5 100.5L130.5 98L133.5 95.5L135 93.5001L81.5935 49Z" fill="#FFD200"/>
<path d="M81.2031 49.2553C81.2031 49.2553 84.2973 86.5539 87.7352 93.1691C91.1731 99.7843 115 97.5 115 97.5C115 97.5 134.663 98.0953 135.866 90.9171C137.069 83.7389 134.663 47.1441 134.663 47.1441C134.663 47.1441 105.784 43.4846 81.2031 49.2553Z" fill="#D0D0D0"/>
<path d="M117.722 78.897C117.713 79.6787 117.465 80.4391 117.012 81.0763C116.559 81.7135 115.923 82.197 115.187 82.4622V91.9243H112.934V82.5354C112.237 82.3228 111.627 81.8903 111.196 81.3026C110.764 80.7149 110.534 80.0034 110.541 79.2744C110.524 78.3197 110.875 77.3951 111.52 76.6918C112.166 75.9884 113.057 75.56 114.01 75.4952C114.48 75.463 114.951 75.5267 115.396 75.6823C115.84 75.8379 116.248 76.0822 116.595 76.4003C116.942 76.7184 117.221 77.1038 117.415 77.533C117.608 77.9622 117.713 78.4262 117.722 78.897Z" fill="#D0D0D0"/>
<path d="M126.71 30.0152L120.52 34.5998L114.331 30.0152V20.8629L120.52 16.2783L126.71 20.8629V30.0152Z" fill="#7126B5" fill-opacity="0.5"/>
<path d="M150.298 68.6351L145.984 71.8229L141.664 68.6351V62.2481L145.984 59.0547L150.298 62.2481V68.6351Z" fill="#7126B5"/>
<path d="M155.885 59.3363L153.091 61.4033L150.298 59.3363V55.2079L153.091 53.1409L155.885 55.2079V59.3363Z" fill="#7126B5" fill-opacity="0.5"/>
<path d="M138.882 116.024L134.657 119.145L130.439 116.024V109.778L134.657 106.658L138.882 109.778V116.024Z" fill="#7126B5" fill-opacity="0.5"/>
<path d="M52.247 113.231C48.4039 113.231 44.6471 114.37 41.4517 116.505C38.2563 118.641 35.7657 121.675 34.295 125.226C32.8243 128.776 32.4395 132.683 33.1893 136.453C33.939 140.222 35.7897 143.684 38.5072 146.402C41.2246 149.119 44.6869 150.97 48.4562 151.719C52.2254 152.469 56.1324 152.084 59.6829 150.614C63.2335 149.143 66.2682 146.653 68.4033 143.457C70.5385 140.262 71.6781 136.505 71.6781 132.662C71.6781 127.508 69.6309 122.566 65.9868 118.922C62.3428 115.278 57.4004 113.231 52.247 113.231ZM52.247 146.883C49.4343 146.883 46.6848 146.049 44.3461 144.486C42.0074 142.924 40.1846 140.703 39.1082 138.104C38.0319 135.505 37.7502 132.646 38.299 129.887C38.8477 127.129 40.2021 124.595 42.191 122.606C44.1799 120.617 46.7139 119.262 49.4726 118.714C52.2312 118.165 55.0906 118.447 57.6893 119.523C60.2879 120.599 62.5089 122.422 64.0716 124.761C65.6342 127.1 66.4683 129.849 66.4683 132.662C66.469 134.53 66.1017 136.379 65.3873 138.105C64.6728 139.831 63.6253 141.399 62.3046 142.719C60.9839 144.04 59.4159 145.088 57.6901 145.802C55.9644 146.516 54.1148 146.884 52.247 146.883Z" fill="#7126B5"/>
<path d="M54.9505 150.826H49.5492C48.9924 150.826 48.541 151.277 48.541 151.834V240.896C48.541 241.453 48.9924 241.904 49.5492 241.904H54.9505C55.5072 241.904 55.9586 241.453 55.9586 240.896V151.834C55.9586 151.277 55.5072 150.826 54.9505 150.826Z" fill="#7126B5" fill-opacity="0.5"/>
<path d="M44.0127 218.598H48.541V237.961H44.0127V218.598Z" fill="#7126B5"/>
<path d="M44.0127 218.249V238.316C44.0149 238.586 43.9637 238.854 43.862 239.104C43.7602 239.354 43.61 239.581 43.4199 239.773C43.2298 239.964 43.0037 240.117 42.7545 240.22C42.5054 240.324 42.2381 240.378 41.9682 240.378H33.8015C33.2608 240.378 32.7422 240.163 32.3599 239.78C31.9775 239.398 31.7627 238.88 31.7627 238.339V235.235H37.9919C38.2996 235.235 38.5947 235.113 38.8123 234.896C39.0299 234.678 39.1521 234.383 39.1521 234.075V231.822C39.1521 231.515 39.0299 231.22 38.8123 231.002C38.5947 230.784 38.2996 230.662 37.9919 230.662H31.7627V225.942H37.9919C38.2996 225.942 38.5947 225.82 38.8123 225.602C39.0299 225.385 39.1521 225.09 39.1521 224.782V222.529C39.1521 222.221 39.0299 221.926 38.8123 221.709C38.5947 221.491 38.2996 221.369 37.9919 221.369H31.7627V218.271C31.7627 217.731 31.9775 217.212 32.3599 216.83C32.7422 216.447 33.2608 216.232 33.8015 216.232H41.9682C42.5056 216.232 43.0214 216.444 43.404 216.821C43.7867 217.199 44.0053 217.711 44.0127 218.249Z" fill="#7126B5" fill-opacity="0.5"/>
<path d="M56.7531 144.022H47.7416C47.1848 144.022 46.7334 144.473 46.7334 145.03V152.07C46.7334 152.627 47.1848 153.079 47.7416 153.079H56.7531C57.3099 153.079 57.7612 152.627 57.7612 152.07V145.03C57.7612 144.473 57.3099 144.022 56.7531 144.022Z" fill="#7126B5"/>
<path d="M52.9963 42.406C52.9963 42.406 35.0184 58.9252 29.4819 74.6954C29.4819 74.6954 31.5489 90.5613 37.1811 101.167L46.6601 97.8831L44.3115 77.4214L58.2962 65.0305C58.2962 65.0305 61.5854 46.816 52.9963 42.406Z" fill="#7126B5" fill-opacity="0.5"/>
<path d="M58.3018 65.312H58.2511C58.178 65.2983 58.1134 65.2563 58.0711 65.1951C58.0289 65.1339 58.0126 65.0585 58.0258 64.9854C58.054 64.8277 60.8081 49.0744 54.2917 43.583C54.2632 43.5594 54.2397 43.5303 54.2224 43.4976C54.2052 43.4648 54.1945 43.4289 54.1911 43.3921C54.1877 43.3552 54.1916 43.318 54.2026 43.2827C54.2136 43.2473 54.2314 43.2144 54.2551 43.186C54.2787 43.1575 54.3078 43.1339 54.3405 43.1167C54.3733 43.0994 54.4091 43.0888 54.446 43.0854C54.4829 43.082 54.5201 43.0859 54.5554 43.0969C54.5908 43.1079 54.6237 43.1257 54.6521 43.1494C61.4108 48.8266 58.6961 64.394 58.5947 65.0586C58.5875 65.1303 58.5532 65.1965 58.4987 65.2437C58.4442 65.2908 58.3738 65.3153 58.3018 65.312Z" fill="#7126B5"/>
<path d="M43.4499 77.3255C43.4104 77.325 43.3714 77.3163 43.3355 77.2998C43.2996 77.2833 43.2676 77.2594 43.2415 77.2297C40.3353 73.9856 34.6468 74.1545 34.5905 74.1545C34.5533 74.1568 34.5161 74.1516 34.481 74.1391C34.4459 74.1266 34.4137 74.1071 34.3863 74.0819C34.359 74.0566 34.337 74.0261 34.3218 73.9921C34.3065 73.9581 34.2983 73.9214 34.2976 73.8842C34.2961 73.8472 34.3019 73.8103 34.3147 73.7756C34.3274 73.7408 34.3469 73.7089 34.372 73.6817C34.3971 73.6545 34.4274 73.6325 34.461 73.617C34.4946 73.6015 34.5309 73.5928 34.5679 73.5913C34.8101 73.5913 40.5775 73.4167 43.6583 76.8524C43.6957 76.8927 43.7204 76.943 43.7295 76.9972C43.7387 77.0514 43.7317 77.1071 43.7095 77.1574C43.6874 77.2077 43.651 77.2504 43.6049 77.2803C43.5587 77.3101 43.5049 77.3259 43.4499 77.3255Z" fill="#7126B5"/>
<path d="M34.8604 99.8543C34.8604 99.8543 40.7741 94.5037 48.31 95.0669L49.4365 100.913C49.4365 100.913 46.6936 106.123 38.3129 106.619C36.936 104.487 35.7792 102.22 34.8604 99.8543Z" fill="#7126B5"/>
<path d="M56.5163 120.13C56.1896 120.789 55.0632 121.116 54.7365 119.612C54.7365 119.612 54.545 120.738 53.6551 120.834C52.7652 120.93 52.5287 119.612 52.5287 119.612C52.5287 119.612 51.8697 120.93 51.0249 120.789C50.18 120.648 50.2307 119.19 50.2307 119.19C50.2307 119.19 49.2451 120.271 48.5411 119.663C47.8371 119.054 48.2088 117.032 48.3045 115.343C48.3045 115.343 43.2356 110.882 42.9539 109.525C42.7843 108.579 42.737 107.616 42.8131 106.658L41.0615 103.639C42.805 102.441 44.7819 101.626 46.8627 101.245L48.8677 105.301C48.8677 105.301 55.3898 110.651 56.1896 111.541C56.9894 112.431 56.8486 119.471 56.5163 120.13Z" fill="#FFD200"/>
<path d="M50.4671 118.39H50.4164C50.3426 118.381 50.2751 118.344 50.2287 118.286C50.1823 118.228 50.1607 118.154 50.1686 118.08C50.1686 118.08 50.4502 115.557 50.5178 114.07C50.5177 114.032 50.5253 113.995 50.5403 113.961C50.5553 113.927 50.5772 113.896 50.6048 113.87C50.6323 113.845 50.6648 113.825 50.7003 113.813C50.7357 113.801 50.7733 113.796 50.8107 113.8C50.8477 113.801 50.884 113.81 50.9176 113.825C50.9512 113.841 50.9815 113.863 51.0066 113.89C51.0317 113.917 51.0512 113.949 51.0639 113.984C51.0767 114.018 51.0825 114.055 51.081 114.092C51.0134 115.596 50.7318 118.114 50.7262 118.142C50.7185 118.207 50.6885 118.267 50.6412 118.312C50.5939 118.358 50.5323 118.385 50.4671 118.39Z" fill="#7126B5"/>
<path d="M52.6694 118.632H52.6357C52.5618 118.624 52.4944 118.586 52.4479 118.528C52.4015 118.47 52.3799 118.396 52.3878 118.322C52.3878 118.322 52.7032 115.574 52.7032 114.216C52.7032 114.142 52.7329 114.07 52.7857 114.017C52.8385 113.964 52.9102 113.935 52.9848 113.935C53.0595 113.935 53.1312 113.964 53.184 114.017C53.2368 114.07 53.2665 114.142 53.2665 114.216C53.2665 115.608 52.9623 118.272 52.9454 118.384C52.9372 118.452 52.9048 118.514 52.854 118.56C52.8032 118.606 52.7377 118.631 52.6694 118.632Z" fill="#7126B5"/>
<path d="M54.7649 118.232C54.7279 118.229 54.6918 118.219 54.6587 118.202C54.6256 118.185 54.5962 118.162 54.5721 118.134C54.548 118.106 54.5298 118.073 54.5184 118.038C54.507 118.002 54.5028 117.965 54.5059 117.928C54.5059 117.928 54.6974 115.675 54.6974 114.397C54.6974 114.322 54.727 114.25 54.7798 114.197C54.8326 114.145 54.9043 114.115 54.979 114.115C55.0537 114.115 55.1253 114.145 55.1781 114.197C55.2309 114.25 55.2606 114.322 55.2606 114.397C55.2606 115.681 55.0747 117.883 55.0634 117.973C55.0577 118.047 55.0231 118.115 54.9673 118.164C54.9114 118.212 54.8387 118.237 54.7649 118.232Z" fill="#7126B5"/>
<path d="M38.9663 105.768C38.9136 105.768 38.8619 105.753 38.8173 105.725C38.7726 105.697 38.7368 105.656 38.7139 105.609C38.691 105.561 38.6819 105.508 38.6877 105.456C38.6935 105.403 38.714 105.353 38.7467 105.312C39.3772 104.584 40.1027 103.943 40.9038 103.408C42.6782 102.186 44.6921 101.355 46.812 100.97C47.3076 100.874 47.8314 100.795 48.3777 100.744C48.4524 100.738 48.5267 100.761 48.5843 100.809C48.6419 100.857 48.678 100.926 48.6847 101.001C48.6914 101.075 48.6682 101.15 48.6201 101.207C48.5721 101.265 48.5031 101.301 48.4284 101.308C47.9046 101.358 47.3977 101.431 46.919 101.522C44.8759 101.892 42.9349 102.692 41.2249 103.87C40.4719 104.376 39.7884 104.978 39.1916 105.661C39.1648 105.695 39.1306 105.722 39.0915 105.741C39.0524 105.76 39.0096 105.769 38.9663 105.768Z" fill="#7126B5" fill-opacity="0.5"/>
<path d="M75.8575 36.2106C75.7996 36.6787 75.6445 37.1295 75.402 37.534C75.1595 37.9384 74.835 38.2877 74.4494 38.5593C70.4111 38.4185 70.4111 35.6474 70.4111 35.6474L70.597 27.813L70.6533 25.3236L70.6927 23.5833L75.5759 25.6503L75.6716 29.2605L75.7223 31.1586L75.8575 36.2106Z" fill="#FFD200"/>
<path d="M75.722 31.1586C73.0016 30.6291 71.4584 29.283 70.5967 27.813L70.653 25.3236L70.6924 23.5833L75.5755 25.6503L75.6713 29.2605L75.722 31.1586Z" fill="#7126B5"/>
<path d="M79.4448 20.5192C79.5456 20.2023 79.7124 19.9104 79.9342 19.6626C80.1559 19.4148 80.4277 19.2168 80.7315 19.0816C81.0353 18.9465 81.3644 18.8772 81.6969 18.8784C82.0294 18.8796 82.358 18.9513 82.6608 19.0886C85.1277 19.9785 83.0832 25.1207 79.6363 24.2027L79.4448 20.5192Z" fill="#FFD200"/>
<path d="M79.9629 22.9129H79.8728C79.8018 22.8897 79.743 22.8393 79.7092 22.7728C79.6754 22.7062 79.6694 22.629 79.6925 22.5581C79.7207 22.4679 80.4529 20.3052 82.396 20.1137C82.4707 20.107 82.545 20.1302 82.6025 20.1783C82.6601 20.2263 82.6962 20.2953 82.703 20.37C82.7097 20.4446 82.6865 20.5189 82.6384 20.5765C82.5903 20.6341 82.5214 20.6702 82.4467 20.6769C80.864 20.8233 80.2332 22.7158 80.222 22.7383C80.2008 22.7897 80.165 22.8337 80.1189 22.8648C80.0728 22.8959 80.0185 22.9126 79.9629 22.9129Z" fill="#7126B5"/>
<path d="M81.3936 22.5806C81.3189 22.5806 81.2473 22.5509 81.1945 22.4981C81.1416 22.4453 81.112 22.3736 81.112 22.299C81.0925 21.8713 80.9932 21.451 80.8191 21.0599C80.8012 21.0259 80.7904 20.9885 80.7875 20.9502C80.7845 20.9119 80.7894 20.8733 80.8019 20.837C80.8144 20.8006 80.8342 20.7672 80.8601 20.7388C80.886 20.7104 80.9175 20.6876 80.9525 20.6718C80.9876 20.656 81.0255 20.6476 81.0639 20.647C81.1024 20.6464 81.1405 20.6537 81.1761 20.6684C81.2116 20.6832 81.2437 20.705 81.2704 20.7326C81.2972 20.7602 81.318 20.793 81.3316 20.8289C81.5398 21.2922 81.6564 21.7914 81.6752 22.299C81.6752 22.3736 81.6455 22.4453 81.5927 22.4981C81.5399 22.5509 81.4683 22.5806 81.3936 22.5806Z" fill="#7126B5"/>
<path d="M81.298 11.9302C81.298 11.9302 83.4551 14.5097 83.4551 15.777C83.4551 17.0442 79.6534 21.3641 79.6534 21.3641L78.5776 12.7299L81.298 11.9302Z" fill="#7126B5"/>
<path d="M66.9358 16.5767C66.581 22.1075 70.9347 28.7761 75.5981 28.9225C80.2616 29.0689 81.8611 17.3314 80.2165 13.1524C78.5719 8.97327 67.5497 7.05269 66.9358 16.5767Z" fill="#FFD200"/>
<path d="M69.6617 22.9129L69.0028 20.722C69.0028 20.722 71.1599 19.4998 71.4415 15.2306C71.4415 15.2306 77.5412 17.4384 82.3285 13.1185C87.1159 8.79864 85.1897 0.682654 83.9731 0.0687451C82.7566 -0.545164 75.7051 3.05381 72.9453 6.82738C72.9453 6.82738 73.7451 3.58887 71.4922 4.29289C69.2393 4.99692 66.1867 11.84 66.1867 11.84C66.1867 11.84 63.134 10.6178 61.8668 13.0115C60.5995 15.4052 68.31 22.9129 68.31 22.9129H69.6561H69.6617Z" fill="#7126B5"/>
<path d="M68.5467 22.1413C68.5467 22.1413 67.2738 18.5762 64.6042 18.8634C61.9345 19.1506 61.7036 27.3117 69.4817 24.1858L68.5467 22.1413Z" fill="#FFD200"/>
<path d="M68.3155 23.4255C68.2669 23.4258 68.2191 23.4135 68.1766 23.3898C68.1342 23.3661 68.0986 23.3318 68.0733 23.2903C66.4513 20.6601 64.4462 21.2909 64.4237 21.2965C64.3885 21.3084 64.3514 21.3132 64.3144 21.3107C64.2775 21.3081 64.2413 21.2984 64.2081 21.2819C64.1749 21.2654 64.1453 21.2426 64.1209 21.2146C64.0965 21.1867 64.0779 21.1543 64.066 21.1191C64.0542 21.084 64.0494 21.0469 64.0519 21.0099C64.0544 20.9729 64.0642 20.9368 64.0807 20.9036C64.0971 20.8703 64.12 20.8407 64.1479 20.8163C64.1759 20.7919 64.2083 20.7733 64.2435 20.7615C64.2435 20.7615 66.6935 19.9842 68.5521 23.0144C68.5739 23.0563 68.5848 23.103 68.5837 23.1502C68.5827 23.1975 68.5699 23.2437 68.5463 23.2846C68.5227 23.3256 68.4892 23.36 68.4489 23.3846C68.4086 23.4092 68.3627 23.4233 68.3155 23.4255Z" fill="#7126B5"/>
<path d="M65.9561 23.6338C65.8895 23.6334 65.8253 23.6093 65.7748 23.566C65.7243 23.5227 65.6907 23.463 65.6801 23.3973C65.5833 22.6129 65.7205 21.8173 66.0743 21.1106C66.0892 21.0749 66.1113 21.0426 66.1393 21.0157C66.1672 20.9889 66.2004 20.9681 66.2367 20.9547C66.273 20.9413 66.3117 20.9355 66.3504 20.9377C66.389 20.9399 66.4268 20.9501 66.4614 20.9676C66.4959 20.985 66.5265 21.0094 66.5512 21.0393C66.5759 21.0691 66.5942 21.1037 66.6049 21.1409C66.6156 21.1781 66.6186 21.2171 66.6135 21.2555C66.6085 21.2939 66.5956 21.3309 66.5756 21.3641C66.2762 21.9631 66.1569 22.6361 66.232 23.3015C66.2385 23.3382 66.2376 23.3757 66.2295 23.412C66.2214 23.4483 66.2061 23.4826 66.1847 23.513C66.1632 23.5434 66.1359 23.5692 66.1044 23.589C66.0729 23.6087 66.0378 23.6221 66.0011 23.6282H65.9504L65.9561 23.6338Z" fill="#7126B5"/>
<path d="M72.4385 18.8858C72.4385 18.8858 74.038 17.8664 74.804 19.0886C74.8601 19.0064 74.9434 18.9466 75.0392 18.9198C75.135 18.893 75.2372 18.9009 75.3278 18.9421C75.6207 19.1111 75.1025 20.0291 75.1025 20.0291C74.2996 19.4743 73.3938 19.0855 72.4385 18.8858Z" fill="#7126B5"/>
<path d="M79.4058 19.3985C79.4058 19.3985 78.1836 18.1707 77.7499 19.1901C77.6983 19.1338 77.6314 19.0937 77.5574 19.0747C77.4834 19.0557 77.4055 19.0586 77.3331 19.0831C77.0121 19.2859 77.6091 20.08 77.6091 20.08C78.1196 19.6664 78.7494 19.4275 79.4058 19.3985Z" fill="#7126B5"/>
<path d="M74.0974 22.106C74.4893 22.1027 74.8037 21.7067 74.7997 21.2214C74.7956 20.7362 74.4746 20.3455 74.0827 20.3488C73.6908 20.3521 73.3763 20.7481 73.3804 21.2333C73.3845 21.7186 73.7055 22.1093 74.0974 22.106Z" fill="#7126B5"/>
<path d="M74.2411 21.1023C74.3468 21.1014 74.4318 21.015 74.431 20.9092C74.4301 20.8035 74.3436 20.7185 74.2379 20.7193C74.1321 20.7202 74.0471 20.8067 74.048 20.9124C74.0489 21.0182 74.1353 21.1032 74.2411 21.1023Z" fill="white"/>
<path d="M78.2932 22.0654C78.6851 22.0622 78.9995 21.6661 78.9955 21.1809C78.9914 20.6957 78.6704 20.305 78.2785 20.3083C77.8866 20.3115 77.5721 20.7076 77.5762 21.1928C77.5803 21.678 77.9013 22.0687 78.2932 22.0654Z" fill="#7126B5"/>
<path d="M78.4369 21.0672C78.5426 21.0663 78.6276 20.9798 78.6268 20.8741C78.6259 20.7683 78.5394 20.6833 78.4337 20.6842C78.3279 20.6851 78.2429 20.7715 78.2438 20.8773C78.2447 20.983 78.3311 21.068 78.4369 21.0672Z" fill="white"/>
<path d="M76.5333 24.2254C76.395 24.2262 76.257 24.2111 76.1221 24.1803C76.0475 24.1631 75.9826 24.117 75.942 24.052C75.9013 23.9871 75.8881 23.9086 75.9053 23.8339C75.9225 23.7593 75.9686 23.6945 76.0336 23.6538C76.0985 23.6131 76.177 23.5999 76.2517 23.6171C76.2517 23.6171 76.9782 23.7804 77.1528 23.3299C77.1642 23.3102 77.1702 23.2878 77.1702 23.2651C77.1702 23.2424 77.1642 23.22 77.1528 23.2003C76.9443 23.0589 76.6945 22.9915 76.4432 23.0088C76.3695 23.0088 76.2987 22.9799 76.246 22.9283C76.1934 22.8767 76.163 22.8066 76.1616 22.7328V21.0094C76.1608 20.9724 76.1674 20.9356 76.1808 20.9012C76.1943 20.8667 76.2144 20.8353 76.2401 20.8086C76.2657 20.7819 76.2963 20.7606 76.3302 20.7457C76.3641 20.7309 76.4006 20.7229 76.4375 20.7222C76.4747 20.7206 76.5118 20.7266 76.5466 20.7398C76.5814 20.753 76.6132 20.7731 76.64 20.7989C76.6668 20.8247 76.6882 20.8556 76.7028 20.8898C76.7173 20.9241 76.7248 20.9609 76.7248 20.9981V22.4625C76.8947 22.4695 77.0615 22.5105 77.2153 22.5831C77.3691 22.6556 77.5068 22.7583 77.6203 22.8849C77.6839 22.9792 77.7224 23.0882 77.7323 23.2015C77.7421 23.3148 77.723 23.4287 77.6766 23.5326C77.585 23.755 77.4246 23.9423 77.2188 24.0669C77.0131 24.1916 76.7729 24.2471 76.5333 24.2254Z" fill="#7126B5"/>
<path d="M73.3004 25.4409C73.3459 25.4238 73.395 25.4187 73.443 25.4263C73.491 25.4338 73.5363 25.4536 73.5744 25.4838C74.7831 26.4484 76.5185 25.3274 76.5166 25.3221C76.5807 25.2801 76.6589 25.2653 76.7339 25.281C76.8089 25.2966 76.8746 25.3414 76.9166 25.4056C76.9586 25.4697 76.9734 25.5478 76.9578 25.6229C76.9421 25.6979 76.8973 25.7636 76.8332 25.8056C76.7434 25.8388 74.751 27.1747 73.2148 25.9408C73.1716 25.91 73.1381 25.8677 73.1179 25.8188C73.0977 25.7698 73.0918 25.7161 73.1007 25.6639C73.1096 25.6117 73.1331 25.5631 73.1684 25.5237C73.2038 25.4842 73.2495 25.4555 73.3004 25.4409Z" fill="#7126B5"/>
<path d="M124.198 131.186C123.787 131.186 123.386 131.064 123.044 130.836C122.702 130.607 122.436 130.283 122.278 129.903C122.121 129.523 122.08 129.106 122.16 128.702C122.24 128.299 122.438 127.929 122.729 127.638C123.019 127.348 123.39 127.15 123.793 127.069C124.196 126.989 124.614 127.03 124.994 127.188C125.373 127.345 125.698 127.611 125.926 127.953C126.155 128.295 126.277 128.697 126.277 129.108C126.277 129.659 126.058 130.188 125.668 130.577C125.278 130.967 124.75 131.186 124.198 131.186ZM124.198 127.598C123.899 127.598 123.606 127.687 123.357 127.854C123.108 128.02 122.913 128.257 122.799 128.534C122.684 128.811 122.654 129.115 122.712 129.409C122.771 129.703 122.915 129.973 123.127 130.185C123.339 130.397 123.609 130.541 123.903 130.599C124.197 130.658 124.501 130.628 124.778 130.513C125.055 130.399 125.292 130.204 125.458 129.955C125.625 129.706 125.713 129.413 125.713 129.113C125.714 128.914 125.676 128.716 125.6 128.532C125.524 128.347 125.412 128.18 125.272 128.039C125.131 127.897 124.964 127.785 124.779 127.709C124.595 127.632 124.398 127.593 124.198 127.593V127.598Z" fill="#7126B5" fill-opacity="0.5"/>
<path d="M103.843 40.6317C103.432 40.6317 103.031 40.5098 102.689 40.2814C102.347 40.053 102.081 39.7285 101.923 39.3487C101.766 38.9689 101.725 38.5511 101.805 38.1479C101.885 37.7448 102.083 37.3745 102.374 37.0838C102.664 36.7932 103.035 36.5952 103.438 36.515C103.841 36.4348 104.259 36.476 104.639 36.6333C105.018 36.7906 105.343 37.057 105.571 37.3987C105.8 37.7405 105.922 38.1423 105.922 38.5534C105.922 39.1046 105.703 39.6332 105.313 40.0229C104.923 40.4127 104.395 40.6317 103.843 40.6317ZM103.843 37.044C103.544 37.044 103.251 37.1328 103.002 37.2993C102.753 37.4658 102.558 37.7024 102.444 37.9792C102.329 38.2561 102.299 38.5607 102.357 38.8546C102.416 39.1485 102.56 39.4184 102.772 39.6303C102.984 39.8422 103.254 39.9865 103.548 40.045C103.842 40.1034 104.146 40.0734 104.423 39.9587C104.7 39.8441 104.937 39.6499 105.103 39.4007C105.27 39.1516 105.358 38.8587 105.358 38.559C105.355 38.1591 105.195 37.7767 104.911 37.495C104.627 37.2133 104.243 37.0552 103.843 37.0552V37.044Z" fill="#7126B5" fill-opacity="0.5"/>
<path d="M55.6881 23.0255C55.2771 23.0255 54.8753 22.9036 54.5335 22.6752C54.1917 22.4468 53.9254 22.1223 53.7681 21.7425C53.6108 21.3627 53.5696 20.9449 53.6498 20.5417C53.73 20.1386 53.9279 19.7683 54.2186 19.4776C54.5092 19.187 54.8795 18.989 55.2827 18.9088C55.6858 18.8286 56.1037 18.8698 56.4835 19.0271C56.8632 19.1844 57.1878 19.4508 57.4162 19.7925C57.6445 20.1343 57.7664 20.5361 57.7664 20.9472C57.7664 21.4984 57.5475 22.027 57.1577 22.4167C56.768 22.8065 56.2393 23.0255 55.6881 23.0255ZM55.6881 19.4378C55.3885 19.4378 55.0956 19.5266 54.8464 19.6931C54.5973 19.8596 54.4031 20.0962 54.2884 20.373C54.1737 20.6499 54.1437 20.9545 54.2022 21.2484C54.2607 21.5423 54.405 21.8122 54.6168 22.0241C54.8287 22.236 55.0987 22.3803 55.3926 22.4388C55.6865 22.4972 55.9911 22.4672 56.2679 22.3525C56.5448 22.2379 56.7814 22.0437 56.9479 21.7945C57.1143 21.5454 57.2032 21.2525 57.2032 20.9528C57.2032 20.551 57.0436 20.1656 56.7595 19.8815C56.4753 19.5974 56.09 19.4378 55.6881 19.4378Z" fill="#7126B5" fill-opacity="0.5"/>
<path d="M48.8507 36.6724C48.5544 36.6724 48.2647 36.5845 48.0184 36.4199C47.772 36.2552 47.58 36.0213 47.4666 35.7475C47.3532 35.4738 47.3235 35.1725 47.3813 34.8819C47.4391 34.5913 47.5818 34.3244 47.7913 34.1148C48.0009 33.9053 48.2678 33.7626 48.5584 33.7048C48.849 33.647 49.1503 33.6767 49.424 33.7901C49.6978 33.9035 49.9318 34.0955 50.0964 34.3419C50.261 34.5882 50.3489 34.8779 50.3489 35.1742C50.3489 35.5715 50.191 35.9526 49.9101 36.2335C49.6291 36.5145 49.248 36.6724 48.8507 36.6724ZM48.8507 34.2392C48.6658 34.2392 48.485 34.2941 48.3313 34.3968C48.1775 34.4995 48.0577 34.6456 47.9869 34.8164C47.9162 34.9872 47.8977 35.1752 47.9337 35.3566C47.9698 35.5379 48.0588 35.7045 48.1896 35.8353C48.3204 35.966 48.4869 36.0551 48.6683 36.0912C48.8497 36.1272 49.0377 36.1087 49.2085 36.038C49.3793 35.9672 49.5253 35.8474 49.6281 35.6936C49.7308 35.5399 49.7856 35.3591 49.7856 35.1742C49.7856 34.9262 49.6871 34.6884 49.5118 34.5131C49.3365 34.3378 49.0987 34.2392 48.8507 34.2392Z" fill="#7126B5" fill-opacity="0.5"/>
<path d="M137.997 27.1653C137.922 27.1653 137.851 27.1356 137.798 27.0828C137.745 27.03 137.715 26.9584 137.715 26.8837V23.9606C137.715 23.8859 137.745 23.8142 137.798 23.7614C137.851 23.7086 137.922 23.679 137.997 23.679C138.072 23.679 138.143 23.7086 138.196 23.7614C138.249 23.8142 138.279 23.8859 138.279 23.9606V26.8837C138.279 26.9584 138.249 27.03 138.196 27.0828C138.143 27.1356 138.072 27.1653 137.997 27.1653Z" fill="#7126B5" fill-opacity="0.5"/>
<path d="M141.044 28.3087H138.842C138.767 28.3087 138.696 28.279 138.643 28.2262C138.59 28.1734 138.561 28.1018 138.561 28.0271C138.561 27.9524 138.59 27.8808 138.643 27.828C138.696 27.7752 138.767 27.7455 138.842 27.7455H141.027C141.064 27.7444 141.101 27.7506 141.136 27.7637C141.17 27.7768 141.202 27.7966 141.229 27.822C141.256 27.8474 141.278 27.8778 141.293 27.9115C141.308 27.9453 141.316 27.9817 141.318 28.0186C141.319 28.0556 141.312 28.0925 141.299 28.1271C141.286 28.1617 141.266 28.1933 141.241 28.2203C141.216 28.2472 141.185 28.2689 141.151 28.284C141.118 28.2992 141.081 28.3076 141.044 28.3087Z" fill="#7126B5" fill-opacity="0.5"/>
<path d="M137.997 32.375C137.922 32.375 137.851 32.3453 137.798 32.2925C137.745 32.2397 137.715 32.1681 137.715 32.0934V29.1703C137.715 29.0956 137.745 29.024 137.798 28.9712C137.851 28.9183 137.922 28.8887 137.997 28.8887C138.072 28.8887 138.143 28.9183 138.196 28.9712C138.249 29.024 138.279 29.0956 138.279 29.1703V32.0934C138.279 32.1681 138.249 32.2397 138.196 32.2925C138.143 32.3453 138.072 32.375 137.997 32.375Z" fill="#7126B5" fill-opacity="0.5"/>
<path d="M137.152 28.3086H134.967C134.892 28.3086 134.821 28.2789 134.768 28.2261C134.715 28.1733 134.686 28.1017 134.686 28.027C134.686 27.9523 134.715 27.8807 134.768 27.8278C134.821 27.775 134.892 27.7454 134.967 27.7454H137.152C137.227 27.7454 137.299 27.775 137.352 27.8278C137.404 27.8807 137.434 27.9523 137.434 28.027C137.434 28.1017 137.404 28.1733 137.352 28.2261C137.299 28.2789 137.227 28.3086 137.152 28.3086Z" fill="#7126B5" fill-opacity="0.5"/>
<path d="M141.574 89.1418C141.499 89.1418 141.427 89.1122 141.374 89.0594C141.322 89.0066 141.292 88.9349 141.292 88.8602V85.9371C141.292 85.8624 141.322 85.7908 141.374 85.738C141.427 85.6852 141.499 85.6555 141.574 85.6555C141.648 85.6555 141.72 85.6852 141.773 85.738C141.826 85.7908 141.855 85.8624 141.855 85.9371V88.8715C141.852 88.9442 141.821 89.013 141.769 89.0634C141.716 89.1138 141.646 89.1419 141.574 89.1418Z" fill="#7126B5" fill-opacity="0.5"/>
<path d="M144.615 90.2851H142.43C142.355 90.2851 142.283 90.2555 142.23 90.2027C142.178 90.1499 142.148 90.0782 142.148 90.0035C142.148 89.9288 142.178 89.8572 142.23 89.8044C142.283 89.7516 142.355 89.7219 142.43 89.7219H144.615C144.69 89.7219 144.761 89.7516 144.814 89.8044C144.867 89.8572 144.896 89.9288 144.896 90.0035C144.896 90.0782 144.867 90.1499 144.814 90.2027C144.761 90.2555 144.69 90.2851 144.615 90.2851Z" fill="#7126B5" fill-opacity="0.5"/>
<path d="M141.574 94.3516C141.499 94.3516 141.427 94.322 141.374 94.2692C141.322 94.2163 141.292 94.1447 141.292 94.07V91.1244C141.292 91.0497 141.322 90.9781 141.374 90.9253C141.427 90.8724 141.499 90.8428 141.574 90.8428C141.648 90.8428 141.72 90.8724 141.773 90.9253C141.826 90.9781 141.855 91.0497 141.855 91.1244V94.0475C141.858 94.0863 141.853 94.1254 141.841 94.1622C141.828 94.199 141.808 94.2328 141.781 94.2613C141.755 94.2899 141.723 94.3127 141.687 94.3283C141.651 94.3438 141.613 94.3518 141.574 94.3516Z" fill="#7126B5" fill-opacity="0.5"/>
<path d="M140.717 90.2851H138.532C138.457 90.2851 138.386 90.2555 138.333 90.2027C138.28 90.1499 138.25 90.0782 138.25 90.0035C138.25 89.9288 138.28 89.8572 138.333 89.8044C138.386 89.7516 138.457 89.7219 138.532 89.7219H140.717C140.792 89.7219 140.864 89.7516 140.917 89.8044C140.969 89.8572 140.999 89.9288 140.999 90.0035C140.999 90.0782 140.969 90.1499 140.917 90.2027C140.864 90.2555 140.792 90.2851 140.717 90.2851Z" fill="#7126B5" fill-opacity="0.5"/>
<path d="M22.8187 103.357C22.744 103.357 22.6724 103.328 22.6196 103.275C22.5668 103.222 22.5371 103.151 22.5371 103.076V100.136C22.5371 100.061 22.5668 99.9895 22.6196 99.9367C22.6724 99.8839 22.744 99.8542 22.8187 99.8542C22.8934 99.8542 22.965 99.8839 23.0178 99.9367C23.0707 99.9895 23.1003 100.061 23.1003 100.136V103.059C23.1026 103.097 23.0971 103.136 23.0839 103.172C23.0708 103.208 23.0504 103.241 23.0241 103.269C22.9977 103.297 22.9659 103.319 22.9305 103.335C22.8952 103.35 22.8572 103.358 22.8187 103.357Z" fill="#7126B5" fill-opacity="0.5"/>
<path d="M25.8656 104.501H23.6747C23.6 104.501 23.5284 104.471 23.4755 104.418C23.4227 104.366 23.3931 104.294 23.3931 104.219C23.3931 104.145 23.4227 104.073 23.4755 104.02C23.5284 103.967 23.6 103.938 23.6747 103.938H25.8656C25.9403 103.938 26.0119 103.967 26.0647 104.02C26.1175 104.073 26.1472 104.145 26.1472 104.219C26.1472 104.294 26.1175 104.366 26.0647 104.418C26.0119 104.471 25.9403 104.501 25.8656 104.501Z" fill="#7126B5" fill-opacity="0.5"/>
<path d="M22.8187 108.584C22.744 108.584 22.6724 108.555 22.6196 108.502C22.5668 108.449 22.5371 108.377 22.5371 108.303V105.38C22.5371 105.305 22.5668 105.233 22.6196 105.18C22.6724 105.128 22.744 105.098 22.8187 105.098C22.8934 105.098 22.965 105.128 23.0178 105.18C23.0707 105.233 23.1003 105.305 23.1003 105.38V108.303C23.1003 108.377 23.0707 108.449 23.0178 108.502C22.965 108.555 22.8934 108.584 22.8187 108.584Z" fill="#7126B5" fill-opacity="0.5"/>
<path d="M21.9628 104.501H19.7718C19.6972 104.501 19.6255 104.471 19.5727 104.418C19.5199 104.366 19.4902 104.294 19.4902 104.219C19.4902 104.145 19.5199 104.073 19.5727 104.02C19.6255 103.967 19.6972 103.938 19.7718 103.938H21.9628C22.0375 103.938 22.1091 103.967 22.1619 104.02C22.2147 104.073 22.2444 104.145 22.2444 104.219C22.2444 104.294 22.2147 104.366 22.1619 104.418C22.1091 104.471 22.0375 104.501 21.9628 104.501Z" fill="#7126B5" fill-opacity="0.5"/>
<path d="M36.6178 13.1636C34.557 13.1636 32.5425 13.7747 30.829 14.9196C29.1155 16.0645 27.78 17.6918 26.9914 19.5957C26.2028 21.4997 25.9964 23.5947 26.3985 25.6159C26.8005 27.6371 27.7929 29.4937 29.2501 30.9509C30.7073 32.4081 32.5639 33.4004 34.585 33.8025C36.6062 34.2045 38.7013 33.9982 40.6052 33.2096C42.5091 32.4209 44.1364 31.0854 45.2814 29.3719C46.4263 27.6584 47.0374 25.6439 47.0374 23.5831C47.0374 20.8197 45.9396 18.1694 43.9856 16.2154C42.0315 14.2613 39.3812 13.1636 36.6178 13.1636ZM36.6178 28.1227C35.7186 28.1294 34.8376 27.8688 34.0866 27.3741C33.3357 26.8794 32.7486 26.1728 32.3998 25.3439C32.051 24.515 31.9563 23.6012 32.1276 22.7184C32.2989 21.8356 32.7286 21.0236 33.3621 20.3853C33.9956 19.7471 34.8044 19.3114 35.6859 19.1334C36.5674 18.9555 37.4819 19.0434 38.3133 19.386C39.1448 19.7286 39.8558 20.3104 40.3561 21.0576C40.8564 21.8049 41.1235 22.6839 41.1236 23.5831C41.1251 24.7817 40.6519 25.9321 39.8076 26.7828C38.9632 27.6335 37.8164 28.1152 36.6178 28.1227Z" fill="#7126B5" fill-opacity="0.5"/>
<path d="M28.265 23.8647C28.1903 23.8647 28.1187 23.8351 28.0659 23.7823C28.0131 23.7294 27.9834 23.6578 27.9834 23.5831C27.9864 21.2941 28.897 19.0997 30.5156 17.4812C32.1341 15.8626 34.3285 14.952 36.6176 14.949C36.6922 14.949 36.7639 14.9786 36.8167 15.0315C36.8695 15.0843 36.8992 15.1559 36.8992 15.2306C36.8992 15.3053 36.8695 15.3769 36.8167 15.4297C36.7639 15.4825 36.6922 15.5122 36.6176 15.5122C34.4779 15.5152 32.4268 16.3665 30.9138 17.8794C29.4009 19.3924 28.5496 21.4435 28.5466 23.5831C28.5466 23.6578 28.517 23.7294 28.4641 23.7823C28.4113 23.8351 28.3397 23.8647 28.265 23.8647Z" fill="white"/>
<path d="M36.6175 32.2229C36.5429 32.2229 36.4712 32.1932 36.4184 32.1404C36.3656 32.0876 36.3359 32.016 36.3359 31.9413C36.3359 31.8666 36.3656 31.795 36.4184 31.7422C36.4712 31.6893 36.5429 31.6597 36.6175 31.6597C38.7572 31.6567 40.8083 30.8054 42.3213 29.2925C43.8342 27.7795 44.6855 25.7284 44.6885 23.5887C44.6885 23.5141 44.7181 23.4424 44.771 23.3896C44.8238 23.3368 44.8954 23.3071 44.9701 23.3071C45.0448 23.3071 45.1164 23.3368 45.1692 23.3896C45.222 23.4424 45.2517 23.5141 45.2517 23.5887C45.2487 25.8777 44.3381 28.0721 42.7195 29.6907C41.101 31.3093 38.9066 32.2199 36.6175 32.2229Z" fill="white"/>
<path d="M36.6176 30.1334C34.8809 30.1319 33.2156 29.4413 31.9876 28.2132C30.7595 26.9851 30.0689 25.3199 30.0674 23.5831C30.0674 23.5084 30.0971 23.4368 30.1499 23.384C30.2027 23.3312 30.2743 23.3015 30.349 23.3015C30.4237 23.3015 30.4953 23.3312 30.5481 23.384C30.6009 23.4368 30.6306 23.5084 30.6306 23.5831C30.6321 25.1705 31.2633 26.6925 32.3858 27.8149C33.5083 28.9374 35.0302 29.5687 36.6176 29.5701C36.6923 29.5701 36.7639 29.5998 36.8168 29.6526C36.8696 29.7054 36.8992 29.7771 36.8992 29.8518C36.8992 29.9264 36.8696 29.9981 36.8168 30.0509C36.7639 30.1037 36.6923 30.1334 36.6176 30.1334Z" fill="white"/>
<path d="M42.8862 23.8648C42.8115 23.8648 42.7399 23.8351 42.6871 23.7823C42.6342 23.7295 42.6046 23.6579 42.6046 23.5832C42.6016 21.9968 41.9697 20.4762 40.8474 19.355C39.7251 18.2338 38.204 17.6033 36.6175 17.6018C36.5429 17.6018 36.4712 17.5721 36.4184 17.5193C36.3656 17.4665 36.3359 17.3949 36.3359 17.3202C36.3359 17.2455 36.3656 17.1739 36.4184 17.1211C36.4712 17.0682 36.5429 17.0386 36.6175 17.0386C38.3543 17.0401 40.0195 17.7307 41.2476 18.9587C42.4757 20.1868 43.1663 21.852 43.1678 23.5888C43.1663 23.6625 43.136 23.7327 43.0833 23.7843C43.0307 23.8359 42.9599 23.8648 42.8862 23.8648Z" fill="white"/>
</svg>
