<svg width="265" height="271" viewBox="0 0 265 271" fill="none" xmlns="http://www.w3.org/2000/svg">
<g filter="url(#filter0_d_92_30005)">
<path d="M21.0064 216.794L20.995 205.786L63.9395 144.046L81.6035 144.028L81.6653 204.06L93.5693 204.047L93.5824 216.719L81.6784 216.732L81.6984 236.188L67.3624 236.202L67.3424 216.746L21.0064 216.794ZM67.9228 158.89L37.7613 204.105L67.9693 204.074L67.9228 158.89ZM105.644 188.291C105.629 173.528 108.092 162.006 113.032 153.723C118.059 145.355 126.673 141.165 138.876 141.153C151.078 141.14 159.659 145.313 164.616 153.67C169.66 161.942 172.189 173.46 172.204 188.222C172.219 203.156 169.714 214.849 164.688 223.302C159.747 231.67 151.176 235.86 138.973 235.873C126.77 235.885 118.147 231.713 113.104 223.355C108.146 214.912 105.659 203.224 105.644 188.291ZM157.868 188.237C157.861 181.325 157.386 175.48 156.442 170.703C155.584 165.925 153.788 162.044 151.054 159.06C148.32 155.991 144.265 154.459 138.889 154.465C133.513 154.47 129.462 156.01 126.734 159.085C124.006 162.075 122.176 165.959 121.242 170.739C120.394 175.518 119.973 181.364 119.98 188.276C119.987 195.444 120.42 201.46 121.279 206.323C122.137 211.186 123.933 215.109 126.667 218.093C129.486 221.077 133.583 222.566 138.959 222.561C144.335 222.555 148.387 221.058 151.115 218.068C153.928 215.079 155.758 211.151 156.607 206.286C157.455 201.422 157.875 195.405 157.868 188.237ZM185.881 216.624L185.87 205.616L228.814 143.876L246.478 143.858L246.54 203.89L258.444 203.878L258.457 216.55L246.553 216.562L246.573 236.018L232.237 236.033L232.217 216.577L185.881 216.624ZM232.798 158.72L202.636 203.935L232.844 203.904L232.798 158.72Z" fill="url(#paint0_radial_92_30005)"/>
<path d="M21.0064 216.794L20.0064 216.795L20.0074 217.795L21.0074 217.794L21.0064 216.794ZM20.995 205.786L20.1741 205.215L19.9947 205.473L19.9951 205.787L20.995 205.786ZM63.9395 144.046L63.9384 143.046L63.4166 143.046L63.1185 143.475L63.9395 144.046ZM81.6035 144.028L82.6035 144.027L82.6024 143.027L81.6024 143.028L81.6035 144.028ZM81.6653 204.06L80.6653 204.061L80.6663 205.061L81.6663 205.06L81.6653 204.06ZM93.5693 204.047L94.5693 204.046L94.5683 203.046L93.5683 203.047L93.5693 204.047ZM93.5824 216.719L93.5834 217.719L94.5834 217.718L94.5824 216.718L93.5824 216.719ZM81.6784 216.732L81.6773 215.732L80.6773 215.733L80.6784 216.733L81.6784 216.732ZM81.6984 236.188L81.6994 237.188L82.6994 237.187L82.6984 236.187L81.6984 236.188ZM67.3624 236.202L66.3624 236.203L66.3634 237.203L67.3634 237.202L67.3624 236.202ZM67.3424 216.746L68.3424 216.745L68.3413 215.745L67.3413 215.746L67.3424 216.746ZM67.9228 158.89L68.9228 158.889L68.9194 155.594L67.0909 158.335L67.9228 158.89ZM37.7613 204.105L36.9294 203.55L35.8909 205.107L37.7624 205.105L37.7613 204.105ZM67.9693 204.074L67.9703 205.074L68.9703 205.073L68.9693 204.073L67.9693 204.074ZM22.0064 216.793L21.995 205.785L19.9951 205.787L20.0064 216.795L22.0064 216.793ZM21.816 206.357L64.7604 144.617L63.1185 143.475L20.1741 205.215L21.816 206.357ZM63.9405 145.046L81.6045 145.028L81.6024 143.028L63.9384 143.046L63.9405 145.046ZM80.6035 144.029L80.6653 204.061L82.6653 204.059L82.6035 144.027L80.6035 144.029ZM81.6663 205.06L93.5703 205.047L93.5683 203.047L81.6643 203.06L81.6663 205.06ZM92.5693 204.048L92.5824 216.72L94.5824 216.718L94.5693 204.046L92.5693 204.048ZM93.5813 215.719L81.6773 215.732L81.6794 217.732L93.5834 217.719L93.5813 215.719ZM80.6784 216.733L80.6984 236.189L82.6984 236.187L82.6784 216.731L80.6784 216.733ZM81.6974 235.188L67.3614 235.202L67.3634 237.202L81.6994 237.188L81.6974 235.188ZM68.3624 236.201L68.3424 216.745L66.3424 216.747L66.3624 236.203L68.3624 236.201ZM67.3413 215.746L21.0054 215.794L21.0074 217.794L67.3434 217.746L67.3413 215.746ZM67.0909 158.335L36.9294 203.55L38.5932 204.66L68.7547 159.445L67.0909 158.335ZM37.7624 205.105L67.9703 205.074L67.9683 203.074L37.7603 203.105L37.7624 205.105ZM68.9693 204.073L68.9228 158.889L66.9228 158.891L66.9693 204.075L68.9693 204.073ZM113.032 153.723L112.175 153.208L112.174 153.211L113.032 153.723ZM164.616 153.67L163.756 154.18L163.763 154.191L164.616 153.67ZM164.688 223.302L163.829 222.791L163.827 222.794L164.688 223.302ZM113.104 223.355L112.242 223.862L112.248 223.872L113.104 223.355ZM156.442 170.703L155.458 170.879L155.459 170.888L155.461 170.896L156.442 170.703ZM151.054 159.06L150.307 159.725L150.317 159.736L151.054 159.06ZM126.734 159.085L127.473 159.759L127.482 159.749L126.734 159.085ZM121.242 170.739L120.261 170.547L120.259 170.556L120.257 170.564L121.242 170.739ZM121.279 206.323L122.263 206.149L122.263 206.149L121.279 206.323ZM126.667 218.093L125.929 218.769L125.935 218.774L125.94 218.78L126.667 218.093ZM151.115 218.068L150.386 217.383L150.381 217.388L150.376 217.394L151.115 218.068ZM156.607 206.286L157.592 206.458L157.592 206.458L156.607 206.286ZM106.644 188.29C106.629 173.62 109.08 162.301 113.891 154.236L112.174 153.211C107.104 161.71 104.629 173.437 104.644 188.292L106.644 188.29ZM113.89 154.238C118.688 146.249 126.923 142.165 138.877 142.153L138.875 140.153C126.422 140.165 117.429 144.462 112.175 153.208L113.89 154.238ZM138.877 142.153C150.83 142.14 159.026 146.207 163.756 154.18L165.476 153.16C160.291 144.418 151.326 140.14 138.875 140.153L138.877 142.153ZM163.763 154.191C168.673 162.245 171.189 173.555 171.204 188.223L173.204 188.221C173.189 173.364 170.646 161.64 165.47 153.15L163.763 154.191ZM171.204 188.223C171.219 203.063 168.727 214.553 163.829 222.791L165.548 223.813C170.702 215.145 173.22 203.249 173.204 188.221L171.204 188.223ZM163.827 222.794C159.114 230.777 150.926 234.86 138.972 234.873L138.974 236.873C151.426 236.86 160.381 232.563 165.549 223.811L163.827 222.794ZM138.972 234.873C127.019 234.885 118.776 230.818 113.96 222.839L112.248 223.872C117.519 232.607 126.522 236.885 138.974 236.873L138.972 234.873ZM113.967 222.849C109.134 214.619 106.659 203.131 106.644 188.29L104.644 188.292C104.66 203.317 107.159 215.205 112.242 223.862L113.967 222.849ZM158.868 188.236C158.861 181.284 158.383 175.37 157.423 170.509L155.461 170.896C156.388 175.59 156.861 181.366 156.868 188.238L158.868 188.236ZM157.426 170.526C156.541 165.599 154.676 161.534 151.791 158.385L150.317 159.736C152.899 162.554 154.626 166.25 155.458 170.879L157.426 170.526ZM151.801 158.395C148.823 155.052 144.457 153.459 138.888 153.465L138.89 155.465C144.074 155.459 147.818 156.93 150.307 159.725L151.801 158.395ZM138.888 153.465C133.32 153.47 128.957 155.072 125.986 158.422L127.482 159.749C129.966 156.949 133.707 155.47 138.89 155.465L138.888 153.465ZM125.995 158.411C123.121 161.561 121.222 165.624 120.261 170.547L122.223 170.931C123.129 166.294 124.892 162.588 127.473 159.759L125.995 158.411ZM120.257 170.564C119.395 175.42 118.973 181.329 118.98 188.277L120.98 188.275C120.973 181.4 121.392 175.617 122.227 170.914L120.257 170.564ZM118.98 188.277C118.987 195.48 119.422 201.557 120.294 206.497L122.263 206.149C121.419 201.362 120.987 195.409 120.98 188.275L118.98 188.277ZM120.294 206.497C121.178 211.506 123.041 215.617 125.929 218.769L127.404 217.418C124.825 214.602 123.096 210.866 122.263 206.149L120.294 206.497ZM125.94 218.78C129.002 222.021 133.399 223.566 138.96 223.561L138.958 221.561C133.768 221.566 129.97 220.133 127.394 217.407L125.94 218.78ZM138.96 223.561C144.52 223.555 148.88 222.001 151.853 218.742L150.376 217.394C147.894 220.114 144.15 221.555 138.958 221.561L138.96 223.561ZM151.843 218.753C154.815 215.595 156.717 211.476 157.592 206.458L155.622 206.115C154.8 210.827 153.04 214.562 150.386 217.383L151.843 218.753ZM157.592 206.458C158.453 201.517 158.875 195.439 158.868 188.236L156.868 188.238C156.875 195.372 156.457 201.326 155.622 206.115L157.592 206.458ZM185.881 216.624L184.881 216.625L184.882 217.625L185.882 217.624L185.881 216.624ZM185.87 205.616L185.049 205.045L184.87 205.303L184.87 205.617L185.87 205.616ZM228.814 143.876L228.813 142.876L228.291 142.877L227.993 143.305L228.814 143.876ZM246.478 143.858L247.478 143.857L247.477 142.857L246.477 142.858L246.478 143.858ZM246.54 203.89L245.54 203.891L245.541 204.891L246.541 204.89L246.54 203.89ZM258.444 203.878L259.444 203.877L259.443 202.877L258.443 202.878L258.444 203.878ZM258.457 216.55L258.458 217.55L259.458 217.549L259.457 216.549L258.457 216.55ZM246.553 216.562L246.552 215.562L245.552 215.563L245.553 216.563L246.553 216.562ZM246.573 236.018L246.574 237.018L247.574 237.017L247.573 236.017L246.573 236.018ZM232.237 236.033L231.237 236.034L231.238 237.034L232.238 237.033L232.237 236.033ZM232.217 216.577L233.217 216.576L233.216 215.576L232.216 215.577L232.217 216.577ZM232.798 158.72L233.798 158.719L233.794 155.424L231.966 158.165L232.798 158.72ZM202.636 203.935L201.804 203.38L200.766 204.937L202.637 204.935L202.636 203.935ZM232.844 203.904L232.845 204.904L233.845 204.903L233.844 203.903L232.844 203.904ZM186.881 216.623L186.87 205.615L184.87 205.617L184.881 216.625L186.881 216.623ZM186.691 206.187L229.635 144.447L227.993 143.305L185.049 205.045L186.691 206.187ZM228.815 144.876L246.479 144.858L246.477 142.858L228.813 142.876L228.815 144.876ZM245.478 143.859L245.54 203.891L247.54 203.889L247.478 143.857L245.478 143.859ZM246.541 204.89L258.445 204.878L258.443 202.878L246.539 202.89L246.541 204.89ZM257.444 203.879L257.457 216.551L259.457 216.549L259.444 203.877L257.444 203.879ZM258.456 215.55L246.552 215.562L246.554 217.562L258.458 217.55L258.456 215.55ZM245.553 216.563L245.573 236.019L247.573 236.017L247.553 216.561L245.553 216.563ZM246.572 235.018L232.236 235.033L232.238 237.033L246.574 237.018L246.572 235.018ZM233.237 236.032L233.217 216.576L231.217 216.578L231.237 236.034L233.237 236.032ZM232.216 215.577L185.88 215.624L185.882 217.624L232.218 217.577L232.216 215.577ZM231.966 158.165L201.804 203.38L203.468 204.49L233.63 159.275L231.966 158.165ZM202.637 204.935L232.845 204.904L232.843 202.904L202.635 202.935L202.637 204.935ZM233.844 203.903L233.798 158.719L231.798 158.721L231.844 203.905L233.844 203.903Z" fill="#B893DA"/>
</g>
<path d="M90.0209 241.707C89.956 241.707 89.8931 241.684 89.8428 241.643C89.7925 241.602 89.7579 241.545 89.7449 241.481C85.8418 222.94 67.2556 214.785 67.0641 214.7C66.9982 214.669 66.9469 214.614 66.9209 214.546C66.8949 214.478 66.8963 214.403 66.9247 214.336C66.9531 214.269 67.0064 214.215 67.0733 214.186C67.1402 214.158 67.2157 214.156 67.2837 214.182C67.4752 214.261 86.3262 222.529 90.2913 241.363C90.2987 241.399 90.2988 241.437 90.2918 241.473C90.2848 241.509 90.2707 241.544 90.2503 241.575C90.2299 241.606 90.2036 241.632 90.1729 241.653C90.1423 241.674 90.1078 241.688 90.0716 241.695H90.0153L90.0209 241.707Z" fill="#7126B5" fill-opacity="0.54"/>
<path d="M71.722 216.925C71.722 216.925 70.0718 214.368 70.528 212.211C70.9842 210.054 74.831 212.425 71.722 216.925Z" fill="#7126B5"/>
<path d="M75.5408 219.583C75.5408 219.583 73.6315 215.303 75.507 212.887C77.3825 210.47 78.9089 216.587 75.5408 219.583Z" fill="#7126B5"/>
<path d="M80.3899 223.892C80.3899 223.892 78.6157 220.169 79.6239 216.677C80.6321 213.185 84.9745 216.97 80.3899 223.892Z" fill="#7126B5"/>
<path d="M69.0017 215.348C69.0017 215.348 67.7683 213.242 65.8252 213.259C63.8821 213.276 65.5436 216.159 69.0017 215.348Z" fill="#7126B5"/>
<path d="M73.1302 217.849C73.1302 217.849 69.7509 216.722 68.2133 217.455C66.6757 218.187 69.7509 220.49 73.1302 217.849Z" fill="#7126B5"/>
<path d="M76.7515 220.547C76.7515 220.547 72.6118 219.539 71.4178 221.555C70.2238 223.571 74.707 224.202 76.7515 220.547Z" fill="#7126B5"/>
<path d="M81.3418 224.9C81.3418 224.9 76.7234 223.808 75.4731 226.201C74.2227 228.595 79.455 229.265 81.3418 224.9Z" fill="#7126B5"/>
<path d="M83.2567 227.164C83.2567 227.164 83.1779 222.422 85.228 220.349C87.2781 218.277 89.4409 224.32 83.2567 227.164Z" fill="#7126B5"/>
<path d="M84.2594 228.494C84.2594 228.494 79.9508 228.803 79.9846 231.282C80.0184 233.76 83.1217 233.084 84.2594 228.494Z" fill="#7126B5"/>
<path d="M86.1294 231.366C86.3339 229.757 86.8362 228.201 87.6107 226.776C88.8103 224.529 92.6627 228.313 86.1294 231.366Z" fill="#7126B5"/>
<path d="M86.7376 232.492C86.7376 232.492 83.668 233.084 83.4934 234.954C83.3188 236.824 86.4165 235.872 86.7376 232.492Z" fill="#7126B5"/>
<path d="M87.2559 233.416C87.2559 233.416 89.2778 230.876 90.4493 231.659C91.6208 232.442 89.5087 234.605 87.2559 233.416Z" fill="#7126B5"/>
<path d="M189.458 239.91C189.458 239.91 171.057 222.687 179.826 200.89C181.957 205.034 184.334 209.046 186.946 212.904C191.525 219.764 193.777 228.302 189.458 239.91Z" fill="#7126B5" fill-opacity="0.54"/>
<path d="M188.951 237.826C188.9 237.826 188.85 237.813 188.807 237.787C188.763 237.761 188.727 237.724 188.703 237.68C181.381 224.337 179.601 204.422 179.584 204.219C179.581 204.182 179.586 204.145 179.597 204.109C179.608 204.074 179.627 204.041 179.651 204.013C179.675 203.985 179.704 203.961 179.737 203.944C179.77 203.928 179.807 203.917 179.844 203.915C179.918 203.91 179.991 203.934 180.048 203.983C180.105 204.031 180.141 204.1 180.148 204.174C180.148 204.371 181.911 224.174 189.199 237.404C189.224 237.447 189.237 237.496 189.236 237.545C189.236 237.595 189.223 237.644 189.198 237.687C189.172 237.73 189.136 237.765 189.093 237.79C189.05 237.814 189.001 237.827 188.951 237.826Z" fill="#7126B5"/>
<path d="M189.458 239.91C189.458 239.91 191.311 216.694 211.93 213.856C209.722 217.624 207.98 221.647 206.743 225.835C204.771 232.622 199.708 239.91 189.458 239.91Z" fill="#7126B5" fill-opacity="0.54"/>
<path d="M190.854 238.688H190.77C190.699 238.665 190.64 238.614 190.606 238.548C190.572 238.481 190.566 238.404 190.59 238.333C195.016 224.647 209.35 215.41 209.497 215.314C209.559 215.279 209.633 215.268 209.703 215.285C209.773 215.303 209.834 215.346 209.873 215.407C209.912 215.467 209.926 215.541 209.913 215.611C209.9 215.682 209.859 215.745 209.801 215.787C209.66 215.878 195.49 225.013 191.125 238.502C191.105 238.557 191.068 238.605 191.019 238.638C190.971 238.672 190.913 238.689 190.854 238.688Z" fill="#7126B5"/>
<path d="M189.458 239.91C189.458 239.91 184.642 229.772 187.233 216.075C189.824 202.377 205.256 193.726 205.256 193.726C205.256 193.726 204.27 198.046 204.512 205.83C204.755 213.613 203.409 230.031 189.458 239.91Z" fill="#7126B5"/>
<path d="M189.582 238.091C189.509 238.091 189.439 238.063 189.386 238.012C189.334 237.962 189.303 237.893 189.3 237.821C188.32 214.396 201.944 197.663 202.085 197.494C202.133 197.437 202.202 197.4 202.276 197.394C202.35 197.387 202.425 197.41 202.482 197.457C202.54 197.505 202.576 197.574 202.583 197.648C202.59 197.723 202.567 197.797 202.519 197.855C202.384 198.018 188.894 214.593 189.863 237.798C189.865 237.835 189.859 237.872 189.846 237.907C189.833 237.941 189.814 237.973 189.789 238.001C189.764 238.028 189.733 238.05 189.7 238.065C189.666 238.081 189.63 238.089 189.593 238.091H189.582Z" fill="#7126B5" fill-opacity="0.54"/>
<path d="M209.891 240.192H180.694C180.619 240.192 180.547 240.162 180.495 240.109C180.442 240.057 180.412 239.985 180.412 239.91C180.412 239.836 180.442 239.764 180.495 239.711C180.547 239.658 180.619 239.629 180.694 239.629H209.891C209.966 239.629 210.037 239.658 210.09 239.711C210.143 239.764 210.173 239.836 210.173 239.91C210.173 239.985 210.143 240.057 210.09 240.109C210.037 240.162 209.966 240.192 209.891 240.192Z" fill="#7126B5"/>
<path d="M129.21 240.192H100.013C99.9379 240.192 99.8663 240.162 99.8134 240.109C99.7606 240.057 99.731 239.985 99.731 239.91C99.731 239.836 99.7606 239.764 99.8134 239.711C99.8663 239.658 99.9379 239.629 100.013 239.629H129.21C129.285 239.629 129.356 239.658 129.409 239.711C129.462 239.764 129.491 239.836 129.491 239.91C129.491 239.985 129.462 240.057 129.409 240.109C129.356 240.162 129.285 240.192 129.21 240.192Z" fill="#7126B5"/>
<path d="M191.536 241.741H145.983C145.908 241.741 145.836 241.711 145.784 241.658C145.731 241.605 145.701 241.534 145.701 241.459C145.701 241.384 145.731 241.313 145.784 241.26C145.836 241.207 145.908 241.177 145.983 241.177H191.536C191.611 241.177 191.682 241.207 191.735 241.26C191.788 241.313 191.818 241.384 191.818 241.459C191.818 241.534 191.788 241.605 191.735 241.658C191.682 241.711 191.611 241.741 191.536 241.741Z" fill="#7126B5"/>
<path d="M97.7371 241.741H85.9095C85.8349 241.741 85.7632 241.711 85.7104 241.658C85.6576 241.605 85.6279 241.534 85.6279 241.459C85.6279 241.384 85.6576 241.313 85.7104 241.26C85.7632 241.207 85.8349 241.177 85.9095 241.177H97.7371C97.8118 241.177 97.8835 241.207 97.9363 241.26C97.9891 241.313 98.0188 241.384 98.0188 241.459C98.0188 241.534 97.9891 241.605 97.9363 241.658C97.8835 241.711 97.8118 241.741 97.7371 241.741Z" fill="#7126B5"/>
<path d="M153.716 216.373L154.561 223.34H159.28L159.348 216.159L153.716 216.373Z" fill="#FFD200"/>
<path d="M179.837 237.629H151.04C151.04 237.629 150.984 236.041 151.164 233.619C151.416 229.562 152.227 225.559 153.575 221.724H159.911C162.376 224.791 165.795 226.946 169.626 227.846C174.752 229.113 178.108 229.778 179.325 233.619C179.699 234.922 179.872 236.274 179.837 237.629Z" fill="#7126B5"/>
<path d="M179.837 237.629H151.04C151.04 237.629 150.984 236.041 151.164 233.619H179.325C179.699 234.922 179.872 236.274 179.837 237.629Z" fill="#7126B5" fill-opacity="0.54"/>
<path d="M163.476 217.663C159.512 218.381 155.464 218.506 151.463 218.035C151.463 218.035 146.36 175.044 141.426 146.596C140.959 143.909 140.497 141.352 140.035 138.97C139.844 137.945 139.656 136.954 139.472 135.996V114.526C139.452 111.887 139.936 109.268 140.897 106.81C142.401 103.054 145.436 98.8237 151.485 98.8237C159.111 98.8237 161.944 105.999 162.964 110.302C163.325 111.838 163.514 113.41 163.527 114.988C163.566 125.684 163.994 189.998 163.476 217.663Z" fill="#D0D0D0"/>
<path d="M143.51 135.782L141.426 146.596C140.959 143.909 140.497 141.352 140.035 138.97C141.325 138.029 143.015 137.258 143.51 135.782Z" fill="#7126B5"/>
<path d="M161.815 128.117C161.785 128.122 161.754 128.122 161.725 128.117C157.174 126.309 157.81 118.891 157.844 118.576C157.851 118.512 157.883 118.454 157.932 118.413C157.981 118.372 158.045 118.351 158.109 118.356C158.141 118.359 158.172 118.368 158.2 118.383C158.228 118.398 158.253 118.418 158.274 118.443C158.294 118.467 158.309 118.496 158.319 118.526C158.328 118.557 158.331 118.589 158.328 118.621C158.328 118.694 157.692 125.993 161.91 127.666C161.955 127.692 161.99 127.731 162.011 127.777C162.031 127.824 162.037 127.876 162.026 127.926C162.016 127.976 161.989 128.022 161.951 128.056C161.913 128.09 161.866 128.111 161.815 128.117Z" fill="#FFD200"/>
<path d="M154.465 216.024C154.403 216.024 154.344 216.001 154.299 215.959C154.254 215.917 154.227 215.86 154.223 215.799C152.533 193.912 143.161 136.903 143.065 136.334C143.055 136.271 143.07 136.206 143.107 136.153C143.145 136.101 143.202 136.066 143.265 136.055C143.329 136.045 143.394 136.06 143.446 136.097C143.498 136.135 143.534 136.192 143.544 136.255C143.64 136.818 153.034 193.856 154.707 215.765C154.709 215.797 154.705 215.829 154.695 215.859C154.685 215.889 154.669 215.917 154.648 215.941C154.627 215.965 154.602 215.985 154.573 215.999C154.545 216.013 154.514 216.022 154.482 216.024H154.465Z" fill="#FFD200"/>
<path d="M140.576 138.863C140.526 138.862 140.478 138.846 140.438 138.818C140.398 138.789 140.367 138.748 140.351 138.702C140.334 138.655 140.332 138.605 140.345 138.557C140.359 138.509 140.386 138.467 140.424 138.435L142.57 136.706C142.944 136.405 143.251 136.028 143.469 135.599C143.687 135.171 143.813 134.702 143.837 134.222C144.13 128.41 144.276 111.75 144.282 111.586C144.282 111.522 144.307 111.46 144.353 111.415C144.398 111.37 144.46 111.344 144.524 111.344C144.587 111.345 144.648 111.372 144.692 111.417C144.736 111.462 144.761 111.523 144.761 111.586C144.761 111.755 144.609 128.421 144.316 134.244C144.285 134.789 144.14 135.321 143.891 135.806C143.641 136.291 143.293 136.719 142.868 137.061L140.722 138.79C140.684 138.831 140.632 138.857 140.576 138.863Z" fill="#FFD200"/>
<path d="M113.969 216.373L113.834 223.34H118.554L119.63 216.159L113.969 216.373Z" fill="#FFD200"/>
<path d="M123.713 229.677C120.407 226.652 119.54 221.724 119.54 221.724H113.203C111.615 226.004 110.044 230.504 109.824 233.619C109.644 236.041 109.7 237.629 109.7 237.629H127.081C127.042 233.749 126.681 232.386 123.713 229.677Z" fill="#7126B5"/>
<path d="M109.824 233.619C109.644 236.041 109.7 237.629 109.7 237.629H127.081C127.131 236.278 126.981 234.926 126.636 233.619H109.824Z" fill="#7126B5" fill-opacity="0.54"/>
<path d="M140.576 112.949V138.621L121.612 218.294C121.612 218.294 115.98 219.747 112.038 216.863C112.038 216.863 116.448 127.903 116.825 114.216C117.247 98.8236 138.695 89.9979 140.576 112.949Z" fill="#D0D0D0"/>
<path d="M140.576 138.863C140.511 138.863 140.45 138.837 140.404 138.792C140.359 138.747 140.333 138.685 140.333 138.621V116.013C140.333 115.949 140.359 115.887 140.404 115.842C140.45 115.797 140.511 115.771 140.576 115.771C140.64 115.771 140.702 115.797 140.747 115.842C140.792 115.887 140.818 115.949 140.818 116.013V138.626C140.816 138.69 140.79 138.75 140.745 138.794C140.7 138.838 140.639 138.863 140.576 138.863Z" fill="#FFD200"/>
<path d="M120.795 128.117C120.731 128.117 120.67 128.091 120.624 128.046C120.579 128.001 120.553 127.939 120.553 127.875C120.553 127.81 120.579 127.749 120.624 127.703C120.67 127.658 120.731 127.632 120.795 127.632C123.612 127.632 125.205 124.507 125.504 118.334C125.505 118.302 125.513 118.271 125.527 118.242C125.54 118.213 125.559 118.187 125.583 118.166C125.606 118.144 125.634 118.128 125.664 118.117C125.694 118.106 125.726 118.101 125.757 118.103C125.789 118.104 125.82 118.112 125.849 118.126C125.878 118.139 125.904 118.158 125.925 118.182C125.947 118.205 125.963 118.233 125.974 118.263C125.985 118.293 125.99 118.324 125.988 118.356C125.667 124.833 123.921 128.117 120.795 128.117Z" fill="#FFD200"/>
<path d="M114.476 216.024C114.444 216.022 114.413 216.013 114.384 215.999C114.356 215.985 114.33 215.965 114.309 215.941C114.289 215.917 114.273 215.889 114.262 215.859C114.252 215.829 114.248 215.797 114.251 215.765L121.291 117.765C121.292 117.733 121.3 117.701 121.314 117.672C121.328 117.643 121.348 117.617 121.372 117.596C121.396 117.575 121.425 117.559 121.455 117.55C121.486 117.54 121.518 117.536 121.55 117.539C121.582 117.542 121.613 117.55 121.641 117.564C121.67 117.578 121.696 117.598 121.716 117.622C121.737 117.646 121.753 117.674 121.763 117.704C121.774 117.735 121.778 117.767 121.775 117.799L114.735 215.799C114.733 215.831 114.724 215.862 114.71 215.89C114.696 215.919 114.676 215.944 114.652 215.965C114.628 215.986 114.6 216.002 114.57 216.012C114.54 216.022 114.508 216.026 114.476 216.024Z" fill="#FFD200"/>
<path d="M161.815 41.1387C161.815 41.1387 178.148 63.5266 181.691 75.9175C185.234 88.3083 172.02 90.5612 162.727 74.9318C153.434 59.3025 149.914 50.995 149.914 50.995L161.815 41.1387Z" fill="#7126B5" fill-opacity="0.54"/>
<path d="M167.047 115.72C136.351 121.257 113.445 115.72 113.445 115.72C114.572 103.51 115.552 89.446 116.261 76.9256C117.056 63.3633 117.585 51.6145 117.827 45.9485C117.923 43.6957 117.974 42.3834 117.974 42.3834C117.974 42.3834 125.673 33.9351 139.427 33.3719C147.593 33.0311 155.585 35.7984 161.792 41.1161C167.374 73.6646 167.047 115.72 167.047 115.72Z" fill="#7126B5" fill-opacity="0.54"/>
<path d="M165.853 78.362C165.781 78.3622 165.712 78.3348 165.659 78.2856C165.607 78.2364 165.575 78.169 165.571 78.0973C164.709 64.6589 163.437 52.7524 161.786 42.6764C161.774 42.6018 161.793 42.5254 161.837 42.4641C161.881 42.4029 161.948 42.3617 162.023 42.3498C162.098 42.3378 162.174 42.356 162.235 42.4004C162.296 42.4448 162.338 42.5116 162.35 42.5863C164.005 52.668 165.278 64.6026 166.14 78.0692C166.142 78.1062 166.137 78.1432 166.125 78.1783C166.113 78.2133 166.094 78.2456 166.07 78.2734C166.045 78.3011 166.015 78.3237 165.982 78.3399C165.948 78.3561 165.912 78.3655 165.875 78.3677L165.853 78.362Z" fill="#7126B5"/>
<path d="M143.307 116.937C143.27 116.934 143.234 116.924 143.201 116.907C143.168 116.89 143.139 116.867 143.115 116.839C143.091 116.81 143.072 116.778 143.061 116.742C143.05 116.707 143.045 116.67 143.048 116.633C144.41 99.9591 144.155 83.1928 142.288 66.5681C142.283 66.5312 142.286 66.4936 142.295 66.4576C142.305 66.4216 142.322 66.3878 142.345 66.3583C142.367 66.3287 142.396 66.304 142.428 66.2854C142.46 66.2668 142.496 66.2547 142.533 66.2499C142.57 66.2451 142.608 66.2476 142.644 66.2574C142.68 66.2671 142.713 66.2838 142.743 66.3065C142.772 66.3293 142.797 66.3576 142.816 66.3899C142.834 66.4223 142.846 66.4579 142.851 66.4949C144.712 83.1599 144.955 99.9659 143.578 116.678C143.572 116.747 143.542 116.811 143.492 116.859C143.442 116.907 143.376 116.934 143.307 116.937Z" fill="#7126B5"/>
<path d="M119.359 113.186C119.285 113.179 119.217 113.143 119.17 113.086C119.122 113.029 119.099 112.956 119.106 112.882C120.958 92.1101 120.333 66.6076 120.322 66.3541C120.322 66.2794 120.352 66.2078 120.405 66.155C120.457 66.1022 120.529 66.0725 120.604 66.0725C120.678 66.0725 120.75 66.1022 120.803 66.155C120.856 66.2078 120.885 66.2794 120.885 66.3541C120.885 66.6076 121.522 92.1439 119.663 112.944C119.653 113.015 119.616 113.081 119.56 113.126C119.503 113.171 119.431 113.192 119.359 113.186Z" fill="#7126B5"/>
<path d="M123.488 63.7857C123.488 63.7857 123.775 72.4536 116.284 76.9256C117.078 63.3632 117.608 51.6145 117.85 45.9485C120.751 47.1932 124.552 51.1357 123.488 63.7857Z" fill="#7126B5"/>
<path d="M137.664 28.9843C126.445 30.2065 122.08 43.1606 122.08 43.1606C122.08 43.1606 134.065 49.6432 142.716 67.9422C142.716 67.9422 149.21 45.8809 155.405 34.7123C152.912 33.981 150.467 33.0951 148.083 32.0595C144.423 30.4374 141.325 28.607 137.664 28.9843Z" fill="#7126B5" fill-opacity="0.54"/>
<path d="M142.716 68.2239C142.662 68.2235 142.61 68.208 142.565 68.1791C142.521 68.1501 142.485 68.1091 142.462 68.0606C133.952 50.0376 122.068 43.4705 121.95 43.4029C121.891 43.3716 121.845 43.3205 121.82 43.2587C121.796 43.1968 121.794 43.1281 121.815 43.0649C122.409 41.4411 123.163 39.8808 124.068 38.4071C124.087 38.3753 124.112 38.3476 124.142 38.3256C124.172 38.3036 124.206 38.2876 124.242 38.2787C124.278 38.2699 124.316 38.2682 124.352 38.2738C124.389 38.2794 124.424 38.2921 124.456 38.3114C124.488 38.3306 124.516 38.3559 124.538 38.3858C124.56 38.4158 124.576 38.4498 124.585 38.4858C124.594 38.5219 124.595 38.5594 124.59 38.5962C124.584 38.6329 124.571 38.6682 124.552 38.7C123.715 40.0773 123.002 41.5268 122.423 43.0311C124.051 43.9942 134.718 50.7867 142.654 67.1595C143.735 63.5887 148.816 47.1652 153.918 36.8864C153.955 36.8255 154.013 36.7807 154.082 36.761C154.15 36.7413 154.223 36.7482 154.287 36.7803C154.35 36.8124 154.399 36.8673 154.424 36.934C154.448 37.0007 154.447 37.0742 154.42 37.1399C148.725 48.6239 143.043 67.8297 143.014 68.0325C142.999 68.0874 142.966 68.1363 142.922 68.1725C142.878 68.2087 142.824 68.2306 142.767 68.2352L142.716 68.2239Z" fill="#7126B5"/>
<path d="M142.547 63.904C142.547 63.904 133.535 49.784 132.026 44.1913C131.987 44.0392 131.947 43.8984 131.919 43.7632C130.793 38.5028 131.581 31.9356 137.619 31.4625C140.48 31.2316 145.69 33.3887 146.489 40.474C146.537 40.8854 146.563 41.299 146.568 41.7131C146.782 49.2997 142.547 63.904 142.547 63.904Z" fill="#D0D0D0"/>
<path d="M146.568 41.7187C144.231 40.5332 141.647 39.9157 139.027 39.9164C135.084 41.1104 132.95 43.1211 132.026 44.1969C131.987 44.0448 131.947 43.904 131.919 43.7688C130.793 38.5084 131.581 31.9412 137.619 31.4681C140.48 31.2372 145.69 33.3943 146.489 40.4796C146.537 40.891 146.563 41.3046 146.568 41.7187Z" fill="white"/>
<path d="M142.31 61.2345C142.253 61.2337 142.197 61.2123 142.154 61.174C142.11 61.1358 142.082 61.0833 142.074 61.0261L139.489 41.6401C139.482 41.6073 139.482 41.5735 139.488 41.5407C139.495 41.5079 139.509 41.4769 139.528 41.4495C139.547 41.4222 139.572 41.3991 139.601 41.3819C139.629 41.3646 139.661 41.3535 139.694 41.3492C139.728 41.3449 139.761 41.3475 139.794 41.3569C139.826 41.3663 139.856 41.3823 139.881 41.4038C139.907 41.4253 139.928 41.4519 139.943 41.4819C139.957 41.5119 139.966 41.5447 139.968 41.5781L142.553 60.9641C142.561 61.0276 142.543 61.0916 142.504 61.1423C142.465 61.1929 142.408 61.2261 142.344 61.2345H142.31Z" fill="#FFD200"/>
<path d="M146.594 49L140 51.423C140 51.423 145.729 87.1253 149 95C153.5 101.5 161 101 161 101H176.5L189.5 100.5L195.5 98L198.5 95.5L200 93.5001L146.594 49Z" fill="#FFD200"/>
<path d="M198.321 47.4953C198.687 47.5341 198.979 47.5668 199.191 47.5913C199.208 47.8608 199.233 48.2562 199.265 48.7618C199.328 49.7758 199.418 51.2326 199.521 53.0033C199.728 56.5448 199.991 61.3412 200.216 66.3612C200.442 71.382 200.63 76.6232 200.686 81.0556C200.742 85.5062 200.665 89.0923 200.373 90.8345C200.113 92.3865 198.844 93.5937 196.884 94.5222C194.937 95.4447 192.423 96.0343 189.909 96.4058C187.401 96.7762 184.927 96.9251 183.076 96.9811C182.151 97.0091 181.384 97.0138 180.849 97.0116C180.582 97.0104 180.372 97.0076 180.23 97.005C180.159 97.0037 180.105 97.0025 180.069 97.0016L180.028 97.0006L180.018 97.0003L180.016 97.0002L180.015 97.0002L179.984 96.9993L179.952 97.0023L180 97.5C179.952 97.0023 179.952 97.0023 179.952 97.0023L179.951 97.0024L179.949 97.0026L179.936 97.0038L179.886 97.0084C179.842 97.0125 179.775 97.0184 179.689 97.0259C179.515 97.0409 179.259 97.062 178.932 97.0866C178.278 97.1359 177.338 97.199 176.199 97.2542C173.921 97.3645 170.851 97.4428 167.677 97.3157C164.498 97.1883 161.239 96.8557 158.573 96.1531C155.871 95.4411 153.932 94.388 153.179 92.9385C152.778 92.1666 152.365 90.9083 151.952 89.2615C151.543 87.6247 151.142 85.6379 150.757 83.4307C149.985 79.0168 149.278 73.7447 148.676 68.6727C148.075 63.6018 147.582 58.7368 147.238 55.1391C147.066 53.3403 146.932 51.8587 146.841 50.8269C146.796 50.318 146.761 49.9185 146.738 49.6444C158.855 46.8583 171.986 46.3446 182.142 46.5356C187.275 46.6321 191.643 46.9086 194.726 47.1608C196.267 47.2869 197.487 47.4069 198.321 47.4953Z" fill="#A178C6" stroke="#D0D0D0"/>
<path d="M191.711 30.0152L185.521 34.5998L179.331 30.0152V20.8629L185.521 16.2783L191.711 20.8629V30.0152Z" fill="#7126B5" fill-opacity="0.54"/>
<path d="M215.298 68.6351L210.984 71.8229L206.664 68.6351V62.2481L210.984 59.0547L215.298 62.2481V68.6351Z" fill="#7126B5"/>
<path d="M220.885 59.3363L218.091 61.4033L215.298 59.3363V55.2079L218.091 53.1409L220.885 55.2079V59.3363Z" fill="#7126B5" fill-opacity="0.54"/>
<path d="M203.882 116.024L199.657 119.145L195.439 116.024V109.778L199.657 106.658L203.882 109.778V116.024Z" fill="#7126B5" fill-opacity="0.54"/>
<path d="M117.247 113.231C113.404 113.231 109.647 114.37 106.452 116.505C103.256 118.641 100.766 121.675 99.295 125.226C97.8243 128.776 97.4395 132.683 98.1893 136.453C98.939 140.222 100.79 143.684 103.507 146.402C106.225 149.119 109.687 150.97 113.456 151.719C117.225 152.469 121.132 152.084 124.683 150.614C128.234 149.143 131.268 146.653 133.403 143.457C135.538 140.262 136.678 136.505 136.678 132.662C136.678 127.508 134.631 122.566 130.987 118.922C127.343 115.278 122.4 113.231 117.247 113.231ZM117.247 146.883C114.434 146.883 111.685 146.049 109.346 144.486C107.007 142.924 105.185 140.703 104.108 138.104C103.032 135.505 102.75 132.646 103.299 129.887C103.848 127.129 105.202 124.595 107.191 122.606C109.18 120.617 111.714 119.262 114.473 118.714C117.231 118.165 120.091 118.447 122.689 119.523C125.288 120.599 127.509 122.422 129.072 124.761C130.634 127.1 131.468 129.849 131.468 132.662C131.469 134.53 131.102 136.379 130.387 138.105C129.673 139.831 128.625 141.399 127.305 142.719C125.984 144.04 124.416 145.088 122.69 145.802C120.964 146.516 119.115 146.884 117.247 146.883Z" fill="#7126B5"/>
<path d="M119.95 150.826H114.549C113.992 150.826 113.541 151.277 113.541 151.834V240.896C113.541 241.453 113.992 241.904 114.549 241.904H119.95C120.507 241.904 120.959 241.453 120.959 240.896V151.834C120.959 151.277 120.507 150.826 119.95 150.826Z" fill="#7126B5" fill-opacity="0.54"/>
<path d="M109.013 218.598H113.541V237.961H109.013V218.598Z" fill="#7126B5"/>
<path d="M109.013 218.249V238.316C109.015 238.586 108.964 238.854 108.862 239.104C108.76 239.354 108.61 239.581 108.42 239.773C108.23 239.964 108.004 240.117 107.755 240.22C107.505 240.324 107.238 240.378 106.968 240.378H98.8015C98.2608 240.378 97.7422 240.163 97.3599 239.78C96.9775 239.398 96.7627 238.88 96.7627 238.339V235.235H102.992C103.3 235.235 103.595 235.113 103.812 234.896C104.03 234.678 104.152 234.383 104.152 234.075V231.822C104.152 231.515 104.03 231.22 103.812 231.002C103.595 230.784 103.3 230.662 102.992 230.662H96.7627V225.942H102.992C103.3 225.942 103.595 225.82 103.812 225.602C104.03 225.385 104.152 225.09 104.152 224.782V222.529C104.152 222.221 104.03 221.926 103.812 221.709C103.595 221.491 103.3 221.369 102.992 221.369H96.7627V218.271C96.7627 217.731 96.9775 217.212 97.3599 216.83C97.7422 216.447 98.2608 216.232 98.8015 216.232H106.968C107.506 216.232 108.021 216.444 108.404 216.821C108.787 217.199 109.005 217.711 109.013 218.249Z" fill="#7126B5" fill-opacity="0.54"/>
<path d="M121.753 144.022H112.742C112.185 144.022 111.733 144.473 111.733 145.03V152.07C111.733 152.627 112.185 153.079 112.742 153.079H121.753C122.31 153.079 122.761 152.627 122.761 152.07V145.03C122.761 144.473 122.31 144.022 121.753 144.022Z" fill="#7126B5"/>
<path d="M117.996 42.406C117.996 42.406 100.018 58.9252 94.4819 74.6954C94.4819 74.6954 96.5489 90.5613 102.181 101.167L111.66 97.8831L109.312 77.4214L123.296 65.0305C123.296 65.0305 126.585 46.816 117.996 42.406Z" fill="#7126B5" fill-opacity="0.54"/>
<path d="M123.302 65.312H123.251C123.178 65.2983 123.113 65.2563 123.071 65.1951C123.029 65.1339 123.013 65.0585 123.026 64.9854C123.054 64.8277 125.808 49.0744 119.292 43.583C119.263 43.5594 119.24 43.5303 119.222 43.4976C119.205 43.4648 119.195 43.4289 119.191 43.3921C119.188 43.3552 119.192 43.318 119.203 43.2827C119.214 43.2473 119.231 43.2144 119.255 43.186C119.279 43.1575 119.308 43.1339 119.341 43.1167C119.373 43.0994 119.409 43.0888 119.446 43.0854C119.483 43.082 119.52 43.0859 119.555 43.0969C119.591 43.1079 119.624 43.1257 119.652 43.1494C126.411 48.8266 123.696 64.394 123.595 65.0586C123.588 65.1303 123.553 65.1965 123.499 65.2437C123.444 65.2908 123.374 65.3153 123.302 65.312Z" fill="#7126B5"/>
<path d="M108.45 77.3255C108.41 77.325 108.371 77.3163 108.336 77.2998C108.3 77.2833 108.268 77.2594 108.242 77.2297C105.335 73.9856 99.6468 74.1545 99.5905 74.1545C99.5533 74.1568 99.5161 74.1516 99.481 74.1391C99.4459 74.1266 99.4137 74.1071 99.3863 74.0819C99.359 74.0566 99.337 74.0261 99.3218 73.9921C99.3065 73.9581 99.2983 73.9214 99.2976 73.8842C99.2961 73.8472 99.3019 73.8103 99.3147 73.7756C99.3274 73.7408 99.3469 73.7089 99.372 73.6817C99.3971 73.6545 99.4274 73.6325 99.461 73.617C99.4946 73.6015 99.5309 73.5928 99.5679 73.5913C99.8101 73.5913 105.577 73.4167 108.658 76.8524C108.696 76.8927 108.72 76.943 108.73 76.9972C108.739 77.0514 108.732 77.1071 108.71 77.1574C108.687 77.2077 108.651 77.2504 108.605 77.2803C108.559 77.3101 108.505 77.3259 108.45 77.3255Z" fill="#7126B5"/>
<path d="M99.8604 99.8543C99.8604 99.8543 105.774 94.5037 113.31 95.0669L114.436 100.913C114.436 100.913 111.694 106.123 103.313 106.619C101.936 104.487 100.779 102.22 99.8604 99.8543Z" fill="#7126B5"/>
<path d="M121.516 120.13C121.19 120.789 120.063 121.116 119.736 119.612C119.736 119.612 119.545 120.738 118.655 120.834C117.765 120.93 117.529 119.612 117.529 119.612C117.529 119.612 116.87 120.93 116.025 120.789C115.18 120.648 115.231 119.19 115.231 119.19C115.231 119.19 114.245 120.271 113.541 119.663C112.837 119.054 113.209 117.032 113.305 115.343C113.305 115.343 108.236 110.882 107.954 109.525C107.784 108.579 107.737 107.616 107.813 106.658L106.062 103.639C107.805 102.441 109.782 101.626 111.863 101.245L113.868 105.301C113.868 105.301 120.39 110.651 121.19 111.541C121.989 112.431 121.849 119.471 121.516 120.13Z" fill="#FFD200"/>
<path d="M115.468 118.39H115.417C115.343 118.381 115.276 118.344 115.229 118.286C115.183 118.228 115.161 118.154 115.169 118.08C115.169 118.08 115.451 115.557 115.518 114.07C115.518 114.032 115.526 113.995 115.541 113.961C115.556 113.927 115.578 113.896 115.605 113.87C115.633 113.845 115.665 113.825 115.701 113.813C115.736 113.801 115.774 113.796 115.811 113.8C115.848 113.801 115.884 113.81 115.918 113.825C115.952 113.841 115.982 113.863 116.007 113.89C116.032 113.917 116.052 113.949 116.064 113.984C116.077 114.018 116.083 114.055 116.081 114.092C116.014 115.596 115.732 118.114 115.727 118.142C115.719 118.207 115.689 118.267 115.642 118.312C115.594 118.358 115.533 118.385 115.468 118.39Z" fill="#7126B5"/>
<path d="M117.669 118.632H117.636C117.562 118.624 117.494 118.586 117.448 118.528C117.402 118.47 117.38 118.396 117.388 118.322C117.388 118.322 117.703 115.574 117.703 114.216C117.703 114.142 117.733 114.07 117.786 114.017C117.839 113.964 117.91 113.935 117.985 113.935C118.06 113.935 118.131 113.964 118.184 114.017C118.237 114.07 118.266 114.142 118.266 114.216C118.266 115.608 117.962 118.272 117.945 118.384C117.937 118.452 117.905 118.514 117.854 118.56C117.803 118.606 117.738 118.631 117.669 118.632Z" fill="#7126B5"/>
<path d="M119.765 118.232C119.728 118.229 119.692 118.219 119.659 118.202C119.626 118.185 119.596 118.162 119.572 118.134C119.548 118.106 119.53 118.073 119.518 118.038C119.507 118.002 119.503 117.965 119.506 117.928C119.506 117.928 119.697 115.675 119.697 114.397C119.697 114.322 119.727 114.25 119.78 114.197C119.833 114.145 119.904 114.115 119.979 114.115C120.054 114.115 120.125 114.145 120.178 114.197C120.231 114.25 120.261 114.322 120.261 114.397C120.261 115.681 120.075 117.883 120.063 117.973C120.058 118.047 120.023 118.115 119.967 118.164C119.911 118.212 119.839 118.237 119.765 118.232Z" fill="#7126B5"/>
<path d="M103.966 105.768C103.914 105.768 103.862 105.753 103.817 105.725C103.773 105.697 103.737 105.656 103.714 105.609C103.691 105.561 103.682 105.508 103.688 105.456C103.694 105.403 103.714 105.353 103.747 105.312C104.377 104.584 105.103 103.943 105.904 103.408C107.678 102.186 109.692 101.355 111.812 100.97C112.308 100.874 112.831 100.795 113.378 100.744C113.452 100.738 113.527 100.761 113.584 100.809C113.642 100.857 113.678 100.926 113.685 101.001C113.691 101.075 113.668 101.15 113.62 101.207C113.572 101.265 113.503 101.301 113.428 101.308C112.905 101.358 112.398 101.431 111.919 101.522C109.876 101.892 107.935 102.692 106.225 103.87C105.472 104.376 104.788 104.978 104.192 105.661C104.165 105.695 104.131 105.722 104.091 105.741C104.052 105.76 104.01 105.769 103.966 105.768Z" fill="#7126B5" fill-opacity="0.54"/>
<path d="M140.857 36.2106C140.8 36.6787 140.644 37.1295 140.402 37.534C140.159 37.9384 139.835 38.2877 139.449 38.5593C135.411 38.4185 135.411 35.6474 135.411 35.6474L135.597 27.813L135.653 25.3236L135.693 23.5833L140.576 25.6503L140.672 29.2605L140.722 31.1586L140.857 36.2106Z" fill="#FFD200"/>
<path d="M140.722 31.1586C138.002 30.6291 136.458 29.283 135.597 27.813L135.653 25.3236L135.692 23.5833L140.576 25.6503L140.671 29.2605L140.722 31.1586Z" fill="#7126B5"/>
<path d="M144.445 20.5192C144.546 20.2023 144.712 19.9104 144.934 19.6626C145.156 19.4148 145.428 19.2168 145.732 19.0816C146.035 18.9465 146.364 18.8772 146.697 18.8784C147.029 18.8796 147.358 18.9513 147.661 19.0886C150.128 19.9785 148.083 25.1207 144.636 24.2027L144.445 20.5192Z" fill="#FFD200"/>
<path d="M144.963 22.9129H144.873C144.802 22.8897 144.743 22.8393 144.709 22.7728C144.675 22.7062 144.669 22.629 144.693 22.5581C144.721 22.4679 145.453 20.3052 147.396 20.1137C147.471 20.107 147.545 20.1302 147.603 20.1783C147.66 20.2263 147.696 20.2953 147.703 20.37C147.71 20.4446 147.686 20.5189 147.638 20.5765C147.59 20.6341 147.521 20.6702 147.447 20.6769C145.864 20.8233 145.233 22.7158 145.222 22.7383C145.201 22.7897 145.165 22.8337 145.119 22.8648C145.073 22.8959 145.018 22.9126 144.963 22.9129Z" fill="#7126B5"/>
<path d="M146.394 22.5806C146.319 22.5806 146.247 22.5509 146.194 22.4981C146.142 22.4453 146.112 22.3736 146.112 22.299C146.093 21.8713 145.993 21.451 145.819 21.0599C145.801 21.0259 145.79 20.9885 145.787 20.9502C145.785 20.9119 145.789 20.8733 145.802 20.837C145.814 20.8006 145.834 20.7672 145.86 20.7388C145.886 20.7104 145.917 20.6876 145.953 20.6718C145.988 20.656 146.026 20.6476 146.064 20.647C146.102 20.6464 146.141 20.6537 146.176 20.6684C146.212 20.6832 146.244 20.705 146.27 20.7326C146.297 20.7602 146.318 20.793 146.332 20.8289C146.54 21.2922 146.656 21.7914 146.675 22.299C146.675 22.3736 146.646 22.4453 146.593 22.4981C146.54 22.5509 146.468 22.5806 146.394 22.5806Z" fill="#7126B5"/>
<path d="M146.298 11.9302C146.298 11.9302 148.455 14.5097 148.455 15.777C148.455 17.0442 144.653 21.3641 144.653 21.3641L143.578 12.7299L146.298 11.9302Z" fill="#7126B5"/>
<path d="M131.936 16.5767C131.581 22.1075 135.935 28.7761 140.598 28.9225C145.262 29.0689 146.861 17.3314 145.217 13.1524C143.572 8.97327 132.55 7.05269 131.936 16.5767Z" fill="#FFD200"/>
<path d="M134.662 22.9129L134.003 20.722C134.003 20.722 136.16 19.4998 136.441 15.2306C136.441 15.2306 142.541 17.4384 147.329 13.1185C152.116 8.79864 150.19 0.682654 148.973 0.0687451C147.757 -0.545164 140.705 3.05381 137.945 6.82738C137.945 6.82738 138.745 3.58887 136.492 4.29289C134.239 4.99692 131.187 11.84 131.187 11.84C131.187 11.84 128.134 10.6178 126.867 13.0115C125.6 15.4052 133.31 22.9129 133.31 22.9129H134.656H134.662Z" fill="#7126B5"/>
<path d="M133.547 22.1413C133.547 22.1413 132.274 18.5762 129.604 18.8634C126.935 19.1506 126.704 27.3117 134.482 24.1858L133.547 22.1413Z" fill="#FFD200"/>
<path d="M133.316 23.4255C133.267 23.4258 133.22 23.4135 133.177 23.3898C133.135 23.3661 133.099 23.3318 133.074 23.2903C131.452 20.6601 129.447 21.2909 129.424 21.2965C129.389 21.3084 129.352 21.3132 129.315 21.3107C129.278 21.3081 129.242 21.2984 129.209 21.2819C129.175 21.2654 129.146 21.2426 129.121 21.2146C129.097 21.1867 129.078 21.1543 129.067 21.1191C129.055 21.084 129.05 21.0469 129.052 21.0099C129.055 20.9729 129.065 20.9368 129.081 20.9036C129.098 20.8703 129.12 20.8407 129.148 20.8163C129.176 20.7919 129.209 20.7733 129.244 20.7615C129.244 20.7615 131.694 19.9842 133.553 23.0144C133.574 23.0563 133.585 23.103 133.584 23.1502C133.583 23.1975 133.57 23.2437 133.547 23.2846C133.523 23.3256 133.49 23.36 133.449 23.3846C133.409 23.4092 133.363 23.4233 133.316 23.4255Z" fill="#7126B5"/>
<path d="M130.956 23.6338C130.89 23.6334 130.825 23.6093 130.775 23.566C130.724 23.5227 130.691 23.463 130.68 23.3973C130.583 22.6129 130.72 21.8173 131.074 21.1106C131.089 21.0749 131.111 21.0426 131.139 21.0157C131.167 20.9889 131.2 20.9681 131.237 20.9547C131.273 20.9413 131.312 20.9355 131.35 20.9377C131.389 20.9399 131.427 20.9501 131.461 20.9676C131.496 20.985 131.527 21.0094 131.551 21.0393C131.576 21.0691 131.594 21.1037 131.605 21.1409C131.616 21.1781 131.619 21.2171 131.614 21.2555C131.608 21.2939 131.596 21.3309 131.576 21.3641C131.276 21.9631 131.157 22.6361 131.232 23.3015C131.239 23.3382 131.238 23.3757 131.23 23.412C131.221 23.4483 131.206 23.4826 131.185 23.513C131.163 23.5434 131.136 23.5692 131.104 23.589C131.073 23.6087 131.038 23.6221 131.001 23.6282H130.95L130.956 23.6338Z" fill="#7126B5"/>
<path d="M137.438 18.8858C137.438 18.8858 139.038 17.8664 139.804 19.0886C139.86 19.0064 139.943 18.9466 140.039 18.9198C140.135 18.893 140.237 18.9009 140.328 18.9421C140.621 19.1111 140.103 20.0291 140.103 20.0291C139.3 19.4743 138.394 19.0855 137.438 18.8858Z" fill="#7126B5"/>
<path d="M144.406 19.3985C144.406 19.3985 143.184 18.1707 142.75 19.1901C142.698 19.1338 142.631 19.0937 142.557 19.0747C142.483 19.0557 142.405 19.0586 142.333 19.0831C142.012 19.2859 142.609 20.08 142.609 20.08C143.12 19.6664 143.749 19.4275 144.406 19.3985Z" fill="#7126B5"/>
<path d="M139.097 22.106C139.489 22.1027 139.804 21.7067 139.8 21.2214C139.796 20.7362 139.475 20.3455 139.083 20.3488C138.691 20.3521 138.376 20.7481 138.38 21.2333C138.384 21.7186 138.705 22.1093 139.097 22.106Z" fill="#7126B5"/>
<path d="M139.241 21.1023C139.347 21.1014 139.432 21.015 139.431 20.9092C139.43 20.8035 139.344 20.7185 139.238 20.7193C139.132 20.7202 139.047 20.8067 139.048 20.9124C139.049 21.0182 139.135 21.1032 139.241 21.1023Z" fill="white"/>
<path d="M143.293 22.0654C143.685 22.0622 144 21.6661 143.995 21.1809C143.991 20.6957 143.67 20.305 143.278 20.3083C142.887 20.3115 142.572 20.7076 142.576 21.1928C142.58 21.678 142.901 22.0687 143.293 22.0654Z" fill="#7126B5"/>
<path d="M143.437 21.0672C143.543 21.0663 143.628 20.9798 143.627 20.8741C143.626 20.7683 143.539 20.6833 143.434 20.6842C143.328 20.6851 143.243 20.7715 143.244 20.8773C143.245 20.983 143.331 21.068 143.437 21.0672Z" fill="white"/>
<path d="M141.533 24.2254C141.395 24.2262 141.257 24.2111 141.122 24.1803C141.047 24.1631 140.983 24.117 140.942 24.052C140.901 23.9871 140.888 23.9086 140.905 23.8339C140.922 23.7593 140.969 23.6945 141.034 23.6538C141.099 23.6131 141.177 23.5999 141.252 23.6171C141.252 23.6171 141.978 23.7804 142.153 23.3299C142.164 23.3102 142.17 23.2878 142.17 23.2651C142.17 23.2424 142.164 23.22 142.153 23.2003C141.944 23.0589 141.694 22.9915 141.443 23.0088C141.369 23.0088 141.299 22.9799 141.246 22.9283C141.193 22.8767 141.163 22.8066 141.162 22.7328V21.0094C141.161 20.9724 141.167 20.9356 141.181 20.9012C141.194 20.8667 141.214 20.8353 141.24 20.8086C141.266 20.7819 141.296 20.7606 141.33 20.7457C141.364 20.7309 141.401 20.7229 141.438 20.7222C141.475 20.7206 141.512 20.7266 141.547 20.7398C141.581 20.753 141.613 20.7731 141.64 20.7989C141.667 20.8247 141.688 20.8556 141.703 20.8898C141.717 20.9241 141.725 20.9609 141.725 20.9981V22.4625C141.895 22.4695 142.061 22.5105 142.215 22.5831C142.369 22.6556 142.507 22.7583 142.62 22.8849C142.684 22.9792 142.722 23.0882 142.732 23.2015C142.742 23.3148 142.723 23.4287 142.677 23.5326C142.585 23.755 142.425 23.9423 142.219 24.0669C142.013 24.1916 141.773 24.2471 141.533 24.2254Z" fill="#7126B5"/>
<path d="M138.3 25.4409C138.346 25.4238 138.395 25.4187 138.443 25.4263C138.491 25.4338 138.536 25.4536 138.574 25.4838C139.783 26.4484 141.519 25.3274 141.517 25.3221C141.581 25.2801 141.659 25.2653 141.734 25.281C141.809 25.2966 141.875 25.3414 141.917 25.4056C141.959 25.4697 141.973 25.5478 141.958 25.6229C141.942 25.6979 141.897 25.7636 141.833 25.8056C141.743 25.8388 139.751 27.1747 138.215 25.9408C138.172 25.91 138.138 25.8677 138.118 25.8188C138.098 25.7698 138.092 25.7161 138.101 25.6639C138.11 25.6117 138.133 25.5631 138.168 25.5237C138.204 25.4842 138.249 25.4555 138.3 25.4409Z" fill="#7126B5"/>
<path d="M189.198 131.186C188.787 131.186 188.386 131.064 188.044 130.836C187.702 130.607 187.436 130.283 187.278 129.903C187.121 129.523 187.08 129.106 187.16 128.702C187.24 128.299 187.438 127.929 187.729 127.638C188.019 127.348 188.39 127.15 188.793 127.069C189.196 126.989 189.614 127.03 189.994 127.188C190.373 127.345 190.698 127.611 190.926 127.953C191.155 128.295 191.277 128.697 191.277 129.108C191.277 129.659 191.058 130.188 190.668 130.577C190.278 130.967 189.75 131.186 189.198 131.186ZM189.198 127.598C188.899 127.598 188.606 127.687 188.357 127.854C188.108 128.02 187.913 128.257 187.799 128.534C187.684 128.811 187.654 129.115 187.712 129.409C187.771 129.703 187.915 129.973 188.127 130.185C188.339 130.397 188.609 130.541 188.903 130.599C189.197 130.658 189.501 130.628 189.778 130.513C190.055 130.399 190.292 130.204 190.458 129.955C190.625 129.706 190.713 129.413 190.713 129.113C190.714 128.914 190.676 128.716 190.6 128.532C190.524 128.347 190.412 128.18 190.272 128.039C190.131 127.897 189.964 127.785 189.779 127.709C189.595 127.632 189.398 127.593 189.198 127.593V127.598Z" fill="#7126B5" fill-opacity="0.54"/>
<path d="M168.843 40.6317C168.432 40.6317 168.031 40.5098 167.689 40.2814C167.347 40.053 167.081 39.7285 166.923 39.3487C166.766 38.9689 166.725 38.5511 166.805 38.1479C166.885 37.7448 167.083 37.3745 167.374 37.0838C167.664 36.7932 168.035 36.5952 168.438 36.515C168.841 36.4348 169.259 36.476 169.639 36.6333C170.018 36.7906 170.343 37.057 170.571 37.3987C170.8 37.7405 170.922 38.1423 170.922 38.5534C170.922 39.1046 170.703 39.6332 170.313 40.0229C169.923 40.4127 169.395 40.6317 168.843 40.6317ZM168.843 37.044C168.544 37.044 168.251 37.1328 168.002 37.2993C167.753 37.4658 167.558 37.7024 167.444 37.9792C167.329 38.2561 167.299 38.5607 167.357 38.8546C167.416 39.1485 167.56 39.4184 167.772 39.6303C167.984 39.8422 168.254 39.9865 168.548 40.045C168.842 40.1034 169.146 40.0734 169.423 39.9587C169.7 39.8441 169.937 39.6499 170.103 39.4007C170.27 39.1516 170.358 38.8587 170.358 38.559C170.355 38.1591 170.195 37.7767 169.911 37.495C169.627 37.2133 169.243 37.0552 168.843 37.0552V37.044Z" fill="#7126B5" fill-opacity="0.54"/>
<path d="M120.688 23.0255C120.277 23.0255 119.875 22.9036 119.534 22.6752C119.192 22.4468 118.925 22.1223 118.768 21.7425C118.611 21.3627 118.57 20.9449 118.65 20.5417C118.73 20.1386 118.928 19.7683 119.219 19.4776C119.509 19.187 119.88 18.989 120.283 18.9088C120.686 18.8286 121.104 18.8698 121.483 19.0271C121.863 19.1844 122.188 19.4508 122.416 19.7925C122.645 20.1343 122.766 20.5361 122.766 20.9472C122.766 21.4984 122.547 22.027 122.158 22.4167C121.768 22.8065 121.239 23.0255 120.688 23.0255ZM120.688 19.4378C120.388 19.4378 120.096 19.5266 119.846 19.6931C119.597 19.8596 119.403 20.0962 119.288 20.373C119.174 20.6499 119.144 20.9545 119.202 21.2484C119.261 21.5423 119.405 21.8122 119.617 22.0241C119.829 22.236 120.099 22.3803 120.393 22.4388C120.686 22.4972 120.991 22.4672 121.268 22.3525C121.545 22.2379 121.781 22.0437 121.948 21.7945C122.114 21.5454 122.203 21.2525 122.203 20.9528C122.203 20.551 122.044 20.1656 121.759 19.8815C121.475 19.5974 121.09 19.4378 120.688 19.4378Z" fill="#7126B5" fill-opacity="0.54"/>
<path d="M113.851 36.6724C113.554 36.6724 113.265 36.5845 113.018 36.4199C112.772 36.2552 112.58 36.0213 112.467 35.7475C112.353 35.4738 112.324 35.1725 112.381 34.8819C112.439 34.5913 112.582 34.3244 112.791 34.1148C113.001 33.9053 113.268 33.7626 113.558 33.7048C113.849 33.647 114.15 33.6767 114.424 33.7901C114.698 33.9035 114.932 34.0955 115.096 34.3419C115.261 34.5882 115.349 34.8779 115.349 35.1742C115.349 35.5715 115.191 35.9526 114.91 36.2335C114.629 36.5145 114.248 36.6724 113.851 36.6724ZM113.851 34.2392C113.666 34.2392 113.485 34.2941 113.331 34.3968C113.178 34.4995 113.058 34.6456 112.987 34.8164C112.916 34.9872 112.898 35.1752 112.934 35.3566C112.97 35.5379 113.059 35.7045 113.19 35.8353C113.32 35.966 113.487 36.0551 113.668 36.0912C113.85 36.1272 114.038 36.1087 114.208 36.038C114.379 35.9672 114.525 35.8474 114.628 35.6936C114.731 35.5399 114.786 35.3591 114.786 35.1742C114.786 34.9262 114.687 34.6884 114.512 34.5131C114.336 34.3378 114.099 34.2392 113.851 34.2392Z" fill="#7126B5" fill-opacity="0.54"/>
<path d="M202.997 27.1653C202.922 27.1653 202.851 27.1356 202.798 27.0828C202.745 27.03 202.715 26.9584 202.715 26.8837V23.9606C202.715 23.8859 202.745 23.8142 202.798 23.7614C202.851 23.7086 202.922 23.679 202.997 23.679C203.072 23.679 203.143 23.7086 203.196 23.7614C203.249 23.8142 203.279 23.8859 203.279 23.9606V26.8837C203.279 26.9584 203.249 27.03 203.196 27.0828C203.143 27.1356 203.072 27.1653 202.997 27.1653Z" fill="#7126B5" fill-opacity="0.54"/>
<path d="M206.044 28.3087H203.842C203.767 28.3087 203.696 28.279 203.643 28.2262C203.59 28.1734 203.561 28.1018 203.561 28.0271C203.561 27.9524 203.59 27.8808 203.643 27.828C203.696 27.7752 203.767 27.7455 203.842 27.7455H206.027C206.064 27.7444 206.101 27.7506 206.136 27.7637C206.17 27.7768 206.202 27.7966 206.229 27.822C206.256 27.8474 206.278 27.8778 206.293 27.9115C206.308 27.9453 206.316 27.9817 206.318 28.0186C206.319 28.0556 206.312 28.0925 206.299 28.1271C206.286 28.1617 206.266 28.1933 206.241 28.2203C206.216 28.2472 206.185 28.2689 206.151 28.284C206.118 28.2992 206.081 28.3076 206.044 28.3087Z" fill="#7126B5" fill-opacity="0.54"/>
<path d="M202.997 32.375C202.922 32.375 202.851 32.3453 202.798 32.2925C202.745 32.2397 202.715 32.1681 202.715 32.0934V29.1703C202.715 29.0956 202.745 29.024 202.798 28.9712C202.851 28.9183 202.922 28.8887 202.997 28.8887C203.072 28.8887 203.143 28.9183 203.196 28.9712C203.249 29.024 203.279 29.0956 203.279 29.1703V32.0934C203.279 32.1681 203.249 32.2397 203.196 32.2925C203.143 32.3453 203.072 32.375 202.997 32.375Z" fill="#7126B5" fill-opacity="0.54"/>
<path d="M202.152 28.3086H199.967C199.892 28.3086 199.821 28.2789 199.768 28.2261C199.715 28.1733 199.686 28.1017 199.686 28.027C199.686 27.9523 199.715 27.8807 199.768 27.8278C199.821 27.775 199.892 27.7454 199.967 27.7454H202.152C202.227 27.7454 202.299 27.775 202.352 27.8278C202.404 27.8807 202.434 27.9523 202.434 28.027C202.434 28.1017 202.404 28.1733 202.352 28.2261C202.299 28.2789 202.227 28.3086 202.152 28.3086Z" fill="#7126B5" fill-opacity="0.54"/>
<path d="M206.574 89.1418C206.499 89.1418 206.427 89.1122 206.374 89.0594C206.322 89.0066 206.292 88.9349 206.292 88.8602V85.9371C206.292 85.8624 206.322 85.7908 206.374 85.738C206.427 85.6852 206.499 85.6555 206.574 85.6555C206.648 85.6555 206.72 85.6852 206.773 85.738C206.826 85.7908 206.855 85.8624 206.855 85.9371V88.8715C206.852 88.9442 206.821 89.013 206.769 89.0634C206.716 89.1138 206.646 89.1419 206.574 89.1418Z" fill="#7126B5" fill-opacity="0.54"/>
<path d="M209.615 90.2851H207.43C207.355 90.2851 207.283 90.2555 207.23 90.2027C207.178 90.1499 207.148 90.0782 207.148 90.0035C207.148 89.9288 207.178 89.8572 207.23 89.8044C207.283 89.7516 207.355 89.7219 207.43 89.7219H209.615C209.69 89.7219 209.761 89.7516 209.814 89.8044C209.867 89.8572 209.896 89.9288 209.896 90.0035C209.896 90.0782 209.867 90.1499 209.814 90.2027C209.761 90.2555 209.69 90.2851 209.615 90.2851Z" fill="#7126B5" fill-opacity="0.54"/>
<path d="M206.574 94.3516C206.499 94.3516 206.427 94.322 206.374 94.2692C206.322 94.2163 206.292 94.1447 206.292 94.07V91.1244C206.292 91.0497 206.322 90.9781 206.374 90.9253C206.427 90.8724 206.499 90.8428 206.574 90.8428C206.648 90.8428 206.72 90.8724 206.773 90.9253C206.826 90.9781 206.855 91.0497 206.855 91.1244V94.0475C206.858 94.0863 206.853 94.1254 206.841 94.1622C206.828 94.199 206.808 94.2328 206.781 94.2613C206.755 94.2899 206.723 94.3127 206.687 94.3283C206.651 94.3438 206.613 94.3518 206.574 94.3516Z" fill="#7126B5" fill-opacity="0.54"/>
<path d="M205.717 90.2851H203.532C203.457 90.2851 203.386 90.2555 203.333 90.2027C203.28 90.1499 203.25 90.0782 203.25 90.0035C203.25 89.9288 203.28 89.8572 203.333 89.8044C203.386 89.7516 203.457 89.7219 203.532 89.7219H205.717C205.792 89.7219 205.864 89.7516 205.917 89.8044C205.969 89.8572 205.999 89.9288 205.999 90.0035C205.999 90.0782 205.969 90.1499 205.917 90.2027C205.864 90.2555 205.792 90.2851 205.717 90.2851Z" fill="#7126B5" fill-opacity="0.54"/>
<path d="M87.8187 103.357C87.744 103.357 87.6724 103.328 87.6196 103.275C87.5668 103.222 87.5371 103.151 87.5371 103.076V100.136C87.5371 100.061 87.5668 99.9895 87.6196 99.9367C87.6724 99.8839 87.744 99.8542 87.8187 99.8542C87.8934 99.8542 87.965 99.8839 88.0178 99.9367C88.0707 99.9895 88.1003 100.061 88.1003 100.136V103.059C88.1026 103.097 88.0971 103.136 88.0839 103.172C88.0708 103.208 88.0504 103.241 88.0241 103.269C87.9977 103.297 87.9659 103.319 87.9305 103.335C87.8952 103.35 87.8572 103.358 87.8187 103.357Z" fill="#7126B5" fill-opacity="0.54"/>
<path d="M90.8656 104.501H88.6747C88.6 104.501 88.5284 104.471 88.4755 104.418C88.4227 104.366 88.3931 104.294 88.3931 104.219C88.3931 104.145 88.4227 104.073 88.4755 104.02C88.5284 103.967 88.6 103.938 88.6747 103.938H90.8656C90.9403 103.938 91.0119 103.967 91.0647 104.02C91.1175 104.073 91.1472 104.145 91.1472 104.219C91.1472 104.294 91.1175 104.366 91.0647 104.418C91.0119 104.471 90.9403 104.501 90.8656 104.501Z" fill="#7126B5" fill-opacity="0.54"/>
<path d="M87.8187 108.584C87.744 108.584 87.6724 108.555 87.6196 108.502C87.5668 108.449 87.5371 108.377 87.5371 108.303V105.38C87.5371 105.305 87.5668 105.233 87.6196 105.18C87.6724 105.128 87.744 105.098 87.8187 105.098C87.8934 105.098 87.965 105.128 88.0178 105.18C88.0707 105.233 88.1003 105.305 88.1003 105.38V108.303C88.1003 108.377 88.0707 108.449 88.0178 108.502C87.965 108.555 87.8934 108.584 87.8187 108.584Z" fill="#7126B5" fill-opacity="0.54"/>
<path d="M86.9628 104.501H84.7718C84.6972 104.501 84.6255 104.471 84.5727 104.418C84.5199 104.366 84.4902 104.294 84.4902 104.219C84.4902 104.145 84.5199 104.073 84.5727 104.02C84.6255 103.967 84.6972 103.938 84.7718 103.938H86.9628C87.0375 103.938 87.1091 103.967 87.1619 104.02C87.2147 104.073 87.2444 104.145 87.2444 104.219C87.2444 104.294 87.2147 104.366 87.1619 104.418C87.1091 104.471 87.0375 104.501 86.9628 104.501Z" fill="#7126B5" fill-opacity="0.54"/>
<path d="M101.618 13.1636C99.557 13.1636 97.5425 13.7747 95.829 14.9196C94.1155 16.0645 92.78 17.6918 91.9914 19.5957C91.2028 21.4997 90.9964 23.5947 91.3985 25.6159C91.8005 27.6371 92.7929 29.4937 94.2501 30.9509C95.7073 32.4081 97.5639 33.4004 99.585 33.8025C101.606 34.2045 103.701 33.9982 105.605 33.2096C107.509 32.4209 109.136 31.0854 110.281 29.3719C111.426 27.6584 112.037 25.6439 112.037 23.5831C112.037 20.8197 110.94 18.1694 108.986 16.2154C107.032 14.2613 104.381 13.1636 101.618 13.1636ZM101.618 28.1227C100.719 28.1294 99.8376 27.8688 99.0866 27.3741C98.3357 26.8794 97.7486 26.1728 97.3998 25.3439C97.051 24.515 96.9563 23.6012 97.1276 22.7184C97.2989 21.8356 97.7286 21.0236 98.3621 20.3853C98.9956 19.7471 99.8044 19.3114 100.686 19.1334C101.567 18.9555 102.482 19.0434 103.313 19.386C104.145 19.7286 104.856 20.3104 105.356 21.0576C105.856 21.8049 106.124 22.6839 106.124 23.5831C106.125 24.7817 105.652 25.9321 104.808 26.7828C103.963 27.6335 102.816 28.1152 101.618 28.1227Z" fill="#7126B5" fill-opacity="0.54"/>
<path d="M93.265 23.8647C93.1903 23.8647 93.1187 23.8351 93.0659 23.7823C93.0131 23.7294 92.9834 23.6578 92.9834 23.5831C92.9864 21.2941 93.897 19.0997 95.5156 17.4812C97.1341 15.8626 99.3285 14.952 101.618 14.949C101.692 14.949 101.764 14.9786 101.817 15.0315C101.869 15.0843 101.899 15.1559 101.899 15.2306C101.899 15.3053 101.869 15.3769 101.817 15.4297C101.764 15.4825 101.692 15.5122 101.618 15.5122C99.4779 15.5152 97.4268 16.3665 95.9138 17.8794C94.4009 19.3924 93.5496 21.4435 93.5466 23.5831C93.5466 23.6578 93.517 23.7294 93.4641 23.7823C93.4113 23.8351 93.3397 23.8647 93.265 23.8647Z" fill="white"/>
<path d="M101.618 32.2229C101.543 32.2229 101.472 32.1932 101.419 32.1404C101.366 32.0876 101.336 32.016 101.336 31.9413C101.336 31.8666 101.366 31.795 101.419 31.7422C101.472 31.6893 101.543 31.6597 101.618 31.6597C103.758 31.6567 105.809 30.8054 107.322 29.2925C108.835 27.7795 109.686 25.7284 109.689 23.5887C109.689 23.5141 109.719 23.4424 109.771 23.3896C109.824 23.3368 109.896 23.3071 109.971 23.3071C110.045 23.3071 110.117 23.3368 110.17 23.3896C110.223 23.4424 110.252 23.5141 110.252 23.5887C110.249 25.8777 109.339 28.0721 107.72 29.6907C106.101 31.3093 103.907 32.2199 101.618 32.2229Z" fill="white"/>
<path d="M101.618 30.1334C99.8809 30.1319 98.2156 29.4413 96.9876 28.2132C95.7595 26.9851 95.0689 25.3199 95.0674 23.5831C95.0674 23.5084 95.0971 23.4368 95.1499 23.384C95.2027 23.3312 95.2743 23.3015 95.349 23.3015C95.4237 23.3015 95.4953 23.3312 95.5481 23.384C95.6009 23.4368 95.6306 23.5084 95.6306 23.5831C95.6321 25.1705 96.2633 26.6925 97.3858 27.8149C98.5083 28.9374 100.03 29.5687 101.618 29.5701C101.692 29.5701 101.764 29.5998 101.817 29.6526C101.87 29.7054 101.899 29.7771 101.899 29.8518C101.899 29.9264 101.87 29.9981 101.817 30.0509C101.764 30.1037 101.692 30.1334 101.618 30.1334Z" fill="white"/>
<path d="M107.887 23.8648C107.812 23.8648 107.74 23.8351 107.688 23.7823C107.635 23.7295 107.605 23.6579 107.605 23.5832C107.602 21.9968 106.97 20.4762 105.848 19.355C104.726 18.2338 103.204 17.6033 101.618 17.6018C101.543 17.6018 101.472 17.5721 101.419 17.5193C101.366 17.4665 101.336 17.3949 101.336 17.3202C101.336 17.2455 101.366 17.1739 101.419 17.1211C101.472 17.0682 101.543 17.0386 101.618 17.0386C103.355 17.0401 105.02 17.7307 106.248 18.9587C107.476 20.1868 108.167 21.852 108.168 23.5888C108.167 23.6625 108.136 23.7327 108.084 23.7843C108.031 23.8359 107.96 23.8648 107.887 23.8648Z" fill="white"/>
<g filter="url(#filter1_d_92_30005)">
<path d="M163.595 74.9088L162.596 74.9477L162.635 75.9469L163.634 75.908L163.595 74.9088ZM163.548 73.7057L162.706 73.1662L162.537 73.4307L162.549 73.7446L163.548 73.7057ZM167.986 66.7798L167.947 65.7806L167.426 65.8009L167.144 66.2403L167.986 66.7798ZM169.917 66.7047L170.916 66.6658L170.877 65.6665L169.878 65.7054L169.917 66.7047ZM170.172 73.2657L169.173 73.3046L169.212 74.3039L170.211 74.265L170.172 73.2657ZM171.473 73.2151L172.472 73.1762L172.433 72.1769L171.434 72.2158L171.473 73.2151ZM171.527 74.6L171.566 75.5993L172.565 75.5604L172.526 74.5611L171.527 74.6ZM170.226 74.6507L170.187 73.6514L169.188 73.6903L169.227 74.6896L170.226 74.6507ZM170.309 76.7771L170.348 77.7763L171.347 77.7374L171.308 76.7382L170.309 76.7771ZM168.742 76.838L167.743 76.8769L167.782 77.8762L168.781 77.8373L168.742 76.838ZM168.659 74.7117L169.658 74.6728L169.62 73.6735L168.62 73.7124L168.659 74.7117ZM168.483 68.3857L169.482 68.3468L169.354 65.0543L167.631 67.8627L168.483 68.3857ZM165.374 73.4525L164.521 72.9295L163.543 74.5245L165.413 74.4517L165.374 73.4525ZM168.675 73.324L168.714 74.3232L169.713 74.2843L169.674 73.2851L168.675 73.324ZM164.594 74.8699L164.547 73.6668L162.549 73.7446L162.596 74.9477L164.594 74.8699ZM164.39 74.2452L168.828 67.3194L167.144 66.2403L162.706 73.1662L164.39 74.2452ZM168.025 67.7791L169.956 67.7039L169.878 65.7054L167.947 65.7806L168.025 67.7791ZM168.917 66.7436L169.173 73.3046L171.171 73.2268L170.916 66.6658L168.917 66.7436ZM170.211 74.265L171.512 74.2143L171.434 72.2158L170.133 72.2665L170.211 74.265ZM170.474 73.254L170.528 74.6389L172.526 74.5611L172.472 73.1762L170.474 73.254ZM171.488 73.6008L170.187 73.6514L170.265 75.6499L171.566 75.5993L171.488 73.6008ZM169.227 74.6896L169.309 76.816L171.308 76.7382L171.225 74.6118L169.227 74.6896ZM170.27 75.7778L168.703 75.8388L168.781 77.8373L170.348 77.7763L170.27 75.7778ZM169.741 76.7992L169.658 74.6728L167.66 74.7506L167.743 76.8769L169.741 76.7992ZM168.62 73.7124L163.556 73.9095L163.634 75.908L168.698 75.7109L168.62 73.7124ZM167.631 67.8627L164.521 72.9295L166.226 73.9755L169.335 68.9088L167.631 67.8627ZM165.413 74.4517L168.714 74.3232L168.636 72.3247L165.335 72.4532L165.413 74.4517ZM169.674 73.2851L169.482 68.3468L167.484 68.4246L167.676 73.3629L169.674 73.2851ZM173.392 67.6342L172.516 67.1522L172.514 67.1548L173.392 67.6342ZM179.03 67.4148L178.189 67.9572L178.196 67.9673L179.03 67.4148ZM179.326 75.025L178.448 74.5469L178.446 74.5496L179.326 75.025ZM173.688 75.2445L172.846 75.7832L172.852 75.7932L173.688 75.2445ZM178.207 69.3102L177.23 69.5242L177.232 69.5326L177.234 69.541L178.207 69.3102ZM177.57 68.0601L176.849 68.7531L176.858 68.763L177.57 68.0601ZM174.912 68.1635L175.675 68.8091L175.684 68.7983L174.912 68.1635ZM174.36 69.46L173.372 69.3055L173.37 69.3141L173.369 69.3226L174.36 69.46ZM174.511 73.349L175.489 73.138L175.489 73.138L174.511 73.349ZM175.149 74.6132L174.437 75.3161L174.443 75.3216L174.448 75.327L175.149 74.6132ZM177.821 74.5092L177.067 73.852L177.062 73.8578L177.057 73.8636L177.821 74.5092ZM178.372 73.1987L179.363 73.3331L179.363 73.3331L178.372 73.1987ZM173.727 71.404C173.668 69.8829 173.885 68.8179 174.27 68.1136L172.514 67.1548C171.888 68.3019 171.662 69.7761 171.728 71.4818L173.727 71.404ZM174.268 68.1163C174.57 67.5676 175.119 67.1947 176.203 67.1525L176.126 65.154C174.543 65.2156 173.243 65.83 172.516 67.1522L174.268 68.1163ZM176.203 67.1525C177.288 67.1103 177.855 67.4396 178.19 67.9572L179.87 66.8724C179.051 65.6041 177.708 65.0924 176.126 65.154L176.203 67.1525ZM178.196 67.9673C178.641 68.6377 178.944 69.6797 179.003 71.1987L181.001 71.1209C180.935 69.413 180.59 67.9583 179.863 66.8623L178.196 67.9673ZM179.003 71.1987C179.063 72.7369 178.842 73.8221 178.448 74.5469L180.204 75.5032C180.838 74.3385 181.068 72.8468 181.001 71.1209L179.003 71.1987ZM178.446 74.5496C178.153 75.0915 177.614 75.4639 176.528 75.5062L176.606 77.5047C178.189 77.4431 179.488 76.8286 180.206 75.5005L178.446 74.5496ZM176.528 75.5062C175.444 75.5484 174.868 75.2193 174.524 74.6957L172.852 75.7932C173.68 77.0548 175.023 77.5663 176.606 77.5047L176.528 75.5062ZM174.531 74.7058C174.087 74.012 173.787 72.9445 173.727 71.404L171.728 71.4818C171.795 73.2056 172.135 74.6724 172.846 75.7831L174.531 74.7058ZM179.434 71.1819C179.404 70.3863 179.322 69.6808 179.18 69.0795L177.234 69.541C177.337 69.9762 177.408 70.5444 177.436 71.2597L179.434 71.1819ZM179.184 69.0963C179.038 68.43 178.75 67.8312 178.281 67.3571L176.858 68.763C177.012 68.9185 177.149 69.1531 177.23 69.5242L179.184 69.0963ZM178.291 67.3671C177.725 66.7782 176.962 66.5786 176.182 66.6089L176.26 68.6074C176.655 68.592 176.792 68.6936 176.849 68.753L178.291 67.3671ZM176.182 66.6089C175.402 66.6393 174.657 66.8976 174.139 67.5287L175.684 68.7983C175.737 68.7347 175.865 68.6228 176.26 68.6074L176.182 66.6089ZM174.148 67.518C173.722 68.0221 173.476 68.6351 173.372 69.3055L175.348 69.6144C175.407 69.2323 175.53 68.981 175.675 68.8091L174.148 67.518ZM173.369 69.3226C173.286 69.9256 173.264 70.6291 173.295 71.4209L175.294 71.3431C175.266 70.624 175.288 70.0461 175.35 69.5973L173.369 69.3226ZM173.295 71.4209C173.327 72.2387 173.403 72.9564 173.534 73.56L175.489 73.138C175.391 72.6857 175.323 72.092 175.294 71.3431L173.295 71.4209ZM173.534 73.56C173.679 74.2328 173.966 74.8389 174.437 75.3161L175.86 73.9102C175.709 73.7579 175.571 73.5212 175.489 73.138L173.534 73.56ZM174.448 75.327C175.021 75.8891 175.776 76.0799 176.55 76.0498L176.472 74.0513C176.07 74.0669 175.917 73.9661 175.849 73.8994L174.448 75.327ZM176.55 76.0498C177.321 76.0197 178.063 75.7714 178.584 75.1547L177.057 73.8636C177.007 73.9231 176.876 74.0356 176.472 74.0513L176.55 76.0498ZM178.574 75.1664C179.022 74.653 179.27 74.0222 179.363 73.3331L177.381 73.0644C177.329 73.4457 177.209 73.6886 177.067 73.852L178.574 75.1664ZM179.363 73.3331C179.446 72.7212 179.466 71.9998 179.434 71.1819L177.436 71.2597C177.465 72.0086 177.443 72.6058 177.381 73.0644L179.363 73.3331ZM181.615 74.2074L180.615 74.2463L180.654 75.2455L181.653 75.2066L181.615 74.2074ZM181.568 73.0043L180.726 72.4648L180.556 72.7293L180.568 73.0432L181.568 73.0043ZM186.006 66.0784L185.967 65.0792L185.445 65.0995L185.164 65.5389L186.006 66.0784ZM187.936 66.0033L188.935 65.9644L188.897 64.9652L187.897 65.004L187.936 66.0033ZM188.192 72.5643L187.192 72.6032L187.231 73.6025L188.231 73.5636L188.192 72.5643ZM189.493 72.5137L190.492 72.4748L190.453 71.4755L189.454 71.5144L189.493 72.5137ZM189.547 73.8986L189.585 74.8979L190.585 74.859L190.546 73.8597L189.547 73.8986ZM188.246 73.9493L188.207 72.95L187.207 72.9889L187.246 73.9882L188.246 73.9493ZM188.328 76.0757L188.367 77.0749L189.366 77.036L189.328 76.0368L188.328 76.0757ZM186.761 76.1367L185.762 76.1755L185.801 77.1748L186.8 77.1359L186.761 76.1367ZM186.679 74.0103L187.678 73.9714L187.639 72.9721L186.64 73.011L186.679 74.0103ZM186.503 67.6843L187.502 67.6454L187.374 64.3529L185.65 67.1613L186.503 67.6843ZM183.393 72.7511L182.541 72.2281L181.562 73.8231L183.432 73.7503L183.393 72.7511ZM186.695 72.6226L186.734 73.6218L187.733 73.5829L187.694 72.5837L186.695 72.6226ZM182.614 74.1685L182.567 72.9654L180.568 73.0432L180.615 74.2463L182.614 74.1685ZM182.41 73.5438L186.848 66.618L185.164 65.5389L180.726 72.4648L182.41 73.5438ZM186.045 67.0777L187.975 67.0025L187.897 65.004L185.967 65.0792L186.045 67.0777ZM186.937 66.0422L187.192 72.6032L189.191 72.5254L188.935 65.9644L186.937 66.0422ZM188.231 73.5636L189.532 73.5129L189.454 71.5144L188.153 71.5651L188.231 73.5636ZM188.493 72.5526L188.547 73.9375L190.546 73.8597L190.492 72.4748L188.493 72.5526ZM189.508 72.8994L188.207 72.95L188.284 74.9485L189.585 74.8979L189.508 72.8994ZM187.246 73.9882L187.329 76.1146L189.328 76.0368L189.245 73.9104L187.246 73.9882ZM188.289 75.0764L186.723 75.1374L186.8 77.1359L188.367 77.0749L188.289 75.0764ZM187.761 76.0978L187.678 73.9714L185.679 74.0492L185.762 76.1755L187.761 76.0978ZM186.64 73.011L181.576 73.2081L181.653 75.2066L186.718 75.0095L186.64 73.011ZM185.65 67.1613L182.541 72.2281L184.246 73.2741L187.355 68.2074L185.65 67.1613ZM183.432 73.7503L186.734 73.6218L186.656 71.6233L183.354 71.7519L183.432 73.7503ZM187.694 72.5837L187.502 67.6454L185.503 67.7232L185.696 72.6615L187.694 72.5837Z" fill="#FFD301"/>
</g>
<defs>
<filter id="filter0_d_92_30005" x="0.928711" y="141.03" width="257.549" height="115.22" filterUnits="userSpaceOnUse" color-interpolation-filters="sRGB">
<feFlood flood-opacity="0" result="BackgroundImageFix"/>
<feColorMatrix in="SourceAlpha" type="matrix" values="0 0 0 0 0 0 0 0 0 0 0 0 0 0 0 0 0 0 127 0" result="hardAlpha"/>
<feOffset dx="-10" dy="10"/>
<feGaussianBlur stdDeviation="5"/>
<feComposite in2="hardAlpha" operator="out"/>
<feColorMatrix type="matrix" values="0 0 0 0 0 0 0 0 0 0 0 0 0 0 0 0 0 0 0.25 0"/>
<feBlend mode="normal" in2="BackgroundImageFix" result="effect1_dropShadow_92_30005"/>
<feBlend mode="normal" in="SourceGraphic" in2="effect1_dropShadow_92_30005" result="shape"/>
</filter>
<filter id="filter1_d_92_30005" x="158.274" y="65.6448" width="32.3555" height="17.3904" filterUnits="userSpaceOnUse" color-interpolation-filters="sRGB">
<feFlood flood-opacity="0" result="BackgroundImageFix"/>
<feColorMatrix in="SourceAlpha" type="matrix" values="0 0 0 0 0 0 0 0 0 0 0 0 0 0 0 0 0 0 127 0" result="hardAlpha"/>
<feOffset dx="-2" dy="3"/>
<feGaussianBlur stdDeviation="1.5"/>
<feComposite in2="hardAlpha" operator="out"/>
<feColorMatrix type="matrix" values="0 0 0 0 0 0 0 0 0 0 0 0 0 0 0 0 0 0 0.25 0"/>
<feBlend mode="normal" in2="BackgroundImageFix" result="effect1_dropShadow_92_30005"/>
<feBlend mode="normal" in="SourceGraphic" in2="effect1_dropShadow_92_30005" result="shape"/>
</filter>
<radialGradient id="paint0_radial_92_30005" cx="0" cy="0" r="1" gradientUnits="userSpaceOnUse" gradientTransform="translate(139.003 225.779) rotate(-19.7906) scale(113.449 106.587)">
<stop offset="0.375" stop-color="white"/>
<stop offset="0.869792" stop-color="#FFD200"/>
</radialGradient>
</defs>
</svg>
