<svg width="260" height="271" viewBox="0 0 260 271" fill="none" xmlns="http://www.w3.org/2000/svg">
<g filter="url(#filter0_d_92_30005)">
<path d="M78.8952 155.417L36.0152 155.461L36.0415 180.933C37.831 178.542 40.4743 176.534 43.9713 174.909C47.5536 173.284 51.3501 172.47 55.3607 172.466C62.5287 172.458 68.333 173.988 72.7735 177.056C77.2993 180.123 80.5033 184.002 82.3855 188.694C84.353 193.385 85.3394 198.333 85.3448 203.539C85.3513 209.853 84.1197 215.487 81.6502 220.439C79.2659 225.305 75.6431 229.149 70.7821 231.97C66.0063 234.791 60.1197 236.205 53.1224 236.212C43.8211 236.221 36.352 233.925 30.7153 229.323C25.0786 224.721 21.7016 218.623 20.5845 211.029L34.7924 211.015C35.7352 215.024 37.8292 218.222 41.0743 220.608C44.3194 222.909 48.3739 224.057 53.2379 224.052C59.2965 224.046 63.8173 222.206 66.8002 218.534C69.8684 214.861 71.3994 209.996 71.3932 203.937C71.3868 197.793 69.846 193.101 66.7707 189.862C63.6952 186.537 59.1709 184.878 53.1975 184.884C49.0162 184.888 45.476 185.958 42.5768 188.095C39.763 190.146 37.7179 192.964 36.4415 196.549L22.6176 196.563L22.562 142.675L78.882 142.617L78.8952 155.417ZM100.519 188.291C100.504 173.528 102.967 162.006 107.907 153.723C112.934 145.356 121.548 141.165 133.751 141.153C145.953 141.14 154.534 145.313 159.491 153.67C164.535 161.942 167.064 173.46 167.079 188.222C167.094 203.156 164.589 214.849 159.563 223.302C154.622 231.67 146.051 235.86 133.848 235.873C121.645 235.885 113.022 231.713 107.979 223.355C103.021 214.912 100.534 203.224 100.519 188.291ZM152.743 188.237C152.736 181.325 152.261 175.48 151.317 170.703C150.459 165.925 148.663 162.044 145.929 159.06C143.195 155.991 139.14 154.459 133.764 154.465C128.388 154.47 124.337 156.011 121.609 159.085C118.881 162.075 117.051 165.959 116.117 170.739C115.269 175.519 114.848 181.364 114.855 188.276C114.862 195.444 115.295 201.46 116.154 206.323C117.012 211.186 118.808 215.11 121.542 218.093C124.361 221.077 128.458 222.566 133.834 222.561C139.21 222.555 143.262 221.058 145.99 218.068C148.803 215.079 150.633 211.151 151.482 206.287C152.33 201.422 152.75 195.405 152.743 188.237ZM182.519 188.207C182.504 173.444 184.967 161.921 189.907 153.639C194.933 145.271 203.548 141.081 215.751 141.068C227.953 141.056 236.533 145.228 241.491 153.586C246.535 161.858 249.064 173.375 249.079 188.138C249.094 203.071 246.589 214.765 241.563 223.218C236.622 231.586 228.051 235.776 215.848 235.788C203.645 235.801 195.022 231.628 189.979 223.271C185.021 214.828 182.534 203.14 182.519 188.207ZM234.743 188.153C234.736 181.241 234.261 175.396 233.317 170.618C232.459 165.84 230.663 161.96 227.929 158.976C225.195 155.907 221.14 154.375 215.764 154.38C210.388 154.386 206.336 155.926 203.609 159.001C200.881 161.99 199.051 165.875 198.117 170.655C197.269 175.434 196.848 181.28 196.855 188.192C196.862 195.36 197.295 201.375 198.154 206.238C199.012 211.102 200.808 215.025 203.542 218.009C206.361 220.993 210.458 222.482 215.834 222.476C221.21 222.471 225.262 220.973 227.99 217.984C230.803 214.994 232.633 211.067 233.482 206.202C234.33 201.337 234.75 195.321 234.743 188.153Z" fill="url(#paint0_radial_92_30005)"/>
<path d="M78.8952 155.417L78.8962 156.417L79.8962 156.416L79.8952 155.416L78.8952 155.417ZM36.0152 155.461L36.0142 154.461L35.0142 154.463L35.0152 155.463L36.0152 155.461ZM36.0415 180.933L35.0415 180.934L35.0446 183.934L36.8421 181.533L36.0415 180.933ZM43.9713 174.909L43.5581 173.999L43.5499 174.002L43.9713 174.909ZM72.7735 177.056L72.2051 177.878L72.2125 177.883L72.7735 177.056ZM82.3855 188.694L81.4574 189.066L81.4603 189.073L81.4633 189.08L82.3855 188.694ZM81.6502 220.439L80.7553 219.992L80.7522 219.999L81.6502 220.439ZM70.7821 231.97L70.2801 231.105L70.2735 231.109L70.7821 231.97ZM30.7153 229.323L31.3477 228.548L31.3477 228.548L30.7153 229.323ZM20.5845 211.029L20.5834 210.029L19.4267 210.031L19.5951 211.175L20.5845 211.029ZM34.7924 211.015L35.7659 210.786L35.5844 210.014L34.7914 210.015L34.7924 211.015ZM41.0743 220.608L40.482 221.414L40.4889 221.419L40.496 221.424L41.0743 220.608ZM66.8002 218.534L66.0327 217.893L66.024 217.903L66.8002 218.534ZM66.7707 189.862L66.0365 190.541L66.0454 190.55L66.7707 189.862ZM42.5768 188.095L43.1659 188.903L43.1701 188.9L42.5768 188.095ZM36.4415 196.549L36.4426 197.549L37.1473 197.548L37.3836 196.884L36.4415 196.549ZM22.6176 196.563L21.6176 196.564L21.6186 197.564L22.6186 197.563L22.6176 196.563ZM22.562 142.675L22.561 141.675L21.561 141.676L21.562 142.676L22.562 142.675ZM78.882 142.617L79.882 142.616L79.881 141.616L78.881 141.617L78.882 142.617ZM78.8942 154.417L36.0142 154.461L36.0163 156.461L78.8962 156.417L78.8942 154.417ZM35.0152 155.463L35.0415 180.934L37.0415 180.932L37.0152 155.46L35.0152 155.463ZM36.8421 181.533C38.5079 179.307 41.0032 177.391 44.3927 175.816L43.5499 174.002C39.9454 175.677 37.1541 177.778 35.2408 180.334L36.8421 181.533ZM44.3844 175.82C47.8347 174.255 51.4904 173.47 55.3618 173.466L55.3597 171.466C51.2098 171.47 47.2725 172.314 43.5582 173.999L44.3844 175.82ZM55.3618 173.466C62.3921 173.458 67.979 174.959 72.2051 177.878L73.3419 176.233C68.687 173.017 62.6653 171.458 55.3597 171.466L55.3618 173.466ZM72.2125 177.883C76.5874 180.848 79.6555 184.575 81.4574 189.066L83.3136 188.321C81.3511 183.43 78.0113 179.397 73.3345 176.228L72.2125 177.883ZM81.4633 189.08C83.3784 193.647 84.3395 198.464 84.3448 203.54L86.3448 203.538C86.3393 198.203 85.3276 193.123 83.3077 188.307L81.4633 189.08ZM84.3448 203.54C84.3511 209.721 83.1464 215.198 80.7553 219.992L82.5451 220.885C85.0931 215.776 86.3514 209.986 86.3448 203.538L84.3448 203.54ZM80.7522 219.999C78.4583 224.68 74.9768 228.379 70.2801 231.105L71.284 232.835C76.3095 229.918 80.0734 225.93 82.5482 220.878L80.7522 219.999ZM70.2735 231.109C65.6868 233.818 59.9862 235.205 53.1214 235.212L53.1234 237.212C60.2532 237.205 66.3258 235.763 71.2906 232.831L70.2735 231.109ZM53.1214 235.212C43.9855 235.221 36.7608 232.968 31.3477 228.548L30.0829 230.098C35.9433 234.882 43.6567 237.222 53.1234 237.212L53.1214 235.212ZM31.3477 228.548C25.9156 224.113 22.6568 218.245 21.5738 210.884L19.5951 211.175C20.7464 219.001 24.2415 225.328 30.0829 230.098L31.3477 228.548ZM20.5855 212.029L34.7935 212.015L34.7914 210.015L20.5834 210.029L20.5855 212.029ZM33.819 211.244C34.8149 215.479 37.0406 218.884 40.482 221.414L41.6667 219.803C38.6178 217.561 36.6556 214.57 35.7659 210.786L33.819 211.244ZM40.496 221.424C43.945 223.869 48.2143 225.057 53.2389 225.052L53.2369 223.052C48.5335 223.057 44.6937 221.949 41.6527 219.793L40.496 221.424ZM53.2389 225.052C59.5069 225.045 64.3529 223.133 67.5764 219.164L66.024 217.903C63.2818 221.279 59.0862 223.046 53.2369 223.052L53.2389 225.052ZM67.5676 219.175C70.8228 215.279 72.3996 210.165 72.3932 203.936L70.3932 203.938C70.3992 209.826 68.914 214.444 66.0328 217.893L67.5676 219.175ZM72.3932 203.936C72.3867 197.634 70.8046 192.659 67.4959 189.173L66.0454 190.55C68.8874 193.544 70.387 197.953 70.3932 203.938L72.3932 203.936ZM67.5048 189.183C64.1845 185.593 59.3555 183.877 53.1965 183.884L53.1986 185.884C58.9863 185.878 63.206 187.481 66.0366 190.541L67.5048 189.183ZM53.1965 183.884C48.8376 183.888 45.0809 185.007 41.9836 187.29L43.1701 188.9C45.871 186.909 49.1948 185.888 53.1986 185.884L53.1965 183.884ZM41.9878 187.287C38.9963 189.467 36.8367 192.457 35.4995 196.214L37.3836 196.884C38.599 193.47 40.5296 190.824 43.1658 188.903L41.9878 187.287ZM36.4405 195.549L22.6165 195.563L22.6186 197.563L36.4426 197.549L36.4405 195.549ZM23.6176 196.562L23.562 142.674L21.562 142.676L21.6176 196.564L23.6176 196.562ZM22.5631 143.675L78.883 143.617L78.881 141.617L22.561 141.675L22.5631 143.675ZM77.882 142.618L77.8952 155.418L79.8952 155.416L79.882 142.616L77.882 142.618ZM107.907 153.723L107.05 153.209L107.049 153.211L107.907 153.723ZM159.491 153.67L158.631 154.181L158.638 154.191L159.491 153.67ZM159.563 223.302L158.704 222.791L158.702 222.794L159.563 223.302ZM107.979 223.355L107.117 223.862L107.123 223.872L107.979 223.355ZM151.317 170.703L150.333 170.88L150.334 170.888L150.336 170.896L151.317 170.703ZM145.929 159.06L145.182 159.725L145.192 159.736L145.929 159.06ZM121.609 159.085L122.348 159.759L122.357 159.749L121.609 159.085ZM116.117 170.739L115.136 170.547L115.134 170.556L115.132 170.564L116.117 170.739ZM116.154 206.323L117.138 206.149L117.138 206.149L116.154 206.323ZM121.542 218.093L120.804 218.769L120.81 218.775L120.815 218.78L121.542 218.093ZM145.99 218.068L145.261 217.383L145.256 217.389L145.251 217.394L145.99 218.068ZM151.482 206.287L152.467 206.458L152.467 206.458L151.482 206.287ZM101.519 188.29C101.504 173.62 103.955 162.301 108.766 154.236L107.049 153.211C101.979 161.71 99.5038 173.437 99.5191 188.292L101.519 188.29ZM108.765 154.238C113.563 146.249 121.798 142.165 133.752 142.153L133.75 140.153C121.297 140.166 112.304 144.462 107.05 153.209L108.765 154.238ZM133.752 142.153C145.705 142.14 153.901 146.207 158.631 154.18L160.351 153.16C155.166 144.418 146.201 140.14 133.75 140.153L133.752 142.153ZM158.638 154.191C163.548 162.245 166.064 173.555 166.079 188.224L168.079 188.221C168.064 173.364 165.521 161.64 160.345 153.15L158.638 154.191ZM166.079 188.224C166.094 203.063 163.602 214.553 158.704 222.791L160.423 223.813C165.577 215.145 168.095 203.249 168.079 188.221L166.079 188.224ZM158.702 222.794C153.989 230.777 145.801 234.86 133.847 234.873L133.849 236.873C146.301 236.86 155.256 232.563 160.424 223.811L158.702 222.794ZM133.847 234.873C121.894 234.885 113.651 230.818 108.835 222.839L107.123 223.872C112.394 232.607 121.397 236.886 133.849 236.873L133.847 234.873ZM108.842 222.849C104.009 214.619 101.534 203.132 101.519 188.29L99.5191 188.292C99.5346 203.317 102.034 215.205 107.117 223.862L108.842 222.849ZM153.743 188.236C153.736 181.284 153.258 175.37 152.298 170.509L150.336 170.896C151.263 175.59 151.736 181.366 151.743 188.238L153.743 188.236ZM152.301 170.526C151.416 165.599 149.551 161.534 146.666 158.385L145.192 159.736C147.774 162.554 149.501 166.25 150.333 170.88L152.301 170.526ZM146.676 158.395C143.698 155.052 139.332 153.459 133.763 153.465L133.765 155.465C138.949 155.459 142.693 156.93 145.182 159.725L146.676 158.395ZM133.763 153.465C128.195 153.471 123.832 155.072 120.861 158.422L122.357 159.749C124.841 156.949 128.582 155.47 133.765 155.465L133.763 153.465ZM120.87 158.411C117.996 161.561 116.097 165.624 115.136 170.547L117.098 170.931C118.004 166.294 119.767 162.588 122.348 159.759L120.87 158.411ZM115.132 170.564C114.27 175.42 113.848 181.329 113.855 188.277L115.855 188.275C115.848 181.4 116.267 175.617 117.102 170.914L115.132 170.564ZM113.855 188.277C113.862 195.48 114.297 201.557 115.169 206.497L117.138 206.149C116.294 201.362 115.862 195.409 115.855 188.275L113.855 188.277ZM115.169 206.497C116.053 211.506 117.916 215.617 120.804 218.769L122.279 217.418C119.7 214.602 117.971 210.866 117.138 206.149L115.169 206.497ZM120.815 218.78C123.877 222.021 128.274 223.566 133.835 223.561L133.833 221.561C128.643 221.566 124.845 220.133 122.269 217.407L120.815 218.78ZM133.835 223.561C139.395 223.555 143.755 222.001 146.728 218.742L145.251 217.394C142.769 220.114 139.025 221.555 133.833 221.561L133.835 223.561ZM146.718 218.753C149.69 215.595 151.592 211.476 152.467 206.458L150.497 206.115C149.675 210.827 147.915 214.562 145.261 217.383L146.718 218.753ZM152.467 206.458C153.328 201.517 153.75 195.439 153.743 188.236L151.743 188.238C151.75 195.372 151.332 201.326 150.497 206.115L152.467 206.458ZM189.907 153.639L189.05 153.124L189.049 153.127L189.907 153.639ZM241.491 153.586L240.631 154.096L240.638 154.106L241.491 153.586ZM241.563 223.218L240.704 222.707L240.702 222.709L241.563 223.218ZM189.979 223.271L189.117 223.777L189.123 223.788L189.979 223.271ZM233.317 170.618L232.333 170.795L232.334 170.804L232.336 170.812L233.317 170.618ZM227.929 158.976L227.182 159.641L227.192 159.651L227.929 158.976ZM203.609 159.001L204.348 159.675L204.357 159.664L203.609 159.001ZM198.117 170.655L197.136 170.463L197.134 170.471L197.132 170.48L198.117 170.655ZM198.154 206.238L199.138 206.065L199.138 206.065L198.154 206.238ZM203.542 218.009L202.804 218.684L202.81 218.69L202.815 218.696L203.542 218.009ZM227.99 217.984L227.261 217.299L227.256 217.304L227.251 217.31L227.99 217.984ZM233.482 206.202L234.467 206.374L234.467 206.374L233.482 206.202ZM183.519 188.206C183.504 173.535 185.955 162.217 190.766 154.151L189.049 153.127C183.979 161.626 181.504 173.353 181.519 188.208L183.519 188.206ZM190.765 154.154C195.563 146.164 203.798 142.081 215.752 142.068L215.749 140.068C203.297 140.081 194.304 144.378 189.05 153.124L190.765 154.154ZM215.752 142.068C227.705 142.056 235.901 146.123 240.631 154.096L242.351 153.076C237.166 144.334 228.201 140.056 215.749 140.068L215.752 142.068ZM240.638 154.106C245.548 162.16 248.064 173.471 248.079 188.139L250.079 188.137C250.064 173.28 247.521 161.555 242.345 153.065L240.638 154.106ZM248.079 188.139C248.094 202.978 245.602 214.469 240.704 222.707L242.423 223.729C247.577 215.06 250.094 203.164 250.079 188.137L248.079 188.139ZM240.702 222.709C235.988 230.692 227.801 234.776 215.847 234.788L215.849 236.788C228.301 236.775 237.256 232.479 242.424 223.726L240.702 222.709ZM215.847 234.788C203.894 234.801 195.651 230.734 190.835 222.754L189.123 223.788C194.394 232.523 203.397 236.801 215.849 236.788L215.847 234.788ZM190.841 222.765C186.009 214.535 183.534 203.047 183.519 188.206L181.519 188.208C181.535 203.233 184.034 215.121 189.117 223.777L190.841 222.765ZM235.743 188.152C235.736 181.2 235.258 175.286 234.298 170.424L232.336 170.812C233.263 175.506 233.736 181.282 233.743 188.154L235.743 188.152ZM234.301 170.441C233.416 165.515 231.551 161.449 228.666 158.3L227.192 159.651C229.774 162.47 231.501 166.166 232.333 170.795L234.301 170.441ZM228.676 158.311C225.698 154.967 221.332 153.375 215.763 153.38L215.765 155.38C220.949 155.375 224.693 156.846 227.182 159.641L228.676 158.311ZM215.763 153.38C210.195 153.386 205.832 154.988 202.861 158.337L204.357 159.664C206.841 156.864 210.582 155.386 215.765 155.38L215.763 153.38ZM202.87 158.327C199.996 161.477 198.097 165.54 197.136 170.463L199.098 170.846C200.004 166.21 201.767 162.504 204.348 159.675L202.87 158.327ZM197.132 170.48C196.27 175.336 195.848 181.244 195.855 188.193L197.855 188.191C197.848 181.315 198.267 175.532 199.102 170.829L197.132 170.48ZM195.855 188.193C195.862 195.395 196.297 201.473 197.169 206.412L199.138 206.065C198.294 201.278 197.862 195.324 197.855 188.191L195.855 188.193ZM197.169 206.412C198.053 211.421 199.916 215.532 202.804 218.684L204.279 217.333C201.7 214.518 199.971 210.782 199.138 206.065L197.169 206.412ZM202.815 218.696C205.877 221.937 210.273 223.482 215.835 223.476L215.833 221.476C210.643 221.482 206.845 220.049 204.269 217.322L202.815 218.696ZM215.835 223.476C221.395 223.471 225.755 221.917 228.728 218.658L227.251 217.31C224.769 220.03 221.025 221.471 215.833 221.476L215.835 223.476ZM228.718 218.669C231.69 215.51 233.592 211.392 234.467 206.374L232.496 206.03C231.675 210.742 229.915 214.478 227.261 217.299L228.718 218.669ZM234.467 206.374C235.328 201.433 235.75 195.354 235.743 188.152L233.743 188.154C233.75 195.287 233.331 201.242 232.496 206.03L234.467 206.374Z" fill="#B893DA"/>
</g>
<path d="M85.0209 241.707C84.956 241.707 84.8931 241.684 84.8428 241.643C84.7925 241.602 84.7579 241.545 84.7449 241.481C80.8418 222.94 62.2556 214.785 62.0641 214.7C61.9982 214.669 61.9469 214.614 61.9209 214.546C61.8949 214.478 61.8963 214.403 61.9247 214.336C61.9531 214.269 62.0064 214.215 62.0733 214.186C62.1402 214.158 62.2157 214.156 62.2837 214.182C62.4752 214.261 81.3262 222.529 85.2913 241.363C85.2987 241.399 85.2988 241.437 85.2918 241.473C85.2848 241.509 85.2707 241.544 85.2503 241.575C85.2299 241.606 85.2036 241.632 85.1729 241.653C85.1423 241.674 85.1078 241.688 85.0716 241.695H85.0153L85.0209 241.707Z" fill="#7126B5" fill-opacity="0.54"/>
<path d="M66.722 216.925C66.722 216.925 65.0718 214.368 65.528 212.211C65.9842 210.054 69.831 212.425 66.722 216.925Z" fill="#7126B5"/>
<path d="M70.5408 219.583C70.5408 219.583 68.6315 215.303 70.507 212.887C72.3825 210.47 73.9089 216.587 70.5408 219.583Z" fill="#7126B5"/>
<path d="M75.3899 223.892C75.3899 223.892 73.6157 220.169 74.6239 216.677C75.6321 213.185 79.9745 216.97 75.3899 223.892Z" fill="#7126B5"/>
<path d="M64.0017 215.348C64.0017 215.348 62.7683 213.242 60.8252 213.259C58.8821 213.276 60.5436 216.159 64.0017 215.348Z" fill="#7126B5"/>
<path d="M68.1302 217.849C68.1302 217.849 64.7509 216.722 63.2133 217.455C61.6757 218.187 64.7509 220.49 68.1302 217.849Z" fill="#7126B5"/>
<path d="M71.7515 220.547C71.7515 220.547 67.6118 219.539 66.4178 221.555C65.2238 223.571 69.707 224.202 71.7515 220.547Z" fill="#7126B5"/>
<path d="M76.3418 224.9C76.3418 224.9 71.7234 223.808 70.4731 226.201C69.2227 228.595 74.455 229.265 76.3418 224.9Z" fill="#7126B5"/>
<path d="M78.2567 227.164C78.2567 227.164 78.1779 222.422 80.228 220.349C82.2781 218.277 84.4409 224.32 78.2567 227.164Z" fill="#7126B5"/>
<path d="M79.2594 228.494C79.2594 228.494 74.9508 228.803 74.9846 231.282C75.0184 233.76 78.1217 233.084 79.2594 228.494Z" fill="#7126B5"/>
<path d="M81.1294 231.366C81.3339 229.757 81.8362 228.201 82.6107 226.776C83.8103 224.529 87.6627 228.313 81.1294 231.366Z" fill="#7126B5"/>
<path d="M81.7376 232.492C81.7376 232.492 78.668 233.084 78.4934 234.954C78.3188 236.824 81.4165 235.872 81.7376 232.492Z" fill="#7126B5"/>
<path d="M82.2559 233.416C82.2559 233.416 84.2778 230.876 85.4493 231.659C86.6208 232.442 84.5087 234.605 82.2559 233.416Z" fill="#7126B5"/>
<path d="M184.458 239.91C184.458 239.91 166.057 222.687 174.826 200.89C176.957 205.034 179.334 209.046 181.946 212.904C186.525 219.764 188.777 228.302 184.458 239.91Z" fill="#7126B5" fill-opacity="0.54"/>
<path d="M183.951 237.826C183.9 237.826 183.85 237.813 183.807 237.787C183.763 237.761 183.727 237.724 183.703 237.68C176.381 224.337 174.601 204.422 174.584 204.219C174.581 204.182 174.586 204.145 174.597 204.109C174.608 204.074 174.627 204.041 174.651 204.013C174.675 203.985 174.704 203.961 174.737 203.944C174.77 203.928 174.807 203.917 174.844 203.915C174.918 203.91 174.991 203.934 175.048 203.983C175.105 204.031 175.141 204.1 175.148 204.174C175.148 204.371 176.911 224.174 184.199 237.404C184.224 237.447 184.237 237.496 184.236 237.545C184.236 237.595 184.223 237.644 184.198 237.687C184.172 237.73 184.136 237.765 184.093 237.79C184.05 237.814 184.001 237.827 183.951 237.826Z" fill="#7126B5"/>
<path d="M184.458 239.91C184.458 239.91 186.311 216.694 206.93 213.856C204.722 217.624 202.98 221.647 201.743 225.835C199.771 232.622 194.708 239.91 184.458 239.91Z" fill="#7126B5" fill-opacity="0.54"/>
<path d="M185.854 238.688H185.77C185.699 238.665 185.64 238.614 185.606 238.548C185.572 238.481 185.566 238.404 185.59 238.333C190.016 224.647 204.35 215.41 204.497 215.314C204.559 215.279 204.633 215.268 204.703 215.285C204.773 215.303 204.834 215.346 204.873 215.407C204.912 215.467 204.926 215.541 204.913 215.611C204.9 215.682 204.859 215.745 204.801 215.787C204.66 215.878 190.49 225.013 186.125 238.502C186.105 238.557 186.068 238.605 186.019 238.638C185.971 238.672 185.913 238.689 185.854 238.688Z" fill="#7126B5"/>
<path d="M184.458 239.91C184.458 239.91 179.642 229.772 182.233 216.075C184.824 202.377 200.256 193.726 200.256 193.726C200.256 193.726 199.27 198.046 199.512 205.83C199.755 213.613 198.409 230.031 184.458 239.91Z" fill="#7126B5"/>
<path d="M184.582 238.091C184.509 238.091 184.439 238.063 184.386 238.012C184.334 237.962 184.303 237.893 184.3 237.821C183.32 214.396 196.944 197.663 197.085 197.494C197.133 197.437 197.202 197.4 197.276 197.394C197.35 197.387 197.425 197.41 197.482 197.457C197.54 197.505 197.576 197.574 197.583 197.648C197.59 197.723 197.567 197.797 197.519 197.855C197.384 198.018 183.894 214.593 184.863 237.798C184.865 237.835 184.859 237.872 184.846 237.907C184.833 237.941 184.814 237.973 184.789 238.001C184.764 238.028 184.733 238.05 184.7 238.065C184.666 238.081 184.63 238.089 184.593 238.091H184.582Z" fill="#7126B5" fill-opacity="0.54"/>
<path d="M204.891 240.192H175.694C175.619 240.192 175.547 240.162 175.495 240.109C175.442 240.057 175.412 239.985 175.412 239.91C175.412 239.836 175.442 239.764 175.495 239.711C175.547 239.658 175.619 239.629 175.694 239.629H204.891C204.966 239.629 205.037 239.658 205.09 239.711C205.143 239.764 205.173 239.836 205.173 239.91C205.173 239.985 205.143 240.057 205.09 240.109C205.037 240.162 204.966 240.192 204.891 240.192Z" fill="#7126B5"/>
<path d="M124.21 240.192H95.0126C94.9379 240.192 94.8663 240.162 94.8134 240.109C94.7606 240.057 94.731 239.985 94.731 239.91C94.731 239.836 94.7606 239.764 94.8134 239.711C94.8663 239.658 94.9379 239.629 95.0126 239.629H124.21C124.285 239.629 124.356 239.658 124.409 239.711C124.462 239.764 124.491 239.836 124.491 239.91C124.491 239.985 124.462 240.057 124.409 240.109C124.356 240.162 124.285 240.192 124.21 240.192Z" fill="#7126B5"/>
<path d="M186.536 241.741H140.983C140.908 241.741 140.836 241.711 140.784 241.658C140.731 241.605 140.701 241.534 140.701 241.459C140.701 241.384 140.731 241.313 140.784 241.26C140.836 241.207 140.908 241.177 140.983 241.177H186.536C186.611 241.177 186.682 241.207 186.735 241.26C186.788 241.313 186.818 241.384 186.818 241.459C186.818 241.534 186.788 241.605 186.735 241.658C186.682 241.711 186.611 241.741 186.536 241.741Z" fill="#7126B5"/>
<path d="M92.7371 241.741H80.9095C80.8349 241.741 80.7632 241.711 80.7104 241.658C80.6576 241.605 80.6279 241.534 80.6279 241.459C80.6279 241.384 80.6576 241.313 80.7104 241.26C80.7632 241.207 80.8349 241.177 80.9095 241.177H92.7371C92.8118 241.177 92.8835 241.207 92.9363 241.26C92.9891 241.313 93.0188 241.384 93.0188 241.459C93.0188 241.534 92.9891 241.605 92.9363 241.658C92.8835 241.711 92.8118 241.741 92.7371 241.741Z" fill="#7126B5"/>
<path d="M148.716 216.373L149.561 223.34H154.28L154.348 216.159L148.716 216.373Z" fill="#FFD200"/>
<path d="M174.837 237.629H146.04C146.04 237.629 145.984 236.041 146.164 233.619C146.416 229.562 147.227 225.559 148.575 221.724H154.911C157.376 224.791 160.795 226.946 164.626 227.846C169.752 229.113 173.108 229.778 174.325 233.619C174.699 234.922 174.872 236.274 174.837 237.629Z" fill="#7126B5"/>
<path d="M174.837 237.629H146.04C146.04 237.629 145.984 236.041 146.164 233.619H174.325C174.699 234.922 174.872 236.274 174.837 237.629Z" fill="#7126B5" fill-opacity="0.54"/>
<path d="M158.476 217.663C154.512 218.381 150.464 218.506 146.463 218.035C146.463 218.035 141.36 175.044 136.426 146.596C135.959 143.909 135.497 141.352 135.035 138.97C134.844 137.945 134.656 136.954 134.472 135.996V114.526C134.452 111.887 134.936 109.268 135.897 106.81C137.401 103.054 140.436 98.8237 146.485 98.8237C154.111 98.8237 156.944 105.999 157.964 110.302C158.325 111.838 158.514 113.41 158.527 114.988C158.566 125.684 158.994 189.998 158.476 217.663Z" fill="#D0D0D0"/>
<path d="M138.51 135.782L136.426 146.596C135.959 143.909 135.497 141.352 135.035 138.97C136.325 138.029 138.015 137.258 138.51 135.782Z" fill="#7126B5"/>
<path d="M156.815 128.117C156.785 128.122 156.754 128.122 156.725 128.117C152.174 126.309 152.81 118.891 152.844 118.576C152.851 118.512 152.883 118.454 152.932 118.413C152.981 118.372 153.045 118.351 153.109 118.356C153.141 118.359 153.172 118.368 153.2 118.383C153.228 118.398 153.253 118.418 153.274 118.443C153.294 118.467 153.309 118.496 153.319 118.526C153.328 118.557 153.331 118.589 153.328 118.621C153.328 118.694 152.692 125.993 156.91 127.666C156.955 127.692 156.99 127.731 157.011 127.777C157.031 127.824 157.037 127.876 157.026 127.926C157.016 127.976 156.989 128.022 156.951 128.056C156.913 128.09 156.866 128.111 156.815 128.117Z" fill="#FFD200"/>
<path d="M149.465 216.024C149.403 216.024 149.344 216.001 149.299 215.959C149.254 215.917 149.227 215.86 149.223 215.799C147.533 193.912 138.161 136.903 138.065 136.334C138.055 136.271 138.07 136.206 138.107 136.153C138.145 136.101 138.202 136.066 138.265 136.055C138.329 136.045 138.394 136.06 138.446 136.097C138.498 136.135 138.534 136.192 138.544 136.255C138.64 136.818 148.034 193.856 149.707 215.765C149.709 215.797 149.705 215.829 149.695 215.859C149.685 215.889 149.669 215.917 149.648 215.941C149.627 215.965 149.602 215.985 149.573 215.999C149.545 216.013 149.514 216.022 149.482 216.024H149.465Z" fill="#FFD200"/>
<path d="M135.576 138.863C135.526 138.862 135.478 138.846 135.438 138.818C135.398 138.789 135.367 138.748 135.351 138.702C135.334 138.655 135.332 138.605 135.345 138.557C135.359 138.509 135.386 138.467 135.424 138.435L137.57 136.706C137.944 136.405 138.251 136.028 138.469 135.599C138.687 135.171 138.813 134.702 138.837 134.222C139.13 128.41 139.276 111.75 139.282 111.586C139.282 111.522 139.307 111.46 139.353 111.415C139.398 111.37 139.46 111.344 139.524 111.344C139.587 111.345 139.648 111.372 139.692 111.417C139.736 111.462 139.761 111.523 139.761 111.586C139.761 111.755 139.609 128.421 139.316 134.244C139.285 134.789 139.14 135.321 138.891 135.806C138.641 136.291 138.293 136.719 137.868 137.061L135.722 138.79C135.684 138.831 135.632 138.857 135.576 138.863Z" fill="#FFD200"/>
<path d="M108.969 216.373L108.834 223.34H113.554L114.63 216.159L108.969 216.373Z" fill="#FFD200"/>
<path d="M118.713 229.677C115.407 226.652 114.54 221.724 114.54 221.724H108.203C106.615 226.004 105.044 230.504 104.824 233.619C104.644 236.041 104.7 237.629 104.7 237.629H122.081C122.042 233.749 121.681 232.386 118.713 229.677Z" fill="#7126B5"/>
<path d="M104.824 233.619C104.644 236.041 104.7 237.629 104.7 237.629H122.081C122.131 236.278 121.981 234.926 121.636 233.619H104.824Z" fill="#7126B5" fill-opacity="0.54"/>
<path d="M135.576 112.949V138.621L116.612 218.294C116.612 218.294 110.98 219.747 107.038 216.863C107.038 216.863 111.448 127.903 111.825 114.216C112.247 98.8236 133.695 89.9979 135.576 112.949Z" fill="#D0D0D0"/>
<path d="M135.576 138.863C135.511 138.863 135.45 138.837 135.404 138.792C135.359 138.747 135.333 138.685 135.333 138.621V116.013C135.333 115.949 135.359 115.887 135.404 115.842C135.45 115.797 135.511 115.771 135.576 115.771C135.64 115.771 135.702 115.797 135.747 115.842C135.792 115.887 135.818 115.949 135.818 116.013V138.626C135.816 138.69 135.79 138.75 135.745 138.794C135.7 138.838 135.639 138.863 135.576 138.863Z" fill="#FFD200"/>
<path d="M115.795 128.117C115.731 128.117 115.67 128.091 115.624 128.046C115.579 128.001 115.553 127.939 115.553 127.875C115.553 127.81 115.579 127.749 115.624 127.703C115.67 127.658 115.731 127.632 115.795 127.632C118.612 127.632 120.205 124.507 120.504 118.334C120.505 118.302 120.513 118.271 120.527 118.242C120.54 118.213 120.559 118.187 120.583 118.166C120.606 118.144 120.634 118.128 120.664 118.117C120.694 118.106 120.726 118.101 120.757 118.103C120.789 118.104 120.82 118.112 120.849 118.126C120.878 118.139 120.904 118.158 120.925 118.182C120.947 118.205 120.963 118.233 120.974 118.263C120.985 118.293 120.99 118.324 120.988 118.356C120.667 124.833 118.921 128.117 115.795 128.117Z" fill="#FFD200"/>
<path d="M109.476 216.024C109.444 216.022 109.413 216.013 109.384 215.999C109.356 215.985 109.33 215.965 109.309 215.941C109.289 215.917 109.273 215.889 109.262 215.859C109.252 215.829 109.248 215.797 109.251 215.765L116.291 117.765C116.292 117.733 116.3 117.701 116.314 117.672C116.328 117.643 116.348 117.617 116.372 117.596C116.396 117.575 116.425 117.559 116.455 117.55C116.486 117.54 116.518 117.536 116.55 117.539C116.582 117.542 116.613 117.55 116.641 117.564C116.67 117.578 116.696 117.598 116.716 117.622C116.737 117.646 116.753 117.674 116.763 117.704C116.774 117.735 116.778 117.767 116.775 117.799L109.735 215.799C109.733 215.831 109.724 215.862 109.71 215.89C109.696 215.919 109.676 215.944 109.652 215.965C109.628 215.986 109.6 216.002 109.57 216.012C109.54 216.022 109.508 216.026 109.476 216.024Z" fill="#FFD200"/>
<path d="M156.815 41.1387C156.815 41.1387 173.148 63.5266 176.691 75.9175C180.234 88.3083 167.02 90.5612 157.727 74.9318C148.434 59.3025 144.914 50.995 144.914 50.995L156.815 41.1387Z" fill="#7126B5" fill-opacity="0.54"/>
<path d="M162.047 115.72C131.351 121.257 108.445 115.72 108.445 115.72C109.572 103.51 110.552 89.446 111.261 76.9256C112.056 63.3633 112.585 51.6145 112.827 45.9485C112.923 43.6957 112.974 42.3834 112.974 42.3834C112.974 42.3834 120.673 33.9351 134.427 33.3719C142.593 33.0311 150.585 35.7984 156.792 41.1161C162.374 73.6646 162.047 115.72 162.047 115.72Z" fill="#7126B5" fill-opacity="0.54"/>
<path d="M160.853 78.362C160.781 78.3622 160.712 78.3348 160.659 78.2856C160.607 78.2364 160.575 78.169 160.571 78.0973C159.709 64.6589 158.437 52.7524 156.786 42.6764C156.774 42.6018 156.793 42.5254 156.837 42.4641C156.881 42.4029 156.948 42.3617 157.023 42.3498C157.098 42.3378 157.174 42.356 157.235 42.4004C157.296 42.4448 157.338 42.5116 157.35 42.5863C159.005 52.668 160.278 64.6026 161.14 78.0692C161.142 78.1062 161.137 78.1432 161.125 78.1783C161.113 78.2133 161.094 78.2456 161.07 78.2734C161.045 78.3011 161.015 78.3237 160.982 78.3399C160.948 78.3561 160.912 78.3655 160.875 78.3677L160.853 78.362Z" fill="#7126B5"/>
<path d="M138.307 116.937C138.27 116.934 138.234 116.924 138.201 116.907C138.168 116.89 138.139 116.867 138.115 116.839C138.091 116.81 138.072 116.778 138.061 116.742C138.05 116.707 138.045 116.67 138.048 116.633C139.41 99.9591 139.155 83.1928 137.288 66.5681C137.283 66.5312 137.286 66.4936 137.295 66.4576C137.305 66.4216 137.322 66.3878 137.345 66.3583C137.367 66.3287 137.396 66.304 137.428 66.2854C137.46 66.2668 137.496 66.2547 137.533 66.2499C137.57 66.2451 137.608 66.2476 137.644 66.2574C137.68 66.2671 137.713 66.2838 137.743 66.3065C137.772 66.3293 137.797 66.3576 137.816 66.3899C137.834 66.4223 137.846 66.4579 137.851 66.4949C139.712 83.1599 139.955 99.9659 138.578 116.678C138.572 116.747 138.542 116.811 138.492 116.859C138.442 116.907 138.376 116.934 138.307 116.937Z" fill="#7126B5"/>
<path d="M114.359 113.186C114.285 113.179 114.217 113.143 114.17 113.086C114.122 113.029 114.099 112.956 114.106 112.882C115.958 92.1101 115.333 66.6076 115.322 66.3541C115.322 66.2794 115.352 66.2078 115.405 66.155C115.457 66.1022 115.529 66.0725 115.604 66.0725C115.678 66.0725 115.75 66.1022 115.803 66.155C115.856 66.2078 115.885 66.2794 115.885 66.3541C115.885 66.6076 116.522 92.1439 114.663 112.944C114.653 113.015 114.616 113.081 114.56 113.126C114.503 113.171 114.431 113.192 114.359 113.186Z" fill="#7126B5"/>
<path d="M118.488 63.7857C118.488 63.7857 118.775 72.4536 111.284 76.9256C112.078 63.3632 112.608 51.6145 112.85 45.9485C115.751 47.1932 119.552 51.1357 118.488 63.7857Z" fill="#7126B5"/>
<path d="M132.664 28.9843C121.445 30.2065 117.08 43.1606 117.08 43.1606C117.08 43.1606 129.065 49.6432 137.716 67.9422C137.716 67.9422 144.21 45.8809 150.405 34.7123C147.912 33.981 145.467 33.0951 143.083 32.0595C139.423 30.4374 136.325 28.607 132.664 28.9843Z" fill="#7126B5" fill-opacity="0.54"/>
<path d="M137.716 68.2239C137.662 68.2235 137.61 68.208 137.565 68.1791C137.521 68.1501 137.485 68.1091 137.462 68.0606C128.952 50.0376 117.068 43.4705 116.95 43.4029C116.891 43.3716 116.845 43.3205 116.82 43.2587C116.796 43.1968 116.794 43.1281 116.815 43.0649C117.409 41.4411 118.163 39.8808 119.068 38.4071C119.087 38.3753 119.112 38.3476 119.142 38.3256C119.172 38.3036 119.206 38.2876 119.242 38.2787C119.278 38.2699 119.316 38.2682 119.352 38.2738C119.389 38.2794 119.424 38.2921 119.456 38.3114C119.488 38.3306 119.516 38.3559 119.538 38.3858C119.56 38.4158 119.576 38.4498 119.585 38.4858C119.594 38.5219 119.595 38.5594 119.59 38.5962C119.584 38.6329 119.571 38.6682 119.552 38.7C118.715 40.0773 118.002 41.5268 117.423 43.0311C119.051 43.9942 129.718 50.7867 137.654 67.1595C138.735 63.5887 143.816 47.1652 148.918 36.8864C148.955 36.8255 149.013 36.7807 149.082 36.761C149.15 36.7413 149.223 36.7482 149.287 36.7803C149.35 36.8124 149.399 36.8673 149.424 36.934C149.448 37.0007 149.447 37.0742 149.42 37.1399C143.725 48.6239 138.043 67.8297 138.014 68.0325C137.999 68.0874 137.966 68.1363 137.922 68.1725C137.878 68.2087 137.824 68.2306 137.767 68.2352L137.716 68.2239Z" fill="#7126B5"/>
<path d="M137.547 63.904C137.547 63.904 128.535 49.784 127.026 44.1913C126.987 44.0392 126.947 43.8984 126.919 43.7632C125.793 38.5028 126.581 31.9356 132.619 31.4625C135.48 31.2316 140.69 33.3887 141.489 40.474C141.537 40.8854 141.563 41.299 141.568 41.7131C141.782 49.2997 137.547 63.904 137.547 63.904Z" fill="#D0D0D0"/>
<path d="M141.568 41.7187C139.231 40.5332 136.647 39.9157 134.027 39.9164C130.084 41.1104 127.95 43.1211 127.026 44.1969C126.987 44.0448 126.947 43.904 126.919 43.7688C125.793 38.5084 126.581 31.9412 132.619 31.4681C135.48 31.2372 140.69 33.3943 141.489 40.4796C141.537 40.891 141.563 41.3046 141.568 41.7187Z" fill="white"/>
<path d="M137.31 61.2345C137.253 61.2337 137.197 61.2123 137.154 61.174C137.11 61.1358 137.082 61.0833 137.074 61.0261L134.489 41.6401C134.482 41.6073 134.482 41.5735 134.488 41.5407C134.495 41.5079 134.509 41.4769 134.528 41.4495C134.547 41.4222 134.572 41.3991 134.601 41.3819C134.629 41.3646 134.661 41.3535 134.694 41.3492C134.728 41.3449 134.761 41.3475 134.794 41.3569C134.826 41.3663 134.856 41.3823 134.881 41.4038C134.907 41.4253 134.928 41.4519 134.943 41.4819C134.957 41.5119 134.966 41.5447 134.968 41.5781L137.553 60.9641C137.561 61.0276 137.543 61.0916 137.504 61.1423C137.465 61.1929 137.408 61.2261 137.344 61.2345H137.31Z" fill="#FFD200"/>
<path d="M141.594 49L135 51.423C135 51.423 140.729 87.1253 144 95C148.5 101.5 156 101 156 101H171.5L184.5 100.5L190.5 98L193.5 95.5L195 93.5001L141.594 49Z" fill="#FFD200"/>
<path d="M193.321 47.4953C193.687 47.5341 193.979 47.5668 194.191 47.5913C194.208 47.8608 194.233 48.2562 194.265 48.7618C194.328 49.7758 194.418 51.2326 194.521 53.0033C194.728 56.5448 194.991 61.3412 195.216 66.3612C195.442 71.382 195.63 76.6232 195.686 81.0556C195.742 85.5062 195.665 89.0923 195.373 90.8345C195.113 92.3865 193.844 93.5937 191.884 94.5222C189.937 95.4447 187.423 96.0343 184.909 96.4058C182.401 96.7762 179.927 96.9251 178.076 96.9811C177.151 97.0091 176.384 97.0138 175.849 97.0116C175.582 97.0104 175.372 97.0076 175.23 97.005C175.159 97.0037 175.105 97.0025 175.069 97.0016L175.028 97.0006L175.018 97.0003L175.016 97.0002L175.015 97.0002L174.984 96.9993L174.952 97.0023L175 97.5C174.952 97.0023 174.952 97.0023 174.952 97.0023L174.951 97.0024L174.949 97.0026L174.936 97.0038L174.886 97.0084C174.842 97.0125 174.775 97.0184 174.689 97.0259C174.515 97.0409 174.259 97.062 173.932 97.0866C173.278 97.1359 172.338 97.199 171.199 97.2542C168.921 97.3645 165.851 97.4428 162.677 97.3157C159.498 97.1883 156.239 96.8557 153.573 96.1531C150.871 95.4411 148.932 94.388 148.179 92.9385C147.778 92.1666 147.365 90.9083 146.952 89.2615C146.543 87.6247 146.142 85.6379 145.757 83.4307C144.985 79.0168 144.278 73.7447 143.676 68.6727C143.075 63.6018 142.582 58.7368 142.238 55.1391C142.066 53.3403 141.932 51.8587 141.841 50.8269C141.796 50.318 141.761 49.9185 141.738 49.6444C153.855 46.8583 166.986 46.3446 177.142 46.5356C182.275 46.6321 186.643 46.9086 189.726 47.1608C191.267 47.2869 192.487 47.4069 193.321 47.4953Z" fill="#A178C6" stroke="#D0D0D0"/>
<path d="M186.711 30.0152L180.521 34.5998L174.331 30.0152V20.8629L180.521 16.2783L186.711 20.8629V30.0152Z" fill="#7126B5" fill-opacity="0.54"/>
<path d="M210.298 68.6351L205.984 71.8229L201.664 68.6351V62.2481L205.984 59.0547L210.298 62.2481V68.6351Z" fill="#7126B5"/>
<path d="M215.885 59.3363L213.091 61.4033L210.298 59.3363V55.2079L213.091 53.1409L215.885 55.2079V59.3363Z" fill="#7126B5" fill-opacity="0.54"/>
<path d="M198.882 116.024L194.657 119.145L190.439 116.024V109.778L194.657 106.658L198.882 109.778V116.024Z" fill="#7126B5" fill-opacity="0.54"/>
<path d="M112.247 113.231C108.404 113.231 104.647 114.37 101.452 116.505C98.2563 118.641 95.7657 121.675 94.295 125.226C92.8243 128.776 92.4395 132.683 93.1893 136.453C93.939 140.222 95.7897 143.684 98.5072 146.402C101.225 149.119 104.687 150.97 108.456 151.719C112.225 152.469 116.132 152.084 119.683 150.614C123.234 149.143 126.268 146.653 128.403 143.457C130.538 140.262 131.678 136.505 131.678 132.662C131.678 127.508 129.631 122.566 125.987 118.922C122.343 115.278 117.4 113.231 112.247 113.231ZM112.247 146.883C109.434 146.883 106.685 146.049 104.346 144.486C102.007 142.924 100.185 140.703 99.1082 138.104C98.0319 135.505 97.7502 132.646 98.299 129.887C98.8477 127.129 100.202 124.595 102.191 122.606C104.18 120.617 106.714 119.262 109.473 118.714C112.231 118.165 115.091 118.447 117.689 119.523C120.288 120.599 122.509 122.422 124.072 124.761C125.634 127.1 126.468 129.849 126.468 132.662C126.469 134.53 126.102 136.379 125.387 138.105C124.673 139.831 123.625 141.399 122.305 142.719C120.984 144.04 119.416 145.088 117.69 145.802C115.964 146.516 114.115 146.884 112.247 146.883Z" fill="#7126B5"/>
<path d="M114.95 150.826H109.549C108.992 150.826 108.541 151.277 108.541 151.834V240.896C108.541 241.453 108.992 241.904 109.549 241.904H114.95C115.507 241.904 115.959 241.453 115.959 240.896V151.834C115.959 151.277 115.507 150.826 114.95 150.826Z" fill="#7126B5" fill-opacity="0.54"/>
<path d="M104.013 218.598H108.541V237.961H104.013V218.598Z" fill="#7126B5"/>
<path d="M104.013 218.249V238.316C104.015 238.586 103.964 238.854 103.862 239.104C103.76 239.354 103.61 239.581 103.42 239.773C103.23 239.964 103.004 240.117 102.755 240.22C102.505 240.324 102.238 240.378 101.968 240.378H93.8015C93.2608 240.378 92.7422 240.163 92.3599 239.78C91.9775 239.398 91.7627 238.88 91.7627 238.339V235.235H97.9919C98.2996 235.235 98.5947 235.113 98.8123 234.896C99.0299 234.678 99.1521 234.383 99.1521 234.075V231.822C99.1521 231.515 99.0299 231.22 98.8123 231.002C98.5947 230.784 98.2996 230.662 97.9919 230.662H91.7627V225.942H97.9919C98.2996 225.942 98.5947 225.82 98.8123 225.602C99.0299 225.385 99.1521 225.09 99.1521 224.782V222.529C99.1521 222.221 99.0299 221.926 98.8123 221.709C98.5947 221.491 98.2996 221.369 97.9919 221.369H91.7627V218.271C91.7627 217.731 91.9775 217.212 92.3599 216.83C92.7422 216.447 93.2608 216.232 93.8015 216.232H101.968C102.506 216.232 103.021 216.444 103.404 216.821C103.787 217.199 104.005 217.711 104.013 218.249Z" fill="#7126B5" fill-opacity="0.54"/>
<path d="M116.753 144.022H107.742C107.185 144.022 106.733 144.473 106.733 145.03V152.07C106.733 152.627 107.185 153.079 107.742 153.079H116.753C117.31 153.079 117.761 152.627 117.761 152.07V145.03C117.761 144.473 117.31 144.022 116.753 144.022Z" fill="#7126B5"/>
<path d="M112.996 42.406C112.996 42.406 95.0184 58.9252 89.4819 74.6954C89.4819 74.6954 91.5489 90.5613 97.1811 101.167L106.66 97.8831L104.312 77.4214L118.296 65.0305C118.296 65.0305 121.585 46.816 112.996 42.406Z" fill="#7126B5" fill-opacity="0.54"/>
<path d="M118.302 65.312H118.251C118.178 65.2983 118.113 65.2563 118.071 65.1951C118.029 65.1339 118.013 65.0585 118.026 64.9854C118.054 64.8277 120.808 49.0744 114.292 43.583C114.263 43.5594 114.24 43.5303 114.222 43.4976C114.205 43.4648 114.195 43.4289 114.191 43.3921C114.188 43.3552 114.192 43.318 114.203 43.2827C114.214 43.2473 114.231 43.2144 114.255 43.186C114.279 43.1575 114.308 43.1339 114.341 43.1167C114.373 43.0994 114.409 43.0888 114.446 43.0854C114.483 43.082 114.52 43.0859 114.555 43.0969C114.591 43.1079 114.624 43.1257 114.652 43.1494C121.411 48.8266 118.696 64.394 118.595 65.0586C118.588 65.1303 118.553 65.1965 118.499 65.2437C118.444 65.2908 118.374 65.3153 118.302 65.312Z" fill="#7126B5"/>
<path d="M103.45 77.3255C103.41 77.325 103.371 77.3163 103.336 77.2998C103.3 77.2833 103.268 77.2594 103.242 77.2297C100.335 73.9856 94.6468 74.1545 94.5905 74.1545C94.5533 74.1568 94.5161 74.1516 94.481 74.1391C94.4459 74.1266 94.4137 74.1071 94.3863 74.0819C94.359 74.0566 94.337 74.0261 94.3218 73.9921C94.3065 73.9581 94.2983 73.9214 94.2976 73.8842C94.2961 73.8472 94.3019 73.8103 94.3147 73.7756C94.3274 73.7408 94.3469 73.7089 94.372 73.6817C94.3971 73.6545 94.4274 73.6325 94.461 73.617C94.4946 73.6015 94.5309 73.5928 94.5679 73.5913C94.8101 73.5913 100.577 73.4167 103.658 76.8524C103.696 76.8927 103.72 76.943 103.73 76.9972C103.739 77.0514 103.732 77.1071 103.71 77.1574C103.687 77.2077 103.651 77.2504 103.605 77.2803C103.559 77.3101 103.505 77.3259 103.45 77.3255Z" fill="#7126B5"/>
<path d="M94.8604 99.8543C94.8604 99.8543 100.774 94.5037 108.31 95.0669L109.436 100.913C109.436 100.913 106.694 106.123 98.3129 106.619C96.936 104.487 95.7792 102.22 94.8604 99.8543Z" fill="#7126B5"/>
<path d="M116.516 120.13C116.19 120.789 115.063 121.116 114.736 119.612C114.736 119.612 114.545 120.738 113.655 120.834C112.765 120.93 112.529 119.612 112.529 119.612C112.529 119.612 111.87 120.93 111.025 120.789C110.18 120.648 110.231 119.19 110.231 119.19C110.231 119.19 109.245 120.271 108.541 119.663C107.837 119.054 108.209 117.032 108.305 115.343C108.305 115.343 103.236 110.882 102.954 109.525C102.784 108.579 102.737 107.616 102.813 106.658L101.062 103.639C102.805 102.441 104.782 101.626 106.863 101.245L108.868 105.301C108.868 105.301 115.39 110.651 116.19 111.541C116.989 112.431 116.849 119.471 116.516 120.13Z" fill="#FFD200"/>
<path d="M110.468 118.39H110.417C110.343 118.381 110.276 118.344 110.229 118.286C110.183 118.228 110.161 118.154 110.169 118.08C110.169 118.08 110.451 115.557 110.518 114.07C110.518 114.032 110.526 113.995 110.541 113.961C110.556 113.927 110.578 113.896 110.605 113.87C110.633 113.845 110.665 113.825 110.701 113.813C110.736 113.801 110.774 113.796 110.811 113.8C110.848 113.801 110.884 113.81 110.918 113.825C110.952 113.841 110.982 113.863 111.007 113.89C111.032 113.917 111.052 113.949 111.064 113.984C111.077 114.018 111.083 114.055 111.081 114.092C111.014 115.596 110.732 118.114 110.727 118.142C110.719 118.207 110.689 118.267 110.642 118.312C110.594 118.358 110.533 118.385 110.468 118.39Z" fill="#7126B5"/>
<path d="M112.669 118.632H112.636C112.562 118.624 112.494 118.586 112.448 118.528C112.402 118.47 112.38 118.396 112.388 118.322C112.388 118.322 112.703 115.574 112.703 114.216C112.703 114.142 112.733 114.07 112.786 114.017C112.839 113.964 112.91 113.935 112.985 113.935C113.06 113.935 113.131 113.964 113.184 114.017C113.237 114.07 113.266 114.142 113.266 114.216C113.266 115.608 112.962 118.272 112.945 118.384C112.937 118.452 112.905 118.514 112.854 118.56C112.803 118.606 112.738 118.631 112.669 118.632Z" fill="#7126B5"/>
<path d="M114.765 118.232C114.728 118.229 114.692 118.219 114.659 118.202C114.626 118.185 114.596 118.162 114.572 118.134C114.548 118.106 114.53 118.073 114.518 118.038C114.507 118.002 114.503 117.965 114.506 117.928C114.506 117.928 114.697 115.675 114.697 114.397C114.697 114.322 114.727 114.25 114.78 114.197C114.833 114.145 114.904 114.115 114.979 114.115C115.054 114.115 115.125 114.145 115.178 114.197C115.231 114.25 115.261 114.322 115.261 114.397C115.261 115.681 115.075 117.883 115.063 117.973C115.058 118.047 115.023 118.115 114.967 118.164C114.911 118.212 114.839 118.237 114.765 118.232Z" fill="#7126B5"/>
<path d="M98.9663 105.768C98.9136 105.768 98.8619 105.753 98.8173 105.725C98.7726 105.697 98.7368 105.656 98.7139 105.609C98.691 105.561 98.6819 105.508 98.6877 105.456C98.6935 105.403 98.714 105.353 98.7467 105.312C99.3772 104.584 100.103 103.943 100.904 103.408C102.678 102.186 104.692 101.355 106.812 100.97C107.308 100.874 107.831 100.795 108.378 100.744C108.452 100.738 108.527 100.761 108.584 100.809C108.642 100.857 108.678 100.926 108.685 101.001C108.691 101.075 108.668 101.15 108.62 101.207C108.572 101.265 108.503 101.301 108.428 101.308C107.905 101.358 107.398 101.431 106.919 101.522C104.876 101.892 102.935 102.692 101.225 103.87C100.472 104.376 99.7884 104.978 99.1916 105.661C99.1648 105.695 99.1306 105.722 99.0915 105.741C99.0524 105.76 99.0096 105.769 98.9663 105.768Z" fill="#7126B5" fill-opacity="0.54"/>
<path d="M135.857 36.2106C135.8 36.6787 135.644 37.1295 135.402 37.534C135.159 37.9384 134.835 38.2877 134.449 38.5593C130.411 38.4185 130.411 35.6474 130.411 35.6474L130.597 27.813L130.653 25.3236L130.693 23.5833L135.576 25.6503L135.672 29.2605L135.722 31.1586L135.857 36.2106Z" fill="#FFD200"/>
<path d="M135.722 31.1586C133.002 30.6291 131.458 29.283 130.597 27.813L130.653 25.3236L130.692 23.5833L135.576 25.6503L135.671 29.2605L135.722 31.1586Z" fill="#7126B5"/>
<path d="M139.445 20.5192C139.546 20.2023 139.712 19.9104 139.934 19.6626C140.156 19.4148 140.428 19.2168 140.732 19.0816C141.035 18.9465 141.364 18.8772 141.697 18.8784C142.029 18.8796 142.358 18.9513 142.661 19.0886C145.128 19.9785 143.083 25.1207 139.636 24.2027L139.445 20.5192Z" fill="#FFD200"/>
<path d="M139.963 22.9129H139.873C139.802 22.8897 139.743 22.8393 139.709 22.7728C139.675 22.7062 139.669 22.629 139.693 22.5581C139.721 22.4679 140.453 20.3052 142.396 20.1137C142.471 20.107 142.545 20.1302 142.603 20.1783C142.66 20.2263 142.696 20.2953 142.703 20.37C142.71 20.4446 142.686 20.5189 142.638 20.5765C142.59 20.6341 142.521 20.6702 142.447 20.6769C140.864 20.8233 140.233 22.7158 140.222 22.7383C140.201 22.7897 140.165 22.8337 140.119 22.8648C140.073 22.8959 140.018 22.9126 139.963 22.9129Z" fill="#7126B5"/>
<path d="M141.394 22.5806C141.319 22.5806 141.247 22.5509 141.194 22.4981C141.142 22.4453 141.112 22.3736 141.112 22.299C141.093 21.8713 140.993 21.451 140.819 21.0599C140.801 21.0259 140.79 20.9885 140.787 20.9502C140.785 20.9119 140.789 20.8733 140.802 20.837C140.814 20.8006 140.834 20.7672 140.86 20.7388C140.886 20.7104 140.917 20.6876 140.953 20.6718C140.988 20.656 141.026 20.6476 141.064 20.647C141.102 20.6464 141.141 20.6537 141.176 20.6684C141.212 20.6832 141.244 20.705 141.27 20.7326C141.297 20.7602 141.318 20.793 141.332 20.8289C141.54 21.2922 141.656 21.7914 141.675 22.299C141.675 22.3736 141.646 22.4453 141.593 22.4981C141.54 22.5509 141.468 22.5806 141.394 22.5806Z" fill="#7126B5"/>
<path d="M141.298 11.9302C141.298 11.9302 143.455 14.5097 143.455 15.777C143.455 17.0442 139.653 21.3641 139.653 21.3641L138.578 12.7299L141.298 11.9302Z" fill="#7126B5"/>
<path d="M126.936 16.5767C126.581 22.1075 130.935 28.7761 135.598 28.9225C140.262 29.0689 141.861 17.3314 140.217 13.1524C138.572 8.97327 127.55 7.05269 126.936 16.5767Z" fill="#FFD200"/>
<path d="M129.662 22.9129L129.003 20.722C129.003 20.722 131.16 19.4998 131.441 15.2306C131.441 15.2306 137.541 17.4384 142.329 13.1185C147.116 8.79864 145.19 0.682654 143.973 0.0687451C142.757 -0.545164 135.705 3.05381 132.945 6.82738C132.945 6.82738 133.745 3.58887 131.492 4.29289C129.239 4.99692 126.187 11.84 126.187 11.84C126.187 11.84 123.134 10.6178 121.867 13.0115C120.6 15.4052 128.31 22.9129 128.31 22.9129H129.656H129.662Z" fill="#7126B5"/>
<path d="M128.547 22.1413C128.547 22.1413 127.274 18.5762 124.604 18.8634C121.935 19.1506 121.704 27.3117 129.482 24.1858L128.547 22.1413Z" fill="#FFD200"/>
<path d="M128.316 23.4255C128.267 23.4258 128.22 23.4135 128.177 23.3898C128.135 23.3661 128.099 23.3318 128.074 23.2903C126.452 20.6601 124.447 21.2909 124.424 21.2965C124.389 21.3084 124.352 21.3132 124.315 21.3107C124.278 21.3081 124.242 21.2984 124.209 21.2819C124.175 21.2654 124.146 21.2426 124.121 21.2146C124.097 21.1867 124.078 21.1543 124.067 21.1191C124.055 21.084 124.05 21.0469 124.052 21.0099C124.055 20.9729 124.065 20.9368 124.081 20.9036C124.098 20.8703 124.12 20.8407 124.148 20.8163C124.176 20.7919 124.209 20.7733 124.244 20.7615C124.244 20.7615 126.694 19.9842 128.553 23.0144C128.574 23.0563 128.585 23.103 128.584 23.1502C128.583 23.1975 128.57 23.2437 128.547 23.2846C128.523 23.3256 128.49 23.36 128.449 23.3846C128.409 23.4092 128.363 23.4233 128.316 23.4255Z" fill="#7126B5"/>
<path d="M125.956 23.6338C125.89 23.6334 125.825 23.6093 125.775 23.566C125.724 23.5227 125.691 23.463 125.68 23.3973C125.583 22.6129 125.72 21.8173 126.074 21.1106C126.089 21.0749 126.111 21.0426 126.139 21.0157C126.167 20.9889 126.2 20.9681 126.237 20.9547C126.273 20.9413 126.312 20.9355 126.35 20.9377C126.389 20.9399 126.427 20.9501 126.461 20.9676C126.496 20.985 126.527 21.0094 126.551 21.0393C126.576 21.0691 126.594 21.1037 126.605 21.1409C126.616 21.1781 126.619 21.2171 126.614 21.2555C126.608 21.2939 126.596 21.3309 126.576 21.3641C126.276 21.9631 126.157 22.6361 126.232 23.3015C126.239 23.3382 126.238 23.3757 126.23 23.412C126.221 23.4483 126.206 23.4826 126.185 23.513C126.163 23.5434 126.136 23.5692 126.104 23.589C126.073 23.6087 126.038 23.6221 126.001 23.6282H125.95L125.956 23.6338Z" fill="#7126B5"/>
<path d="M132.438 18.8858C132.438 18.8858 134.038 17.8664 134.804 19.0886C134.86 19.0064 134.943 18.9466 135.039 18.9198C135.135 18.893 135.237 18.9009 135.328 18.9421C135.621 19.1111 135.103 20.0291 135.103 20.0291C134.3 19.4743 133.394 19.0855 132.438 18.8858Z" fill="#7126B5"/>
<path d="M139.406 19.3985C139.406 19.3985 138.184 18.1707 137.75 19.1901C137.698 19.1338 137.631 19.0937 137.557 19.0747C137.483 19.0557 137.405 19.0586 137.333 19.0831C137.012 19.2859 137.609 20.08 137.609 20.08C138.12 19.6664 138.749 19.4275 139.406 19.3985Z" fill="#7126B5"/>
<path d="M134.097 22.106C134.489 22.1027 134.804 21.7067 134.8 21.2214C134.796 20.7362 134.475 20.3455 134.083 20.3488C133.691 20.3521 133.376 20.7481 133.38 21.2333C133.384 21.7186 133.705 22.1093 134.097 22.106Z" fill="#7126B5"/>
<path d="M134.241 21.1023C134.347 21.1014 134.432 21.015 134.431 20.9092C134.43 20.8035 134.344 20.7185 134.238 20.7193C134.132 20.7202 134.047 20.8067 134.048 20.9124C134.049 21.0182 134.135 21.1032 134.241 21.1023Z" fill="white"/>
<path d="M138.293 22.0654C138.685 22.0622 139 21.6661 138.995 21.1809C138.991 20.6957 138.67 20.305 138.278 20.3083C137.887 20.3115 137.572 20.7076 137.576 21.1928C137.58 21.678 137.901 22.0687 138.293 22.0654Z" fill="#7126B5"/>
<path d="M138.437 21.0672C138.543 21.0663 138.628 20.9798 138.627 20.8741C138.626 20.7683 138.539 20.6833 138.434 20.6842C138.328 20.6851 138.243 20.7715 138.244 20.8773C138.245 20.983 138.331 21.068 138.437 21.0672Z" fill="white"/>
<path d="M136.533 24.2254C136.395 24.2262 136.257 24.2111 136.122 24.1803C136.047 24.1631 135.983 24.117 135.942 24.052C135.901 23.9871 135.888 23.9086 135.905 23.8339C135.922 23.7593 135.969 23.6945 136.034 23.6538C136.099 23.6131 136.177 23.5999 136.252 23.6171C136.252 23.6171 136.978 23.7804 137.153 23.3299C137.164 23.3102 137.17 23.2878 137.17 23.2651C137.17 23.2424 137.164 23.22 137.153 23.2003C136.944 23.0589 136.694 22.9915 136.443 23.0088C136.369 23.0088 136.299 22.9799 136.246 22.9283C136.193 22.8767 136.163 22.8066 136.162 22.7328V21.0094C136.161 20.9724 136.167 20.9356 136.181 20.9012C136.194 20.8667 136.214 20.8353 136.24 20.8086C136.266 20.7819 136.296 20.7606 136.33 20.7457C136.364 20.7309 136.401 20.7229 136.438 20.7222C136.475 20.7206 136.512 20.7266 136.547 20.7398C136.581 20.753 136.613 20.7731 136.64 20.7989C136.667 20.8247 136.688 20.8556 136.703 20.8898C136.717 20.9241 136.725 20.9609 136.725 20.9981V22.4625C136.895 22.4695 137.061 22.5105 137.215 22.5831C137.369 22.6556 137.507 22.7583 137.62 22.8849C137.684 22.9792 137.722 23.0882 137.732 23.2015C137.742 23.3148 137.723 23.4287 137.677 23.5326C137.585 23.755 137.425 23.9423 137.219 24.0669C137.013 24.1916 136.773 24.2471 136.533 24.2254Z" fill="#7126B5"/>
<path d="M133.3 25.4409C133.346 25.4238 133.395 25.4187 133.443 25.4263C133.491 25.4338 133.536 25.4536 133.574 25.4838C134.783 26.4484 136.519 25.3274 136.517 25.3221C136.581 25.2801 136.659 25.2653 136.734 25.281C136.809 25.2966 136.875 25.3414 136.917 25.4056C136.959 25.4697 136.973 25.5478 136.958 25.6229C136.942 25.6979 136.897 25.7636 136.833 25.8056C136.743 25.8388 134.751 27.1747 133.215 25.9408C133.172 25.91 133.138 25.8677 133.118 25.8188C133.098 25.7698 133.092 25.7161 133.101 25.6639C133.11 25.6117 133.133 25.5631 133.168 25.5237C133.204 25.4842 133.249 25.4555 133.3 25.4409Z" fill="#7126B5"/>
<path d="M184.198 131.186C183.787 131.186 183.386 131.064 183.044 130.836C182.702 130.607 182.436 130.283 182.278 129.903C182.121 129.523 182.08 129.106 182.16 128.702C182.24 128.299 182.438 127.929 182.729 127.638C183.019 127.348 183.39 127.15 183.793 127.069C184.196 126.989 184.614 127.03 184.994 127.188C185.373 127.345 185.698 127.611 185.926 127.953C186.155 128.295 186.277 128.697 186.277 129.108C186.277 129.659 186.058 130.188 185.668 130.577C185.278 130.967 184.75 131.186 184.198 131.186ZM184.198 127.598C183.899 127.598 183.606 127.687 183.357 127.854C183.108 128.02 182.913 128.257 182.799 128.534C182.684 128.811 182.654 129.115 182.712 129.409C182.771 129.703 182.915 129.973 183.127 130.185C183.339 130.397 183.609 130.541 183.903 130.599C184.197 130.658 184.501 130.628 184.778 130.513C185.055 130.399 185.292 130.204 185.458 129.955C185.625 129.706 185.713 129.413 185.713 129.113C185.714 128.914 185.676 128.716 185.6 128.532C185.524 128.347 185.412 128.18 185.272 128.039C185.131 127.897 184.964 127.785 184.779 127.709C184.595 127.632 184.398 127.593 184.198 127.593V127.598Z" fill="#7126B5" fill-opacity="0.54"/>
<path d="M163.843 40.6317C163.432 40.6317 163.031 40.5098 162.689 40.2814C162.347 40.053 162.081 39.7285 161.923 39.3487C161.766 38.9689 161.725 38.5511 161.805 38.1479C161.885 37.7448 162.083 37.3745 162.374 37.0838C162.664 36.7932 163.035 36.5952 163.438 36.515C163.841 36.4348 164.259 36.476 164.639 36.6333C165.018 36.7906 165.343 37.057 165.571 37.3987C165.8 37.7405 165.922 38.1423 165.922 38.5534C165.922 39.1046 165.703 39.6332 165.313 40.0229C164.923 40.4127 164.395 40.6317 163.843 40.6317ZM163.843 37.044C163.544 37.044 163.251 37.1328 163.002 37.2993C162.753 37.4658 162.558 37.7024 162.444 37.9792C162.329 38.2561 162.299 38.5607 162.357 38.8546C162.416 39.1485 162.56 39.4184 162.772 39.6303C162.984 39.8422 163.254 39.9865 163.548 40.045C163.842 40.1034 164.146 40.0734 164.423 39.9587C164.7 39.8441 164.937 39.6499 165.103 39.4007C165.27 39.1516 165.358 38.8587 165.358 38.559C165.355 38.1591 165.195 37.7767 164.911 37.495C164.627 37.2133 164.243 37.0552 163.843 37.0552V37.044Z" fill="#7126B5" fill-opacity="0.54"/>
<path d="M115.688 23.0255C115.277 23.0255 114.875 22.9036 114.534 22.6752C114.192 22.4468 113.925 22.1223 113.768 21.7425C113.611 21.3627 113.57 20.9449 113.65 20.5417C113.73 20.1386 113.928 19.7683 114.219 19.4776C114.509 19.187 114.88 18.989 115.283 18.9088C115.686 18.8286 116.104 18.8698 116.483 19.0271C116.863 19.1844 117.188 19.4508 117.416 19.7925C117.645 20.1343 117.766 20.5361 117.766 20.9472C117.766 21.4984 117.547 22.027 117.158 22.4167C116.768 22.8065 116.239 23.0255 115.688 23.0255ZM115.688 19.4378C115.388 19.4378 115.096 19.5266 114.846 19.6931C114.597 19.8596 114.403 20.0962 114.288 20.373C114.174 20.6499 114.144 20.9545 114.202 21.2484C114.261 21.5423 114.405 21.8122 114.617 22.0241C114.829 22.236 115.099 22.3803 115.393 22.4388C115.686 22.4972 115.991 22.4672 116.268 22.3525C116.545 22.2379 116.781 22.0437 116.948 21.7945C117.114 21.5454 117.203 21.2525 117.203 20.9528C117.203 20.551 117.044 20.1656 116.759 19.8815C116.475 19.5974 116.09 19.4378 115.688 19.4378Z" fill="#7126B5" fill-opacity="0.54"/>
<path d="M108.851 36.6724C108.554 36.6724 108.265 36.5845 108.018 36.4199C107.772 36.2552 107.58 36.0213 107.467 35.7475C107.353 35.4738 107.324 35.1725 107.381 34.8819C107.439 34.5913 107.582 34.3244 107.791 34.1148C108.001 33.9053 108.268 33.7626 108.558 33.7048C108.849 33.647 109.15 33.6767 109.424 33.7901C109.698 33.9035 109.932 34.0955 110.096 34.3419C110.261 34.5882 110.349 34.8779 110.349 35.1742C110.349 35.5715 110.191 35.9526 109.91 36.2335C109.629 36.5145 109.248 36.6724 108.851 36.6724ZM108.851 34.2392C108.666 34.2392 108.485 34.2941 108.331 34.3968C108.178 34.4995 108.058 34.6456 107.987 34.8164C107.916 34.9872 107.898 35.1752 107.934 35.3566C107.97 35.5379 108.059 35.7045 108.19 35.8353C108.32 35.966 108.487 36.0551 108.668 36.0912C108.85 36.1272 109.038 36.1087 109.208 36.038C109.379 35.9672 109.525 35.8474 109.628 35.6936C109.731 35.5399 109.786 35.3591 109.786 35.1742C109.786 34.9262 109.687 34.6884 109.512 34.5131C109.336 34.3378 109.099 34.2392 108.851 34.2392Z" fill="#7126B5" fill-opacity="0.54"/>
<path d="M197.997 27.1653C197.922 27.1653 197.851 27.1356 197.798 27.0828C197.745 27.03 197.715 26.9584 197.715 26.8837V23.9606C197.715 23.8859 197.745 23.8142 197.798 23.7614C197.851 23.7086 197.922 23.679 197.997 23.679C198.072 23.679 198.143 23.7086 198.196 23.7614C198.249 23.8142 198.279 23.8859 198.279 23.9606V26.8837C198.279 26.9584 198.249 27.03 198.196 27.0828C198.143 27.1356 198.072 27.1653 197.997 27.1653Z" fill="#7126B5" fill-opacity="0.54"/>
<path d="M201.044 28.3087H198.842C198.767 28.3087 198.696 28.279 198.643 28.2262C198.59 28.1734 198.561 28.1018 198.561 28.0271C198.561 27.9524 198.59 27.8808 198.643 27.828C198.696 27.7752 198.767 27.7455 198.842 27.7455H201.027C201.064 27.7444 201.101 27.7506 201.136 27.7637C201.17 27.7768 201.202 27.7966 201.229 27.822C201.256 27.8474 201.278 27.8778 201.293 27.9115C201.308 27.9453 201.316 27.9817 201.318 28.0186C201.319 28.0556 201.312 28.0925 201.299 28.1271C201.286 28.1617 201.266 28.1933 201.241 28.2203C201.216 28.2472 201.185 28.2689 201.151 28.284C201.118 28.2992 201.081 28.3076 201.044 28.3087Z" fill="#7126B5" fill-opacity="0.54"/>
<path d="M197.997 32.375C197.922 32.375 197.851 32.3453 197.798 32.2925C197.745 32.2397 197.715 32.1681 197.715 32.0934V29.1703C197.715 29.0956 197.745 29.024 197.798 28.9712C197.851 28.9183 197.922 28.8887 197.997 28.8887C198.072 28.8887 198.143 28.9183 198.196 28.9712C198.249 29.024 198.279 29.0956 198.279 29.1703V32.0934C198.279 32.1681 198.249 32.2397 198.196 32.2925C198.143 32.3453 198.072 32.375 197.997 32.375Z" fill="#7126B5" fill-opacity="0.54"/>
<path d="M197.152 28.3086H194.967C194.892 28.3086 194.821 28.2789 194.768 28.2261C194.715 28.1733 194.686 28.1017 194.686 28.027C194.686 27.9523 194.715 27.8807 194.768 27.8278C194.821 27.775 194.892 27.7454 194.967 27.7454H197.152C197.227 27.7454 197.299 27.775 197.352 27.8278C197.404 27.8807 197.434 27.9523 197.434 28.027C197.434 28.1017 197.404 28.1733 197.352 28.2261C197.299 28.2789 197.227 28.3086 197.152 28.3086Z" fill="#7126B5" fill-opacity="0.54"/>
<path d="M201.574 89.1418C201.499 89.1418 201.427 89.1122 201.374 89.0594C201.322 89.0066 201.292 88.9349 201.292 88.8602V85.9371C201.292 85.8624 201.322 85.7908 201.374 85.738C201.427 85.6852 201.499 85.6555 201.574 85.6555C201.648 85.6555 201.72 85.6852 201.773 85.738C201.826 85.7908 201.855 85.8624 201.855 85.9371V88.8715C201.852 88.9442 201.821 89.013 201.769 89.0634C201.716 89.1138 201.646 89.1419 201.574 89.1418Z" fill="#7126B5" fill-opacity="0.54"/>
<path d="M204.615 90.2851H202.43C202.355 90.2851 202.283 90.2555 202.23 90.2027C202.178 90.1499 202.148 90.0782 202.148 90.0035C202.148 89.9288 202.178 89.8572 202.23 89.8044C202.283 89.7516 202.355 89.7219 202.43 89.7219H204.615C204.69 89.7219 204.761 89.7516 204.814 89.8044C204.867 89.8572 204.896 89.9288 204.896 90.0035C204.896 90.0782 204.867 90.1499 204.814 90.2027C204.761 90.2555 204.69 90.2851 204.615 90.2851Z" fill="#7126B5" fill-opacity="0.54"/>
<path d="M201.574 94.3516C201.499 94.3516 201.427 94.322 201.374 94.2692C201.322 94.2163 201.292 94.1447 201.292 94.07V91.1244C201.292 91.0497 201.322 90.9781 201.374 90.9253C201.427 90.8724 201.499 90.8428 201.574 90.8428C201.648 90.8428 201.72 90.8724 201.773 90.9253C201.826 90.9781 201.855 91.0497 201.855 91.1244V94.0475C201.858 94.0863 201.853 94.1254 201.841 94.1622C201.828 94.199 201.808 94.2328 201.781 94.2613C201.755 94.2899 201.723 94.3127 201.687 94.3283C201.651 94.3438 201.613 94.3518 201.574 94.3516Z" fill="#7126B5" fill-opacity="0.54"/>
<path d="M200.717 90.2851H198.532C198.457 90.2851 198.386 90.2555 198.333 90.2027C198.28 90.1499 198.25 90.0782 198.25 90.0035C198.25 89.9288 198.28 89.8572 198.333 89.8044C198.386 89.7516 198.457 89.7219 198.532 89.7219H200.717C200.792 89.7219 200.864 89.7516 200.917 89.8044C200.969 89.8572 200.999 89.9288 200.999 90.0035C200.999 90.0782 200.969 90.1499 200.917 90.2027C200.864 90.2555 200.792 90.2851 200.717 90.2851Z" fill="#7126B5" fill-opacity="0.54"/>
<path d="M82.8187 103.357C82.744 103.357 82.6724 103.328 82.6196 103.275C82.5668 103.222 82.5371 103.151 82.5371 103.076V100.136C82.5371 100.061 82.5668 99.9895 82.6196 99.9367C82.6724 99.8839 82.744 99.8542 82.8187 99.8542C82.8934 99.8542 82.965 99.8839 83.0178 99.9367C83.0707 99.9895 83.1003 100.061 83.1003 100.136V103.059C83.1026 103.097 83.0971 103.136 83.0839 103.172C83.0708 103.208 83.0504 103.241 83.0241 103.269C82.9977 103.297 82.9659 103.319 82.9305 103.335C82.8952 103.35 82.8572 103.358 82.8187 103.357Z" fill="#7126B5" fill-opacity="0.54"/>
<path d="M85.8656 104.501H83.6747C83.6 104.501 83.5284 104.471 83.4755 104.418C83.4227 104.366 83.3931 104.294 83.3931 104.219C83.3931 104.145 83.4227 104.073 83.4755 104.02C83.5284 103.967 83.6 103.938 83.6747 103.938H85.8656C85.9403 103.938 86.0119 103.967 86.0647 104.02C86.1175 104.073 86.1472 104.145 86.1472 104.219C86.1472 104.294 86.1175 104.366 86.0647 104.418C86.0119 104.471 85.9403 104.501 85.8656 104.501Z" fill="#7126B5" fill-opacity="0.54"/>
<path d="M82.8187 108.584C82.744 108.584 82.6724 108.555 82.6196 108.502C82.5668 108.449 82.5371 108.377 82.5371 108.303V105.38C82.5371 105.305 82.5668 105.233 82.6196 105.18C82.6724 105.128 82.744 105.098 82.8187 105.098C82.8934 105.098 82.965 105.128 83.0178 105.18C83.0707 105.233 83.1003 105.305 83.1003 105.38V108.303C83.1003 108.377 83.0707 108.449 83.0178 108.502C82.965 108.555 82.8934 108.584 82.8187 108.584Z" fill="#7126B5" fill-opacity="0.54"/>
<path d="M81.9628 104.501H79.7718C79.6972 104.501 79.6255 104.471 79.5727 104.418C79.5199 104.366 79.4902 104.294 79.4902 104.219C79.4902 104.145 79.5199 104.073 79.5727 104.02C79.6255 103.967 79.6972 103.938 79.7718 103.938H81.9628C82.0375 103.938 82.1091 103.967 82.1619 104.02C82.2147 104.073 82.2444 104.145 82.2444 104.219C82.2444 104.294 82.2147 104.366 82.1619 104.418C82.1091 104.471 82.0375 104.501 81.9628 104.501Z" fill="#7126B5" fill-opacity="0.54"/>
<path d="M96.6178 13.1636C94.557 13.1636 92.5425 13.7747 90.829 14.9196C89.1155 16.0645 87.78 17.6918 86.9914 19.5957C86.2028 21.4997 85.9964 23.5947 86.3985 25.6159C86.8005 27.6371 87.7929 29.4937 89.2501 30.9509C90.7073 32.4081 92.5639 33.4004 94.585 33.8025C96.6062 34.2045 98.7013 33.9982 100.605 33.2096C102.509 32.4209 104.136 31.0854 105.281 29.3719C106.426 27.6584 107.037 25.6439 107.037 23.5831C107.037 20.8197 105.94 18.1694 103.986 16.2154C102.032 14.2613 99.3812 13.1636 96.6178 13.1636ZM96.6178 28.1227C95.7186 28.1294 94.8376 27.8688 94.0866 27.3741C93.3357 26.8794 92.7486 26.1728 92.3998 25.3439C92.051 24.515 91.9563 23.6012 92.1276 22.7184C92.2989 21.8356 92.7286 21.0236 93.3621 20.3853C93.9956 19.7471 94.8044 19.3114 95.6859 19.1334C96.5674 18.9555 97.4819 19.0434 98.3133 19.386C99.1448 19.7286 99.8558 20.3104 100.356 21.0576C100.856 21.8049 101.124 22.6839 101.124 23.5831C101.125 24.7817 100.652 25.9321 99.8076 26.7828C98.9632 27.6335 97.8164 28.1152 96.6178 28.1227Z" fill="#7126B5" fill-opacity="0.54"/>
<path d="M88.265 23.8647C88.1903 23.8647 88.1187 23.8351 88.0659 23.7823C88.0131 23.7294 87.9834 23.6578 87.9834 23.5831C87.9864 21.2941 88.897 19.0997 90.5156 17.4812C92.1341 15.8626 94.3285 14.952 96.6176 14.949C96.6922 14.949 96.7639 14.9786 96.8167 15.0315C96.8695 15.0843 96.8992 15.1559 96.8992 15.2306C96.8992 15.3053 96.8695 15.3769 96.8167 15.4297C96.7639 15.4825 96.6922 15.5122 96.6176 15.5122C94.4779 15.5152 92.4268 16.3665 90.9138 17.8794C89.4009 19.3924 88.5496 21.4435 88.5466 23.5831C88.5466 23.6578 88.517 23.7294 88.4641 23.7823C88.4113 23.8351 88.3397 23.8647 88.265 23.8647Z" fill="white"/>
<path d="M96.618 32.2229C96.5433 32.2229 96.4717 32.1932 96.4189 32.1404C96.3661 32.0876 96.3364 32.016 96.3364 31.9413C96.3364 31.8666 96.3661 31.795 96.4189 31.7422C96.4717 31.6893 96.5433 31.6597 96.618 31.6597C98.7577 31.6567 100.809 30.8054 102.322 29.2925C103.835 27.7795 104.686 25.7284 104.689 23.5887C104.689 23.5141 104.719 23.4424 104.771 23.3896C104.824 23.3368 104.896 23.3071 104.971 23.3071C105.045 23.3071 105.117 23.3368 105.17 23.3896C105.223 23.4424 105.252 23.5141 105.252 23.5887C105.249 25.8777 104.339 28.0721 102.72 29.6907C101.101 31.3093 98.907 32.2199 96.618 32.2229Z" fill="white"/>
<path d="M96.6176 30.1334C94.8809 30.1319 93.2156 29.4413 91.9876 28.2132C90.7595 26.9851 90.0689 25.3199 90.0674 23.5831C90.0674 23.5084 90.0971 23.4368 90.1499 23.384C90.2027 23.3312 90.2743 23.3015 90.349 23.3015C90.4237 23.3015 90.4953 23.3312 90.5481 23.384C90.6009 23.4368 90.6306 23.5084 90.6306 23.5831C90.6321 25.1705 91.2633 26.6925 92.3858 27.8149C93.5083 28.9374 95.0302 29.5687 96.6176 29.5701C96.6923 29.5701 96.7639 29.5998 96.8168 29.6526C96.8696 29.7054 96.8992 29.7771 96.8992 29.8518C96.8992 29.9264 96.8696 29.9981 96.8168 30.0509C96.7639 30.1037 96.6923 30.1334 96.6176 30.1334Z" fill="white"/>
<path d="M102.887 23.8648C102.812 23.8648 102.74 23.8351 102.688 23.7823C102.635 23.7295 102.605 23.6579 102.605 23.5832C102.602 21.9968 101.97 20.4762 100.848 19.355C99.7256 18.2338 98.2045 17.6033 96.618 17.6018C96.5433 17.6018 96.4717 17.5721 96.4189 17.5193C96.3661 17.4665 96.3364 17.3949 96.3364 17.3202C96.3364 17.2455 96.3661 17.1739 96.4189 17.1211C96.4717 17.0682 96.5433 17.0386 96.618 17.0386C98.3548 17.0401 100.02 17.7307 101.248 18.9587C102.476 20.1868 103.167 21.852 103.168 23.5888C103.167 23.6625 103.136 23.7327 103.084 23.7843C103.031 23.8359 102.96 23.8648 102.887 23.8648Z" fill="white"/>
<g filter="url(#filter1_d_92_30005)">
<path d="M165.714 67.9207L165.753 68.9199L166.752 68.881L166.713 67.8818L165.714 67.9207ZM161.027 68.1031L160.988 67.1038L159.989 67.1427L160.028 68.142L161.027 68.1031ZM161.136 70.887L160.136 70.9259L160.253 73.9236L161.958 71.4554L161.136 70.887ZM161.977 70.1957L161.53 69.3013L161.522 69.3054L161.977 70.1957ZM165.134 70.311L164.597 71.1548L164.605 71.1595L165.134 70.311ZM166.233 71.5432L165.32 71.9504L165.323 71.9576L165.326 71.9646L166.233 71.5432ZM166.284 75.0159L165.373 74.6038L165.37 74.6102L166.284 75.0159ZM165.144 76.3212L164.61 75.4759L164.603 75.48L165.144 76.3212ZM160.754 76.1978L161.357 75.3998L161.357 75.3998L160.754 76.1978ZM159.571 74.2404L159.532 73.2411L158.376 73.2861L158.588 74.4233L159.571 74.2404ZM161.124 74.1799L162.088 73.9144L161.877 73.1499L161.085 73.1807L161.124 74.1799ZM161.85 75.2025L161.289 76.03L161.296 76.0348L161.303 76.0396L161.85 75.2025ZM164.653 74.8692L163.862 74.2575L163.854 74.2686L164.653 74.8692ZM164.531 71.7356L163.823 72.442L163.833 72.451L164.531 71.7356ZM161.88 71.6426L162.499 72.4279L162.503 72.4246L161.88 71.6426ZM161.244 72.5921L161.283 73.5913L161.987 73.5639L162.198 72.8915L161.244 72.5921ZM159.733 72.6509L158.734 72.6898L158.773 73.689L159.772 73.6501L159.733 72.6509ZM159.504 66.7613L159.465 65.7621L158.466 65.801L158.505 66.8002L159.504 66.7613ZM165.659 66.5217L166.659 66.4828L166.62 65.4836L165.62 65.5225L165.659 66.5217ZM165.675 66.9214L160.988 67.1038L161.066 69.1023L165.753 68.9199L165.675 66.9214ZM160.028 68.142L160.136 70.9259L162.135 70.8481L162.027 68.0642L160.028 68.142ZM161.958 71.4554C162.027 71.3565 162.163 71.2241 162.433 71.086L161.522 69.3054C161.041 69.5515 160.616 69.8799 160.313 70.3186L161.958 71.4554ZM162.425 71.0901C162.68 70.9625 162.952 70.8923 163.251 70.8807L163.173 68.8822C162.596 68.9047 162.045 69.044 161.53 69.3013L162.425 71.0901ZM163.251 70.8807C163.897 70.8556 164.319 70.9777 164.597 71.1547L165.671 69.4673C164.953 69.0106 164.094 68.8464 163.173 68.8822L163.251 70.8807ZM164.605 71.1595C164.958 71.3795 165.182 71.6425 165.32 71.9504L167.146 71.136C166.833 70.434 166.326 69.8756 165.664 69.4626L164.605 71.1595ZM165.326 71.9646C165.503 72.3463 165.602 72.7527 165.619 73.1924L167.617 73.1146C167.59 72.4165 167.432 71.7494 167.14 71.1218L165.326 71.9646ZM165.619 73.1924C165.64 73.7494 165.55 74.2126 165.373 74.6038L167.195 75.4279C167.517 74.7163 167.649 73.9378 167.617 73.1146L165.619 73.1924ZM165.37 74.6102C165.213 74.9641 164.969 75.249 164.61 75.4759L165.678 77.1665C166.359 76.7364 166.874 76.1511 167.198 75.4215L165.37 74.6102ZM164.603 75.48C164.278 75.6894 163.825 75.8341 163.193 75.8587L163.27 77.8572C164.167 77.8223 164.99 77.6092 165.685 77.1623L164.603 75.48ZM163.193 75.8587C162.341 75.8919 161.761 75.7055 161.357 75.3998L160.151 76.9958C161.017 77.6495 162.089 77.9032 163.27 77.8572L163.193 75.8587ZM161.357 75.3998C160.932 75.0794 160.665 74.6522 160.554 74.0575L158.588 74.4233C158.784 75.4792 159.305 76.357 160.151 76.9958L161.357 75.3998ZM159.61 75.2396L161.163 75.1792L161.085 73.1807L159.532 73.2411L159.61 75.2396ZM160.16 74.4455C160.341 75.1034 160.722 75.6459 161.289 76.03L162.411 74.3749C162.248 74.2644 162.146 74.1252 162.088 73.9144L160.16 74.4455ZM161.303 76.0396C161.876 76.4144 162.541 76.5546 163.233 76.5277L163.155 74.5292C162.784 74.5436 162.552 74.4666 162.397 74.3654L161.303 76.0396ZM163.233 76.5277C164.104 76.4938 164.913 76.1888 165.453 75.4698L163.854 74.2686C163.772 74.3771 163.608 74.5116 163.155 74.5292L163.233 76.5277ZM165.444 75.4808C165.943 74.836 166.126 74.0486 166.094 73.2159L164.095 73.2937C164.115 73.7853 164.004 74.0742 163.862 74.2576L165.444 75.4808ZM166.094 73.2159C166.062 72.386 165.822 71.5982 165.23 71.0201L163.833 72.451C163.94 72.5555 164.076 72.7806 164.095 73.2937L166.094 73.2159ZM165.239 71.0292C164.634 70.4233 163.827 70.2158 162.988 70.2484L163.066 72.2469C163.533 72.2287 163.728 72.3465 163.823 72.4419L165.239 71.0292ZM162.988 70.2484C162.354 70.2731 161.757 70.4617 161.256 70.8606L162.503 72.4246C162.618 72.3325 162.786 72.2578 163.066 72.2469L162.988 70.2484ZM161.26 70.8574C160.789 71.2293 160.469 71.7222 160.29 72.2926L162.198 72.8915C162.268 72.6676 162.372 72.5275 162.499 72.4279L161.26 70.8574ZM161.205 71.5928L159.694 71.6516L159.772 73.6501L161.283 73.5913L161.205 71.5928ZM160.732 72.612L160.503 66.7224L158.505 66.8002L158.734 72.6898L160.732 72.612ZM159.543 67.7606L165.698 67.521L165.62 65.5225L159.465 65.7621L159.543 67.7606ZM164.66 66.5606L164.714 67.9596L166.713 67.8818L166.659 66.4828L164.66 66.5606ZM168.878 67.6154L168.002 67.1333L168 67.136L168.878 67.6154ZM174.515 67.3959L173.675 67.9384L173.682 67.9484L174.515 67.3959ZM174.812 75.0062L173.933 74.528L173.932 74.5307L174.812 75.0062ZM169.174 75.2256L168.331 75.7643L168.338 75.7743L169.174 75.2256ZM173.692 69.2914L172.716 69.5053L172.717 69.5138L172.719 69.5221L173.692 69.2914ZM173.055 68.0412L172.334 68.7342L172.344 68.7442L173.055 68.0412ZM170.397 68.1447L171.161 68.7903L171.17 68.7795L170.397 68.1447ZM169.845 69.4411L168.857 69.2867L168.856 69.2952L168.855 69.3038L169.845 69.4411ZM169.997 73.3302L170.974 73.1192L170.974 73.1192L169.997 73.3302ZM170.634 74.5943L169.923 75.2973L169.929 75.3028L169.934 75.3081L170.634 74.5943ZM173.306 74.4903L172.553 73.8331L172.548 73.8389L172.543 73.8448L173.306 74.4903ZM173.858 73.1799L174.849 73.3142L174.849 73.3142L173.858 73.1799ZM169.213 71.3852C169.153 69.8641 169.371 68.7991 169.755 68.0948L168 67.136C167.373 68.2831 167.148 69.7573 167.214 71.463L169.213 71.3852ZM169.754 68.0975C170.056 67.5488 170.605 67.1759 171.689 67.1337L171.611 65.1352C170.028 65.1968 168.729 65.8112 168.002 67.1333L169.754 68.0975ZM171.689 67.1337C172.774 67.0914 173.341 67.4208 173.675 67.9383L175.356 66.8535C174.537 65.5852 173.194 65.0736 171.611 65.1352L171.689 67.1337ZM173.682 67.9484C174.126 68.6188 174.429 69.6609 174.489 71.1798L176.487 71.1021C176.421 69.3941 176.075 67.9395 175.349 66.8434L173.682 67.9484ZM174.489 71.1798C174.548 72.7181 174.328 73.8033 173.933 74.528L175.69 75.4843C176.324 74.3196 176.554 72.828 176.487 71.1021L174.489 71.1798ZM173.932 74.5307C173.639 75.0727 173.099 75.4451 172.014 75.4873L172.092 77.4858C173.674 77.4242 174.974 76.8097 175.691 75.4816L173.932 74.5307ZM172.014 75.4873C170.93 75.5296 170.354 75.2004 170.01 74.6769L168.338 75.7743C169.166 77.0359 170.509 77.5474 172.092 77.4858L172.014 75.4873ZM170.016 74.6869C169.573 73.9932 169.272 72.9256 169.213 71.3852L167.214 71.463C167.281 73.1868 167.621 74.6536 168.331 75.7643L170.016 74.6869ZM174.92 71.163C174.889 70.3675 174.808 69.6619 174.666 69.0606L172.719 69.5221C172.823 69.9574 172.894 70.5255 172.922 71.2408L174.92 71.163ZM174.669 69.0774C174.523 68.4112 174.235 67.8124 173.767 67.3382L172.344 68.7442C172.498 68.8996 172.634 69.1343 172.716 69.5053L174.669 69.0774ZM173.776 67.3483C173.21 66.7594 172.448 66.5597 171.668 66.5901L171.746 68.5886C172.141 68.5732 172.277 68.6748 172.334 68.7341L173.776 67.3483ZM171.668 66.5901C170.888 66.6204 170.143 66.8788 169.625 67.5099L171.17 68.7795C171.222 68.7159 171.35 68.604 171.746 68.5886L171.668 66.5901ZM169.634 67.4991C169.208 68.0033 168.962 68.6163 168.857 69.2867L170.833 69.5956C170.893 69.2134 171.016 68.9621 171.161 68.7902L169.634 67.4991ZM168.855 69.3038C168.771 69.9068 168.75 70.6102 168.781 71.402L170.779 71.3242C170.751 70.6052 170.774 70.0273 170.836 69.5785L168.855 69.3038ZM168.781 71.402C168.813 72.2199 168.889 72.9375 169.019 73.5412L170.974 73.1192C170.877 72.6669 170.809 72.0732 170.779 71.3242L168.781 71.402ZM169.019 73.5412C169.165 74.2139 169.452 74.82 169.923 75.2973L171.346 73.8914C171.195 73.739 171.057 73.5023 170.974 73.1192L169.019 73.5412ZM169.934 75.3081C170.507 75.8703 171.262 76.061 172.035 76.0309L171.958 74.0324C171.556 74.0481 171.403 73.9473 171.335 73.8805L169.934 75.3081ZM172.035 76.0309C172.807 76.0009 173.549 75.7525 174.07 75.1359L172.543 73.8448C172.492 73.9042 172.361 74.0167 171.958 74.0324L172.035 76.0309ZM174.06 75.1475C174.508 74.6342 174.755 74.0034 174.849 73.3142L172.867 73.0455C172.815 73.4269 172.695 73.6697 172.553 73.8331L174.06 75.1475ZM174.849 73.3142C174.932 72.7023 174.952 71.9809 174.92 71.163L172.922 71.2408C172.951 71.9898 172.929 72.587 172.867 73.0455L174.849 73.3142ZM177.84 67.2665L176.963 66.7845L176.962 66.7871L177.84 67.2665ZM183.477 67.0471L182.637 67.5895L182.644 67.5996L183.477 67.0471ZM183.774 74.6573L182.895 74.1792L182.894 74.1819L183.774 74.6573ZM178.136 74.8768L177.293 75.4155L177.3 75.4255L178.136 74.8768ZM182.654 68.9425L181.678 69.1565L181.679 69.1649L181.681 69.1733L182.654 68.9425ZM182.017 67.6924L181.296 68.3854L181.306 68.3953L182.017 67.6924ZM179.359 67.7958L180.123 68.4415L180.132 68.4306L179.359 67.7958ZM178.807 69.0923L177.819 68.9379L177.818 68.9464L177.817 68.9549L178.807 69.0923ZM178.959 72.9813L179.936 72.7704L179.936 72.7704L178.959 72.9813ZM179.596 74.2455L178.885 74.9485L178.891 74.9539L178.896 74.9593L179.596 74.2455ZM182.268 74.1415L181.515 73.4843L181.51 73.4901L181.505 73.4959L182.268 74.1415ZM182.82 72.8311L183.811 72.9654L183.811 72.9654L182.82 72.8311ZM178.175 71.0364C178.115 69.5152 178.332 68.4502 178.717 67.746L176.962 66.7871C176.335 67.9343 176.11 69.4084 176.176 71.1142L178.175 71.0364ZM178.716 67.7486C179.018 67.2 179.567 66.827 180.651 66.7848L180.573 64.7863C178.99 64.848 177.691 65.4623 176.963 66.7845L178.716 67.7486ZM180.651 66.7848C181.736 66.7426 182.303 67.072 182.637 67.5895L184.317 66.5047C183.499 65.2364 182.155 64.7248 180.573 64.7863L180.651 66.7848ZM182.644 67.5996C183.088 68.27 183.391 69.3121 183.451 70.831L185.449 70.7532C185.383 69.0453 185.037 67.5907 184.311 66.4946L182.644 67.5996ZM183.451 70.831C183.51 72.3693 183.29 73.4545 182.895 74.1792L184.652 75.1355C185.286 73.9708 185.516 72.4792 185.449 70.7532L183.451 70.831ZM182.894 74.1819C182.601 74.7238 182.061 75.0963 180.976 75.1385L181.054 77.137C182.636 77.0754 183.936 76.4609 184.653 75.1328L182.894 74.1819ZM180.976 75.1385C179.892 75.1807 179.315 74.8516 178.972 74.3281L177.3 75.4255C178.128 76.6871 179.471 77.1986 181.054 77.137L180.976 75.1385ZM178.978 74.3381C178.535 73.6443 178.234 72.5768 178.175 71.0364L176.176 71.1142C176.243 72.8379 176.583 74.3047 177.293 75.4155L178.978 74.3381ZM183.882 70.8142C183.851 70.0186 183.77 69.3131 183.627 68.7118L181.681 69.1733C181.785 69.6086 181.856 70.1767 181.884 70.892L183.882 70.8142ZM183.631 68.7286C183.485 68.0623 183.197 67.4636 182.729 66.9894L181.306 68.3953C181.46 68.5508 181.596 68.7855 181.678 69.1565L183.631 68.7286ZM182.738 66.9994C182.172 66.4105 181.41 66.2109 180.63 66.2412L180.708 68.2397C181.103 68.2243 181.239 68.326 181.296 68.3853L182.738 66.9994ZM180.63 66.2412C179.85 66.2716 179.105 66.5299 178.587 67.161L180.132 68.4306C180.184 68.367 180.312 68.2551 180.708 68.2397L180.63 66.2412ZM178.596 67.1503C178.169 67.6545 177.924 68.2674 177.819 68.9379L179.795 69.2467C179.855 68.8646 179.978 68.6133 180.123 68.4414L178.596 67.1503ZM177.817 68.9549C177.733 69.5579 177.712 70.2614 177.743 71.0532L179.741 70.9754C179.713 70.2563 179.736 69.6784 179.798 69.2297L177.817 68.9549ZM177.743 71.0532C177.775 71.8711 177.851 72.5887 177.981 73.1923L179.936 72.7704C179.839 72.3181 179.77 71.7243 179.741 70.9754L177.743 71.0532ZM177.981 73.1923C178.126 73.8651 178.413 74.4712 178.885 74.9485L180.308 73.5425C180.157 73.3902 180.019 73.1535 179.936 72.7704L177.981 73.1923ZM178.896 74.9593C179.469 75.5214 180.224 75.7122 180.997 75.6821L180.92 73.6836C180.518 73.6992 180.365 73.5984 180.297 73.5317L178.896 74.9593ZM180.997 75.6821C181.769 75.6521 182.511 75.4037 183.032 74.787L181.505 73.4959C181.454 73.5554 181.323 73.6679 180.92 73.6836L180.997 75.6821ZM183.022 74.7987C183.47 74.2853 183.717 73.6545 183.811 72.9654L181.829 72.6967C181.777 73.078 181.657 73.3209 181.515 73.4843L183.022 74.7987ZM183.811 72.9654C183.894 72.3535 183.914 71.6321 183.882 70.8142L181.884 70.892C181.913 71.6409 181.891 72.2382 181.829 72.6967L183.811 72.9654Z" fill="#FFD301"/>
</g>
<defs>
<filter id="filter0_d_92_30005" x="0.512695" y="141.034" width="248.616" height="115.211" filterUnits="userSpaceOnUse" color-interpolation-filters="sRGB">
<feFlood flood-opacity="0" result="BackgroundImageFix"/>
<feColorMatrix in="SourceAlpha" type="matrix" values="0 0 0 0 0 0 0 0 0 0 0 0 0 0 0 0 0 0 127 0" result="hardAlpha"/>
<feOffset dx="-10" dy="10"/>
<feGaussianBlur stdDeviation="5"/>
<feComposite in2="hardAlpha" operator="out"/>
<feColorMatrix type="matrix" values="0 0 0 0 0 0 0 0 0 0 0 0 0 0 0 0 0 0 0.25 0"/>
<feBlend mode="normal" in2="BackgroundImageFix" result="effect1_dropShadow_92_30005"/>
<feBlend mode="normal" in="SourceGraphic" in2="effect1_dropShadow_92_30005" result="shape"/>
</filter>
<filter id="filter1_d_92_30005" x="154.274" y="65.644" width="31.3794" height="17.3523" filterUnits="userSpaceOnUse" color-interpolation-filters="sRGB">
<feFlood flood-opacity="0" result="BackgroundImageFix"/>
<feColorMatrix in="SourceAlpha" type="matrix" values="0 0 0 0 0 0 0 0 0 0 0 0 0 0 0 0 0 0 127 0" result="hardAlpha"/>
<feOffset dx="-2" dy="3"/>
<feGaussianBlur stdDeviation="1.5"/>
<feComposite in2="hardAlpha" operator="out"/>
<feColorMatrix type="matrix" values="0 0 0 0 0 0 0 0 0 0 0 0 0 0 0 0 0 0 0.25 0"/>
<feBlend mode="normal" in2="BackgroundImageFix" result="effect1_dropShadow_92_30005"/>
<feBlend mode="normal" in="SourceGraphic" in2="effect1_dropShadow_92_30005" result="shape"/>
</filter>
<radialGradient id="paint0_radial_92_30005" cx="0" cy="0" r="1" gradientUnits="userSpaceOnUse" gradientTransform="translate(134.003 225.779) rotate(-19.7906) scale(113.449 106.587)">
<stop offset="0.375" stop-color="white"/>
<stop offset="0.869792" stop-color="#FFD200"/>
</radialGradient>
</defs>
</svg>
