<svg width="238" height="72" viewBox="0 0 238 72" fill="none" xmlns="http://www.w3.org/2000/svg">
<path d="M225.622 1.56152H12.3864C5.97329 1.56152 0.774414 6.7604 0.774414 13.1735V59.4513C0.774414 65.8645 5.97329 71.0633 12.3864 71.0633H225.622C232.035 71.0633 237.234 65.8645 237.234 59.4513V13.1735C237.234 6.7604 232.035 1.56152 225.622 1.56152Z" fill="white"/>
<path d="M225.614 1.56124C228.694 1.56124 231.647 2.78465 233.825 4.96232C236.002 7.14 237.226 10.0936 237.226 13.1733V59.451C237.226 62.5307 236.002 65.4843 233.825 67.662C231.647 69.8397 228.694 71.0631 225.614 71.0631H12.3862C9.30646 71.0631 6.35289 69.8397 4.17522 67.662C1.99754 65.4843 0.774135 62.5307 0.774135 59.451V13.1733C0.774135 10.0936 1.99754 7.14 4.17522 4.96232C6.35289 2.78465 9.30646 1.56124 12.3862 1.56124H225.614ZM225.614 0.787109H12.3862C9.10114 0.787109 5.95068 2.09207 3.62782 4.41493C1.30497 6.73778 0 9.88825 0 13.1733V59.451C0 62.7361 1.30497 65.8865 3.62782 68.2094C5.95068 70.5322 9.10114 71.8372 12.3862 71.8372H225.614C228.899 71.8372 232.049 70.5322 234.372 68.2094C236.695 65.8865 238 62.7361 238 59.451V13.1733C238 9.88825 236.695 6.73778 234.372 4.41493C232.049 2.09207 228.899 0.787109 225.614 0.787109Z" fill="#231F20"/>
<path d="M176.635 1.56152V71.0633H12.3864C9.30674 71.0633 6.35317 69.8399 4.1755 67.6623C1.99782 65.4846 0.774414 62.531 0.774414 59.4513V13.1735C0.774414 10.0938 1.99782 7.14028 4.1755 4.9626C6.35317 2.78493 9.30674 1.56152 12.3864 1.56152H176.635Z" fill="#7126B5"/>
<path d="M141.706 65.3728C141.706 65.3728 140.042 68.4694 140.344 69.1119C140.646 69.7544 144.052 70.9776 143.936 71.3182C143.82 71.6588 136.411 71.473 136.148 71.0937C135.885 70.7143 135.993 70.5595 135.955 69.646C135.916 68.7326 138.672 64.498 138.672 64.498" fill="#231F20"/>
<path d="M141.35 71.8685C139.12 71.8685 136.132 71.7446 135.83 71.3111C135.619 71.0093 135.528 70.6393 135.575 70.2738C135.575 70.119 135.575 69.9254 135.575 69.6622C135.536 68.7023 137.688 65.3038 138.354 64.2897C138.381 64.2463 138.416 64.2087 138.457 64.1792C138.499 64.1497 138.546 64.1289 138.596 64.118C138.646 64.1072 138.698 64.1065 138.748 64.1161C138.798 64.1256 138.846 64.1452 138.888 64.1736C138.974 64.2291 139.035 64.3166 139.056 64.4167C139.078 64.5168 139.059 64.6215 139.004 64.7078C137.711 66.6973 136.333 69.1435 136.349 69.6313V70.2815C136.349 70.5989 136.349 70.6841 136.418 70.8002C138.582 71.0736 140.765 71.1694 142.944 71.0866L142.325 70.7847C141.009 70.1499 140.196 69.7319 140.003 69.2364C139.662 68.4623 140.854 66.1399 141.381 65.1568C141.405 65.112 141.438 65.0725 141.478 65.0406C141.517 65.0086 141.563 64.9847 141.612 64.9703C141.661 64.9559 141.712 64.9513 141.763 64.9568C141.813 64.9622 141.862 64.9775 141.907 65.0019C141.952 65.0263 141.991 65.0593 142.023 65.099C142.055 65.1386 142.079 65.1842 142.093 65.2331C142.108 65.282 142.112 65.3332 142.107 65.3838C142.102 65.4345 142.086 65.4836 142.062 65.5283C141.234 67.0766 140.614 68.6249 140.715 68.9268C141.314 69.3896 141.973 69.7698 142.673 70.057C143.951 70.6763 144.477 70.9318 144.315 71.4118C144.222 71.6905 143.904 71.7369 143.719 71.7679C143.533 71.7988 142.488 71.8685 141.35 71.8685Z" fill="#231F20"/>
<path d="M138.198 36.5834L124.922 32.7979L113.534 49.7669C113.534 49.7669 97.5869 60.0087 97.5869 60.4809C97.5869 61.1389 100.312 65.6444 100.312 65.6444C100.312 65.6444 110.376 61.6499 118.62 57.903C125.185 54.9381 131.904 45.1298 131.904 45.1298L144.546 50.9436L136.805 65.3734L142.742 65.8921C142.742 65.8921 151.258 54.2801 154.083 47.9245C156.909 41.5688 138.198 36.5834 138.198 36.5834Z" fill="#231F20"/>
<path d="M142.704 66.2786L136.759 65.7599C136.696 65.7542 136.635 65.7329 136.582 65.6977C136.529 65.6625 136.486 65.6147 136.457 65.5586C136.426 65.5028 136.41 65.4403 136.41 65.3767C136.41 65.3131 136.426 65.2506 136.457 65.1948L144.074 51.1365L132.068 45.6556C130.914 47.289 124.868 55.5646 118.807 58.305C110.686 61.9666 100.583 65.9689 100.483 66.0076C100.399 66.043 100.305 66.0467 100.218 66.0183C100.131 65.9899 100.057 65.9311 100.011 65.8528C99.1745 64.4671 97.2314 61.208 97.2314 60.488C97.2314 60.2171 97.2314 59.8068 113.287 49.4953L124.628 32.596C124.673 32.5273 124.738 32.4746 124.814 32.4454C124.891 32.4162 124.975 32.412 125.054 32.4334L138.338 36.2112C138.934 36.3737 151.932 39.8806 154.355 44.9434C154.605 45.4271 154.742 45.9615 154.756 46.506C154.769 47.0505 154.658 47.5909 154.432 48.0864C151.622 54.4498 143.13 66.0076 143.045 66.1237C143.006 66.1768 142.955 66.219 142.895 66.2461C142.835 66.2732 142.769 66.2844 142.704 66.2786ZM137.386 65.0322L142.518 65.4812C143.594 64.0104 151.103 53.6215 153.697 47.769C153.877 47.3745 153.964 46.9441 153.952 46.5107C153.94 46.0773 153.829 45.6524 153.627 45.2686C151.351 40.5154 138.237 36.9853 138.144 36.9544L125.131 33.2462L113.899 49.983C113.868 50.0247 113.832 50.0613 113.79 50.0914C107.922 53.8615 99.0816 59.621 98.0443 60.5887C98.7659 62.1664 99.5909 63.6948 100.514 65.1638C102.263 64.4671 111.189 60.8906 118.505 57.585C124.899 54.7053 131.564 45.0441 131.665 44.9434C131.717 44.8686 131.793 44.8143 131.881 44.7903C131.969 44.7662 132.062 44.7738 132.145 44.8118L144.818 50.5946C144.866 50.6162 144.909 50.6472 144.945 50.6857C144.981 50.7243 145.008 50.7696 145.027 50.8191C145.048 50.8679 145.059 50.9207 145.059 50.9739C145.059 51.0272 145.048 51.0799 145.027 51.1288L137.386 65.0322Z" fill="#231F20"/>
<path d="M169.915 22.6567C169.915 22.6567 175.442 22.8038 175.543 22.6567C175.643 22.5096 176.766 14.1412 175.891 14.4818C175.016 14.8224 173.22 19.6143 173.22 19.6143L169.257 19.2427" fill="white"/>
<path d="M173.879 23.1131C173.012 23.1131 171.75 23.1131 169.9 23.0434C169.849 23.0424 169.799 23.0314 169.753 23.0109C169.707 22.9904 169.665 22.9609 169.631 22.9241C169.596 22.8874 169.569 22.8441 169.552 22.7967C169.534 22.7494 169.526 22.6991 169.528 22.6486C169.534 22.5473 169.578 22.4518 169.651 22.3815C169.724 22.3111 169.821 22.2711 169.923 22.2693C172.075 22.3312 174.49 22.3622 175.226 22.3157C175.427 21.17 176 16.4168 175.814 15.0621C174.903 16.5418 174.153 18.1145 173.577 19.7533C173.547 19.8319 173.492 19.8986 173.421 19.9433C173.349 19.988 173.266 20.0083 173.182 20.0011L169.226 19.6295C169.124 19.6196 169.03 19.5705 168.963 19.4925C168.897 19.4145 168.863 19.3137 168.87 19.2114C168.883 19.1095 168.935 19.0164 169.013 18.9505C169.092 18.8845 169.193 18.8506 169.296 18.8553L172.965 19.2037C173.499 17.818 174.862 14.497 175.744 14.1254C175.849 14.0818 175.965 14.0741 176.074 14.1035C176.183 14.1329 176.28 14.1978 176.348 14.288C177.045 15.1705 176.085 22.5789 175.86 22.8886C175.76 23.0202 175.69 23.1131 173.879 23.1131Z" fill="#231F20"/>
<path d="M140.978 15.627C138.508 14.5355 136.163 16.9585 134.785 18.7236C131.154 23.2445 128.235 28.4545 125.054 33.3238C125.054 33.3238 131.905 45.2222 141.396 39.2381L151.893 23.3297H168.862C168.862 23.3297 168.916 22.0756 168.862 18.9326C168.862 18.8707 141.837 15.9986 140.978 15.627Z" fill="white"/>
<path d="M136.031 41.251C135.282 41.2526 134.536 41.1616 133.809 40.98C128.313 39.6176 124.86 33.7187 124.713 33.4632C124.677 33.4023 124.658 33.3327 124.658 33.2619C124.658 33.1911 124.677 33.1216 124.713 33.0607C125.65 31.6285 126.579 30.1422 127.477 28.7023C129.596 25.142 131.923 21.7092 134.444 18.4218C135.342 17.307 138.052 13.9163 141.086 15.2555C141.744 15.48 150.43 16.4942 166.896 18.2824C169.218 18.5301 169.218 18.5301 169.218 18.8553C169.265 21.9518 169.218 23.2369 169.218 23.2911C169.214 23.391 169.172 23.4855 169.1 23.5548C169.028 23.6241 168.931 23.6627 168.831 23.6627H152.102L141.713 39.4008C141.687 39.448 141.646 39.4859 141.597 39.5092C139.947 40.6117 138.015 41.2164 136.031 41.251ZM125.511 33.2774C126.161 34.3148 129.381 39.0834 134.026 40.2446C135.24 40.5275 136.499 40.5552 137.723 40.326C138.948 40.0968 140.112 39.6156 141.141 38.9131L151.591 23.0821C151.627 23.0285 151.676 22.9844 151.732 22.9534C151.789 22.9224 151.852 22.9054 151.916 22.904H168.514C168.514 22.3621 168.514 21.1932 168.514 19.2423L166.88 19.0643C149.416 17.1677 141.388 16.2232 140.854 15.9678C139.174 15.1936 137.301 16.1845 135.118 18.9095C132.6 22.1728 130.274 25.5796 128.151 29.1126C127.291 30.4905 126.401 31.884 125.511 33.2774Z" fill="#231F20"/>
<path d="M143.556 15.457C140.629 14.7758 141.713 9.68969 142.487 7.6305C142.639 7.1727 142.876 6.74737 143.184 6.3764C143.52 6.05622 143.92 5.81122 144.358 5.65771C144.795 5.50421 145.261 5.44572 145.723 5.48614C146.643 5.57209 147.556 5.71951 148.456 5.9274C150.512 6.27448 152.622 6.09062 154.587 5.39325C155.253 5.15326 156.019 4.87457 156.615 5.24616C156.797 5.37991 156.947 5.55176 157.055 5.74967C157.164 5.94757 157.228 6.16676 157.242 6.39188C157.277 6.92572 157.175 7.45955 156.946 7.94306C156.717 8.42657 156.369 8.84383 155.934 9.15554C155.037 9.72422 154.007 10.0497 152.946 10.1C153.085 10.9283 153.225 11.1915 152.729 11.8728C152.236 12.4856 151.642 13.0093 150.972 13.421C150.253 13.8313 149.505 14.1884 148.735 14.4893C147.117 15.2015 145.537 15.8286 143.703 15.488L143.556 15.457Z" fill="white"/>
<path d="M144.756 15.9675C144.379 15.9676 144.004 15.9339 143.633 15.8669H143.471C143.103 15.7894 142.758 15.6302 142.46 15.4011C142.163 15.1719 141.921 14.8786 141.752 14.5431C140.699 12.5923 141.535 9.12415 142.124 7.57588C142.293 7.06977 142.556 6.59979 142.898 6.19018C143.272 5.83089 143.718 5.55479 144.206 5.38001C144.694 5.20523 145.214 5.13573 145.731 5.17607C146.386 5.21552 147.036 5.31135 147.674 5.4625L148.518 5.62507C150.509 5.95838 152.552 5.7799 154.456 5.1064C155.23 4.84319 156.073 4.53353 156.778 4.99801C157.005 5.1627 157.192 5.37609 157.326 5.62255C157.46 5.869 157.537 6.1423 157.552 6.42243C157.593 7.0198 157.481 7.61782 157.227 8.15975C156.972 8.70168 156.583 9.16955 156.097 9.51896C155.272 10.075 154.317 10.4059 153.325 10.4789C153.408 10.7649 153.419 11.0667 153.359 11.3582C153.298 11.6496 153.167 11.9218 152.977 12.151C152.452 12.8011 151.821 13.3584 151.111 13.7999C150.536 14.1404 149.936 14.4354 149.315 14.6824L148.82 14.8992C147.553 15.5309 146.169 15.8946 144.756 15.9675ZM145.53 5.90376C145.146 5.88141 144.761 5.93863 144.4 6.07184C144.039 6.20505 143.709 6.41138 143.432 6.67789C143.155 7.01136 142.944 7.3951 142.813 7.80813C142.178 9.50348 141.543 12.5923 142.395 14.1793C142.512 14.4162 142.682 14.6236 142.891 14.7858C143.1 14.948 143.343 15.0608 143.602 15.116H143.726C145.414 15.4333 146.823 14.8915 148.533 14.1483L149.037 13.9315C149.619 13.704 150.181 13.4269 150.716 13.1032C151.348 12.7195 151.908 12.2298 152.373 11.6556C152.698 11.1988 152.675 11.0595 152.574 10.4789L152.52 10.177C152.504 10.0736 152.529 9.96809 152.59 9.88281C152.62 9.84248 152.659 9.80869 152.703 9.78343C152.747 9.75817 152.795 9.74195 152.845 9.73572H153.016C153.954 9.68802 154.864 9.39724 155.655 8.89192C156.038 8.62275 156.344 8.26008 156.546 7.83857C156.748 7.41706 156.839 6.9508 156.809 6.48436C156.799 6.31654 156.753 6.15274 156.676 6.00344C156.599 5.85414 156.491 5.72263 156.36 5.61732C155.934 5.35412 155.284 5.61733 154.703 5.78763C152.689 6.50326 150.525 6.69245 148.417 6.33727C148.123 6.29082 147.837 6.22889 147.542 6.1747C146.948 6.02891 146.342 5.93821 145.731 5.90376H145.53Z" fill="#231F20"/>
<path d="M151.42 14.002C151.42 14.002 151.629 16.4405 151.18 16.6805C150.731 16.9204 150.05 16.2237 150.05 16.2237" fill="white"/>
<path d="M150.972 17.1136C150.513 17.0561 150.091 16.8364 149.78 16.4943C149.717 16.4198 149.684 16.3243 149.689 16.2269C149.693 16.1295 149.734 16.0373 149.804 15.9688C149.873 15.9004 149.966 15.8607 150.063 15.8576C150.161 15.8545 150.256 15.8884 150.329 15.9524C150.577 16.2001 150.918 16.3781 151.003 16.3394C151.104 15.5686 151.104 14.7879 151.003 14.017C150.996 13.9148 151.03 13.814 151.096 13.736C151.163 13.6579 151.257 13.6088 151.359 13.599C151.41 13.5948 151.461 13.6006 151.51 13.6163C151.558 13.6319 151.603 13.657 151.642 13.6901C151.681 13.7232 151.713 13.7636 151.736 13.8091C151.759 13.8546 151.773 13.9042 151.777 13.9551C151.932 15.7433 151.777 16.7652 151.328 17.0052C151.22 17.0697 151.098 17.1069 150.972 17.1136Z" fill="#231F20"/>
<path d="M153.209 9.86034C153.627 10.8822 151.954 13.731 151.482 14.5051C150.822 15.6973 150.135 16.8688 149.423 18.0197C148.974 18.7474 147.008 17.7023 146.791 17.2456L145.467 20.3963C144.534 20.0427 143.743 19.3927 143.214 18.5461C142.038 16.9592 142.224 16.5798 142.224 16.5798L144.229 13.2123C144.701 13.4156 145.221 13.4848 145.73 13.4124C146.239 13.3401 146.719 13.1289 147.116 12.802C148.288 11.8321 149.261 10.6438 149.98 9.30296C149.98 9.30296 152.798 8.85396 153.209 9.86034Z" fill="white"/>
<path d="M145.467 20.8602H145.382C144.356 20.4953 143.483 19.7942 142.905 18.8706C142.03 17.6862 141.682 16.8888 141.875 16.5018L143.903 13.1033C143.955 13.0175 144.038 12.9551 144.135 12.9291C144.231 12.9031 144.334 12.9156 144.422 12.964C144.831 13.1324 145.278 13.1853 145.715 13.1171C146.152 13.0488 146.561 12.862 146.899 12.5769C148.02 11.6435 148.951 10.5028 149.64 9.21718C149.666 9.16499 149.705 9.11966 149.752 9.08474C149.799 9.04982 149.853 9.02626 149.911 9.0159C150.429 8.91526 153.061 8.49723 153.565 9.7281C153.967 10.7113 153.023 12.6156 151.947 14.5277L151.823 14.7522C151.165 15.9289 150.468 17.1133 149.756 18.2746C149.655 18.4285 149.513 18.5509 149.346 18.6276C149.179 18.7043 148.994 18.7322 148.811 18.7081C148.133 18.6406 147.484 18.3949 146.93 17.9959L145.823 20.6357C145.792 20.7035 145.742 20.7607 145.678 20.8006C145.615 20.8404 145.542 20.8611 145.467 20.8602ZM142.603 16.7727C142.794 17.3727 143.108 17.9263 143.524 18.3984C143.976 19.04 144.57 19.5696 145.258 19.9467L146.435 17.1521C146.461 17.0843 146.507 17.0257 146.566 16.9832C146.625 16.9406 146.695 16.9159 146.768 16.9121C146.842 16.9083 146.916 16.9259 146.98 16.963C147.045 17.0001 147.097 17.055 147.132 17.1211C147.618 17.5528 148.227 17.8232 148.873 17.8952C148.943 17.8952 149.059 17.8952 149.098 17.8256C149.802 16.6798 150.499 15.5032 151.142 14.3342L151.273 14.1097C152.527 11.8802 153.061 10.4945 152.821 9.98357C152.581 9.47264 151.273 9.54231 150.197 9.70488C149.472 11.0398 148.491 12.2184 147.31 13.173C146.898 13.4913 146.417 13.7088 145.907 13.8083C145.396 13.9078 144.869 13.8864 144.368 13.7459L142.603 16.7727Z" fill="#231F20"/>
<path d="M149.879 17.1753C149.516 17.0615 149.205 16.8222 149.002 16.5002C148.8 16.1783 148.718 15.7946 148.772 15.418" fill="white"/>
<path d="M149.88 17.5396H149.787C149.335 17.4023 148.947 17.1089 148.692 16.7119C148.437 16.3148 148.331 15.8399 148.394 15.372C148.402 15.2693 148.45 15.1741 148.529 15.1074C148.607 15.0406 148.709 15.0077 148.812 15.0159C148.914 15.0241 149.009 15.0728 149.076 15.1511C149.143 15.2295 149.176 15.3313 149.168 15.4339C149.117 15.7209 149.172 16.0166 149.323 16.2659C149.474 16.5152 149.71 16.701 149.988 16.7887C150.091 16.802 150.184 16.8556 150.247 16.9376C150.31 17.0196 150.338 17.1234 150.325 17.226C150.312 17.3287 150.258 17.4218 150.176 17.485C150.094 17.5482 149.99 17.5761 149.888 17.5628L149.88 17.5396Z" fill="#231F20"/>
<path d="M148.726 13.5214C148.851 13.2043 148.889 12.8593 148.835 12.5227C148.829 12.2596 148.785 11.9988 148.703 11.7486C148.658 11.6255 148.587 11.5134 148.494 11.4199C148.402 11.3265 148.291 11.2538 148.169 11.2067C148.055 11.1775 147.936 11.1728 147.82 11.1928C147.704 11.2128 147.593 11.2571 147.495 11.3228C147.301 11.4551 147.14 11.6298 147.023 11.8338C146.76 12.2703 146.616 12.7684 146.607 13.278C146.597 13.7876 146.722 14.2907 146.969 14.7368V14.6284" fill="white"/>
<path d="M146.907 15.0774C146.851 15.0801 146.795 15.0671 146.746 15.0397C146.696 15.0124 146.656 14.9718 146.628 14.9225C146.346 14.4147 146.204 13.8411 146.217 13.2603C146.229 12.6796 146.395 12.1125 146.698 11.617C146.849 11.3675 147.049 11.1514 147.286 10.9822C147.432 10.8887 147.595 10.8267 147.765 10.8C147.936 10.7733 148.11 10.7827 148.277 10.8274C148.456 10.8905 148.618 10.9927 148.752 11.1267C148.886 11.2607 148.988 11.4229 149.051 11.6015C149.144 11.9024 149.191 12.2156 149.191 12.5305C149.254 12.9396 149.2 13.3582 149.036 13.7381C148.987 13.8285 148.904 13.896 148.806 13.9264C148.707 13.9568 148.601 13.9475 148.509 13.9007C148.461 13.8699 148.42 13.8293 148.389 13.7816C148.358 13.7338 148.337 13.6799 148.329 13.6236C148.32 13.5672 148.323 13.5096 148.338 13.4546C148.353 13.3996 148.38 13.3485 148.417 13.3046C148.509 13.0575 148.533 12.7901 148.486 12.5305C148.484 12.3068 148.448 12.0849 148.378 11.8724C148.357 11.8015 148.32 11.7362 148.271 11.6813C148.221 11.6263 148.16 11.5832 148.091 11.5551C148.032 11.5409 147.97 11.5398 147.91 11.5518C147.85 11.5638 147.793 11.5887 147.743 11.6247C147.597 11.7235 147.478 11.8564 147.395 12.0118C147.186 12.3589 147.064 12.751 147.038 13.1551C147.013 13.5592 147.085 13.9635 147.248 14.3342C147.301 14.378 147.339 14.4377 147.356 14.5045C147.381 14.6017 147.373 14.7043 147.334 14.7967C147.295 14.889 147.226 14.9659 147.139 15.0154C147.067 15.0512 146.988 15.0723 146.907 15.0774Z" fill="#231F20"/>
<path d="M146.792 17.3231C146.311 16.8196 145.986 16.1879 145.855 15.5039C145.855 15.5039 144.934 17.3541 146.203 18.7243L146.792 17.3231Z" fill="#231F20"/>
<path d="M146.203 19.1106C146.15 19.1101 146.097 19.0989 146.048 19.0776C145.998 19.0563 145.954 19.0254 145.917 18.9868C144.485 17.4385 145.468 15.418 145.507 15.3329C145.545 15.2581 145.606 15.1974 145.681 15.1598C145.757 15.1223 145.842 15.1096 145.925 15.1238C146.007 15.1385 146.083 15.1797 146.14 15.2411C146.197 15.3025 146.233 15.3809 146.242 15.4645C146.363 16.0497 146.651 16.5874 147.07 17.0127C147.123 17.0667 147.159 17.1354 147.173 17.2099C147.187 17.2844 147.178 17.3613 147.148 17.4308L146.559 18.8319C146.533 18.892 146.493 18.9447 146.442 18.9852C146.39 19.0257 146.33 19.0529 146.265 19.0642L146.203 19.1106ZM145.925 16.7882C145.877 17.1836 145.936 17.5843 146.095 17.9494L146.319 17.4308C146.172 17.2324 146.04 17.0227 145.925 16.8037V16.7882Z" fill="#231F20"/>
<path d="M151.35 12.9356C151.517 12.7241 151.584 12.4989 151.5 12.4328C151.416 12.3666 151.213 12.4845 151.046 12.6961C150.879 12.9076 150.812 13.1327 150.896 13.1989C150.98 13.265 151.183 13.1472 151.35 12.9356Z" fill="#231F20"/>
<path d="M151.738 12.6701L151.111 11.834Z" fill="white"/>
<path d="M151.738 13.0575C151.677 13.0593 151.616 13.0453 151.562 13.0168C151.508 12.9883 151.462 12.9463 151.429 12.8949L150.802 12.0588C150.772 12.0183 150.75 11.9723 150.738 11.9233C150.726 11.8744 150.724 11.8236 150.732 11.7739C150.74 11.7242 150.758 11.6766 150.784 11.6338C150.811 11.591 150.846 11.5539 150.887 11.5247C150.969 11.4631 151.072 11.4366 151.174 11.4512C151.275 11.4657 151.367 11.52 151.429 11.6021L152.048 12.4382C152.078 12.4793 152.1 12.526 152.112 12.5755C152.124 12.625 152.126 12.6764 152.118 12.7268C152.11 12.7771 152.092 12.8254 152.066 12.8689C152.039 12.9124 152.004 12.9501 151.963 12.9801C151.898 13.0283 151.819 13.0553 151.738 13.0575Z" fill="#231F20"/>
<path d="M99.4758 59.8223C99.4758 59.8223 93.3215 63.4762 93.3215 64.0568C93.3215 64.6374 92.6402 64.3277 94.7536 68.7635C95.6439 70.6447 99.7468 71.8601 99.3288 70.4434C98.1366 66.3637 98.214 65.9302 98.214 65.9302L103.107 63.9639" fill="#231F20"/>
<path d="M98.6777 71.4499C97.3694 71.4499 95.0935 70.3971 94.3967 68.9262C92.6162 65.1716 92.7633 64.6839 92.9026 64.2117C92.9109 64.1604 92.9109 64.1082 92.9026 64.0569C92.9026 63.8169 92.9027 63.2827 99.2428 59.4895C99.3324 59.4383 99.4385 59.4242 99.5383 59.4503C99.6381 59.4763 99.7238 59.5404 99.777 59.6288C99.8278 59.7172 99.8416 59.8221 99.8155 59.9207C99.7894 60.0193 99.7255 60.1035 99.6376 60.1552C96.9591 61.75 94.0406 63.6466 93.6768 64.1343C93.6685 64.2346 93.6477 64.3334 93.6149 64.4285C93.5374 64.6839 93.4136 65.1097 95.0702 68.5933C95.527 69.561 97.0365 70.397 98.1668 70.6215C98.4193 70.6968 98.6883 70.6968 98.9409 70.6215C98.9409 70.6215 98.9409 70.6215 98.9409 70.5441C98.4117 69.0216 98.0357 67.4501 97.8184 65.8529C97.8297 65.7884 97.8569 65.7278 97.8974 65.6765C97.9379 65.6251 97.9906 65.5847 98.0507 65.5587L102.943 63.6001C103.038 63.5616 103.144 63.562 103.238 63.6011C103.332 63.6403 103.407 63.715 103.446 63.8092C103.485 63.9048 103.485 64.0117 103.446 64.1072C103.407 64.2027 103.332 64.2791 103.237 64.3201L98.5925 66.1703C98.8776 67.574 99.2368 68.9616 99.6686 70.3274C99.7089 70.4261 99.7284 70.5321 99.7258 70.6388C99.7232 70.7454 99.6986 70.8503 99.6535 70.947C99.6084 71.0437 99.5439 71.13 99.4639 71.2005C99.3839 71.2711 99.2902 71.3244 99.1886 71.357C99.0245 71.4157 98.8519 71.447 98.6777 71.4499Z" fill="#231F20"/>
<path d="M169.915 24.6228C169.915 24.6228 175.442 24.7699 175.543 24.6228C175.643 24.4757 177.254 15.6119 176.379 15.9757C175.504 16.3396 173.693 20.9921 173.693 20.9921L169.257 21.2089" fill="white"/>
<path d="M173.878 25.0797C173.019 25.0797 171.757 25.0797 169.899 25.01C169.798 25.006 169.702 24.9624 169.633 24.8885C169.563 24.8147 169.526 24.7166 169.528 24.6152C169.527 24.5637 169.536 24.5126 169.556 24.465C169.575 24.4174 169.605 24.3744 169.642 24.3388C169.679 24.3031 169.723 24.2756 169.771 24.2578C169.82 24.2401 169.871 24.2326 169.922 24.2359C172.09 24.2901 174.513 24.321 175.241 24.2823C175.761 21.7499 176.1 19.1836 176.255 16.6029C175.365 18.0324 174.626 19.55 174.049 21.1316C174.022 21.2014 173.975 21.2619 173.915 21.3058C173.855 21.3498 173.783 21.3753 173.708 21.3793L169.28 21.5961C169.229 21.5986 169.178 21.5911 169.13 21.574C169.082 21.5569 169.038 21.5305 169.001 21.4964C168.924 21.4274 168.879 21.331 168.874 21.2284C168.868 21.1257 168.904 21.0252 168.973 20.949C169.042 20.8728 169.139 20.8271 169.241 20.8219L173.422 20.6129C173.948 19.2814 175.334 15.9681 176.232 15.6198C176.333 15.5751 176.446 15.5661 176.553 15.5942C176.66 15.6223 176.754 15.6859 176.82 15.7746C177.594 16.75 175.899 24.7933 175.86 24.8474C175.821 24.9016 175.698 25.0797 173.878 25.0797Z" fill="#231F20"/>
<path d="M146.792 23.5771L142.519 33.2383L144.988 36.0717L147.744 33.2383V22.7256L146.792 23.5771Z" fill="#231F20"/>
<path d="M139.809 17.1133L171.177 20.4343L170.279 26.0932C170.279 26.0932 144.732 26.6893 138.454 24.6843" fill="white"/>
<path d="M161.786 26.5654C153.743 26.5654 142.348 26.3254 138.338 25.0559C138.287 25.0406 138.24 25.0155 138.199 24.982C138.157 24.9484 138.123 24.9071 138.098 24.8604C138.073 24.8137 138.057 24.7624 138.052 24.7096C138.047 24.6569 138.052 24.6035 138.067 24.5527C138.082 24.5019 138.107 24.4545 138.141 24.4134C138.174 24.3723 138.216 24.3382 138.262 24.313C138.309 24.2878 138.36 24.2721 138.413 24.2668C138.466 24.2614 138.519 24.2665 138.57 24.2817C144.376 26.1242 166.973 25.7371 169.946 25.6752L170.72 20.7362L139.754 17.4616C139.704 17.4565 139.654 17.4415 139.609 17.4173C139.564 17.3932 139.524 17.3604 139.492 17.3209C139.46 17.2813 139.436 17.2358 139.421 17.1869C139.406 17.138 139.401 17.0867 139.406 17.0358C139.411 16.985 139.426 16.9357 139.45 16.8907C139.475 16.8456 139.507 16.8058 139.547 16.7735C139.586 16.7411 139.632 16.7169 139.681 16.7021C139.73 16.6874 139.781 16.6824 139.832 16.6875L171.208 20.0085C171.312 20.0236 171.407 20.0792 171.471 20.1633C171.503 20.2046 171.526 20.2519 171.54 20.3025C171.553 20.3531 171.556 20.4058 171.548 20.4575L170.65 26.1164C170.636 26.2067 170.589 26.2889 170.52 26.3484C170.451 26.4079 170.362 26.4409 170.271 26.4416C169.907 26.4648 166.4 26.5654 161.786 26.5654Z" fill="#231F20"/>
</svg>
